G04 #@! TF.GenerationSoftware,KiCad,Pcbnew,5.1.9+dfsg1-1*
G04 #@! TF.CreationDate,2021-03-03T15:22:06-06:00*
G04 #@! TF.ProjectId,Nano SwinSIDb,4e616e6f-2053-4776-996e-534944622e6b,rev?*
G04 #@! TF.SameCoordinates,Original*
G04 #@! TF.FileFunction,Legend,Top*
G04 #@! TF.FilePolarity,Positive*
%FSLAX46Y46*%
G04 Gerber Fmt 4.6, Leading zero omitted, Abs format (unit mm)*
G04 Created by KiCad (PCBNEW 5.1.9+dfsg1-1) date 2021-03-03 15:22:06*
%MOMM*%
%LPD*%
G01*
G04 APERTURE LIST*
%ADD10C,0.112500*%
%ADD11C,0.100000*%
%ADD12C,0.120000*%
%ADD13C,0.150000*%
%ADD14C,0.075000*%
G04 APERTURE END LIST*
D10*
X101762857Y-98764285D02*
X101762857Y-98014285D01*
X102548571Y-98692857D02*
X102512857Y-98728571D01*
X102405714Y-98764285D01*
X102334285Y-98764285D01*
X102227142Y-98728571D01*
X102155714Y-98657142D01*
X102120000Y-98585714D01*
X102084285Y-98442857D01*
X102084285Y-98335714D01*
X102120000Y-98192857D01*
X102155714Y-98121428D01*
X102227142Y-98050000D01*
X102334285Y-98014285D01*
X102405714Y-98014285D01*
X102512857Y-98050000D01*
X102548571Y-98085714D01*
X102834285Y-98728571D02*
X102941428Y-98764285D01*
X103120000Y-98764285D01*
X103191428Y-98728571D01*
X103227142Y-98692857D01*
X103262857Y-98621428D01*
X103262857Y-98550000D01*
X103227142Y-98478571D01*
X103191428Y-98442857D01*
X103120000Y-98407142D01*
X102977142Y-98371428D01*
X102905714Y-98335714D01*
X102870000Y-98300000D01*
X102834285Y-98228571D01*
X102834285Y-98157142D01*
X102870000Y-98085714D01*
X102905714Y-98050000D01*
X102977142Y-98014285D01*
X103155714Y-98014285D01*
X103262857Y-98050000D01*
X103584285Y-98764285D02*
X103584285Y-98014285D01*
X103870000Y-98014285D01*
X103941428Y-98050000D01*
X103977142Y-98085714D01*
X104012857Y-98157142D01*
X104012857Y-98264285D01*
X103977142Y-98335714D01*
X103941428Y-98371428D01*
X103870000Y-98407142D01*
X103584285Y-98407142D01*
D11*
X104472333Y-110319333D02*
X104710428Y-110319333D01*
X104424714Y-110462190D02*
X104591380Y-109962190D01*
X104758047Y-110462190D01*
X104853285Y-109962190D02*
X105139000Y-109962190D01*
X104996142Y-110462190D02*
X104996142Y-109962190D01*
X105305666Y-110462190D02*
X105305666Y-110128857D01*
X105305666Y-110176476D02*
X105329476Y-110152666D01*
X105377095Y-110128857D01*
X105448523Y-110128857D01*
X105496142Y-110152666D01*
X105519952Y-110200285D01*
X105519952Y-110462190D01*
X105519952Y-110200285D02*
X105543761Y-110152666D01*
X105591380Y-110128857D01*
X105662809Y-110128857D01*
X105710428Y-110152666D01*
X105734238Y-110200285D01*
X105734238Y-110462190D01*
X106162809Y-110438380D02*
X106115190Y-110462190D01*
X106019952Y-110462190D01*
X105972333Y-110438380D01*
X105948523Y-110390761D01*
X105948523Y-110200285D01*
X105972333Y-110152666D01*
X106019952Y-110128857D01*
X106115190Y-110128857D01*
X106162809Y-110152666D01*
X106186619Y-110200285D01*
X106186619Y-110247904D01*
X105948523Y-110295523D01*
X106615190Y-110128857D02*
X106615190Y-110533619D01*
X106591380Y-110581238D01*
X106567571Y-110605047D01*
X106519952Y-110628857D01*
X106448523Y-110628857D01*
X106400904Y-110605047D01*
X106615190Y-110438380D02*
X106567571Y-110462190D01*
X106472333Y-110462190D01*
X106424714Y-110438380D01*
X106400904Y-110414571D01*
X106377095Y-110366952D01*
X106377095Y-110224095D01*
X106400904Y-110176476D01*
X106424714Y-110152666D01*
X106472333Y-110128857D01*
X106567571Y-110128857D01*
X106615190Y-110152666D01*
X107067571Y-110462190D02*
X107067571Y-110200285D01*
X107043761Y-110152666D01*
X106996142Y-110128857D01*
X106900904Y-110128857D01*
X106853285Y-110152666D01*
X107067571Y-110438380D02*
X107019952Y-110462190D01*
X106900904Y-110462190D01*
X106853285Y-110438380D01*
X106829476Y-110390761D01*
X106829476Y-110343142D01*
X106853285Y-110295523D01*
X106900904Y-110271714D01*
X107019952Y-110271714D01*
X107067571Y-110247904D01*
X107377095Y-110176476D02*
X107329476Y-110152666D01*
X107305666Y-110128857D01*
X107281857Y-110081238D01*
X107281857Y-110057428D01*
X107305666Y-110009809D01*
X107329476Y-109986000D01*
X107377095Y-109962190D01*
X107472333Y-109962190D01*
X107519952Y-109986000D01*
X107543761Y-110009809D01*
X107567571Y-110057428D01*
X107567571Y-110081238D01*
X107543761Y-110128857D01*
X107519952Y-110152666D01*
X107472333Y-110176476D01*
X107377095Y-110176476D01*
X107329476Y-110200285D01*
X107305666Y-110224095D01*
X107281857Y-110271714D01*
X107281857Y-110366952D01*
X107305666Y-110414571D01*
X107329476Y-110438380D01*
X107377095Y-110462190D01*
X107472333Y-110462190D01*
X107519952Y-110438380D01*
X107543761Y-110414571D01*
X107567571Y-110366952D01*
X107567571Y-110271714D01*
X107543761Y-110224095D01*
X107519952Y-110200285D01*
X107472333Y-110176476D01*
X107853285Y-110176476D02*
X107805666Y-110152666D01*
X107781857Y-110128857D01*
X107758047Y-110081238D01*
X107758047Y-110057428D01*
X107781857Y-110009809D01*
X107805666Y-109986000D01*
X107853285Y-109962190D01*
X107948523Y-109962190D01*
X107996142Y-109986000D01*
X108019952Y-110009809D01*
X108043761Y-110057428D01*
X108043761Y-110081238D01*
X108019952Y-110128857D01*
X107996142Y-110152666D01*
X107948523Y-110176476D01*
X107853285Y-110176476D01*
X107805666Y-110200285D01*
X107781857Y-110224095D01*
X107758047Y-110271714D01*
X107758047Y-110366952D01*
X107781857Y-110414571D01*
X107805666Y-110438380D01*
X107853285Y-110462190D01*
X107948523Y-110462190D01*
X107996142Y-110438380D01*
X108019952Y-110414571D01*
X108043761Y-110366952D01*
X108043761Y-110271714D01*
X108019952Y-110224095D01*
X107996142Y-110200285D01*
X107948523Y-110176476D01*
X100853761Y-91721809D02*
X100853761Y-92221809D01*
X100687095Y-91864666D01*
X100520428Y-92221809D01*
X100520428Y-91721809D01*
X100187095Y-92221809D02*
X100091857Y-92221809D01*
X100044238Y-92198000D01*
X99996619Y-92150380D01*
X99972809Y-92055142D01*
X99972809Y-91888476D01*
X99996619Y-91793238D01*
X100044238Y-91745619D01*
X100091857Y-91721809D01*
X100187095Y-91721809D01*
X100234714Y-91745619D01*
X100282333Y-91793238D01*
X100306142Y-91888476D01*
X100306142Y-92055142D01*
X100282333Y-92150380D01*
X100234714Y-92198000D01*
X100187095Y-92221809D01*
X99758523Y-91721809D02*
X99758523Y-92221809D01*
X99639476Y-92221809D01*
X99568047Y-92198000D01*
X99520428Y-92150380D01*
X99496619Y-92102761D01*
X99472809Y-92007523D01*
X99472809Y-91936095D01*
X99496619Y-91840857D01*
X99520428Y-91793238D01*
X99568047Y-91745619D01*
X99639476Y-91721809D01*
X99758523Y-91721809D01*
X99258523Y-91983714D02*
X99091857Y-91983714D01*
X99020428Y-91721809D02*
X99258523Y-91721809D01*
X99258523Y-92221809D01*
X99020428Y-92221809D01*
X98746619Y-86086190D02*
X98841857Y-86086190D01*
X98889476Y-86110000D01*
X98937095Y-86157619D01*
X98960904Y-86252857D01*
X98960904Y-86419523D01*
X98937095Y-86514761D01*
X98889476Y-86562380D01*
X98841857Y-86586190D01*
X98746619Y-86586190D01*
X98699000Y-86562380D01*
X98651380Y-86514761D01*
X98627571Y-86419523D01*
X98627571Y-86252857D01*
X98651380Y-86157619D01*
X98699000Y-86110000D01*
X98746619Y-86086190D01*
X99175190Y-86086190D02*
X99175190Y-86490952D01*
X99199000Y-86538571D01*
X99222809Y-86562380D01*
X99270428Y-86586190D01*
X99365666Y-86586190D01*
X99413285Y-86562380D01*
X99437095Y-86538571D01*
X99460904Y-86490952D01*
X99460904Y-86086190D01*
X99627571Y-86086190D02*
X99913285Y-86086190D01*
X99770428Y-86586190D02*
X99770428Y-86086190D01*
X100079952Y-86586190D02*
X100079952Y-86086190D01*
X100270428Y-86086190D01*
X100318047Y-86110000D01*
X100341857Y-86133809D01*
X100365666Y-86181428D01*
X100365666Y-86252857D01*
X100341857Y-86300476D01*
X100318047Y-86324285D01*
X100270428Y-86348095D01*
X100079952Y-86348095D01*
X100579952Y-86086190D02*
X100579952Y-86490952D01*
X100603761Y-86538571D01*
X100627571Y-86562380D01*
X100675190Y-86586190D01*
X100770428Y-86586190D01*
X100818047Y-86562380D01*
X100841857Y-86538571D01*
X100865666Y-86490952D01*
X100865666Y-86086190D01*
X101032333Y-86086190D02*
X101318047Y-86086190D01*
X101175190Y-86586190D02*
X101175190Y-86086190D01*
D12*
X98298000Y-113881000D02*
X98298000Y-114571000D01*
X100178000Y-114611000D02*
X99538000Y-114611000D01*
X100178000Y-112391000D02*
X99538000Y-112391000D01*
X98498000Y-113661000D02*
X98498000Y-113331000D01*
X101218000Y-113671000D02*
X101218000Y-113331000D01*
X98298000Y-113881000D02*
G75*
G02*
X98498000Y-113661000I320000J-90000D01*
G01*
D13*
X106622000Y-107726000D02*
X108047000Y-107726000D01*
X99372000Y-107951000D02*
X99697000Y-107951000D01*
X99372000Y-100701000D02*
X99697000Y-100701000D01*
X106622000Y-100701000D02*
X106297000Y-100701000D01*
X106622000Y-107951000D02*
X106297000Y-107951000D01*
X106622000Y-100701000D02*
X106622000Y-101026000D01*
X99372000Y-100701000D02*
X99372000Y-101026000D01*
X99372000Y-107951000D02*
X99372000Y-107626000D01*
X106622000Y-107951000D02*
X106622000Y-107726000D01*
D12*
X102262000Y-113654064D02*
X102262000Y-113199936D01*
X103732000Y-113654064D02*
X103732000Y-113199936D01*
X98549000Y-88184000D02*
X98549000Y-87584000D01*
X100649000Y-88884000D02*
X99249000Y-88884000D01*
X101349000Y-87584000D02*
X101349000Y-88184000D01*
X99249000Y-86884000D02*
X100649000Y-86884000D01*
X100649000Y-86884000D02*
G75*
G02*
X101349000Y-87584000I0J-700000D01*
G01*
X101349000Y-88184000D02*
G75*
G02*
X100649000Y-88884000I-700000J0D01*
G01*
X99249000Y-88884000D02*
G75*
G02*
X98549000Y-88184000I0J700000D01*
G01*
X98549000Y-87584000D02*
G75*
G02*
X99249000Y-86884000I700000J0D01*
G01*
X99000000Y-93853000D02*
X99000000Y-92523000D01*
X99000000Y-92523000D02*
X100330000Y-92523000D01*
X99000000Y-95123000D02*
X101600000Y-95123000D01*
X101600000Y-95123000D02*
X101600000Y-92523000D01*
X101600000Y-92523000D02*
X106740000Y-92523000D01*
X106740000Y-97723000D02*
X106740000Y-92523000D01*
X99000000Y-97723000D02*
X106740000Y-97723000D01*
X99000000Y-97723000D02*
X99000000Y-95123000D01*
X102516000Y-89365064D02*
X102516000Y-88910936D01*
X103986000Y-89365064D02*
X103986000Y-88910936D01*
X107415000Y-83592936D02*
X107415000Y-84047064D01*
X105945000Y-83592936D02*
X105945000Y-84047064D01*
X104875000Y-84047064D02*
X104875000Y-83592936D01*
X103405000Y-84047064D02*
X103405000Y-83592936D01*
X99795000Y-83576936D02*
X99795000Y-84031064D01*
X98325000Y-83576936D02*
X98325000Y-84031064D01*
X99234000Y-89424000D02*
X100634000Y-89424000D01*
X101334000Y-90124000D02*
X101334000Y-90724000D01*
X100634000Y-91424000D02*
X99234000Y-91424000D01*
X98534000Y-90724000D02*
X98534000Y-90124000D01*
X98534000Y-90124000D02*
G75*
G02*
X99234000Y-89424000I700000J0D01*
G01*
X99234000Y-91424000D02*
G75*
G02*
X98534000Y-90724000I0J700000D01*
G01*
X101334000Y-90724000D02*
G75*
G02*
X100634000Y-91424000I-700000J0D01*
G01*
X100634000Y-89424000D02*
G75*
G02*
X101334000Y-90124000I0J-700000D01*
G01*
X108023000Y-112451000D02*
X105163000Y-112451000D01*
X108023000Y-114371000D02*
X108023000Y-112451000D01*
X105163000Y-114371000D02*
X108023000Y-114371000D01*
X105262000Y-88481248D02*
X105262000Y-89903752D01*
X107082000Y-88481248D02*
X107082000Y-89903752D01*
X102335000Y-84047064D02*
X102335000Y-83592936D01*
X100865000Y-84047064D02*
X100865000Y-83592936D01*
D13*
X99012476Y-115022380D02*
X99679142Y-116022380D01*
X99679142Y-115022380D02*
X99012476Y-116022380D01*
X100583904Y-116022380D02*
X100012476Y-116022380D01*
X100298190Y-116022380D02*
X100298190Y-115022380D01*
X100202952Y-115165238D01*
X100107714Y-115260476D01*
X100012476Y-115308095D01*
X97917095Y-109815380D02*
X97917095Y-110624904D01*
X97964714Y-110720142D01*
X98012333Y-110767761D01*
X98107571Y-110815380D01*
X98298047Y-110815380D01*
X98393285Y-110767761D01*
X98440904Y-110720142D01*
X98488523Y-110624904D01*
X98488523Y-109815380D01*
X99488523Y-110815380D02*
X98917095Y-110815380D01*
X99202809Y-110815380D02*
X99202809Y-109815380D01*
X99107571Y-109958238D01*
X99012333Y-110053476D01*
X98917095Y-110101095D01*
D10*
X102443428Y-116163285D02*
X102443428Y-115413285D01*
X102622000Y-115413285D01*
X102729142Y-115449000D01*
X102800571Y-115520428D01*
X102836285Y-115591857D01*
X102872000Y-115734714D01*
X102872000Y-115841857D01*
X102836285Y-115984714D01*
X102800571Y-116056142D01*
X102729142Y-116127571D01*
X102622000Y-116163285D01*
X102443428Y-116163285D01*
X103586285Y-116163285D02*
X103157714Y-116163285D01*
X103372000Y-116163285D02*
X103372000Y-115413285D01*
X103300571Y-115520428D01*
X103229142Y-115591857D01*
X103157714Y-115627571D01*
D14*
X97770190Y-88300666D02*
X98127333Y-88300666D01*
X98198761Y-88324476D01*
X98246380Y-88372095D01*
X98270190Y-88443523D01*
X98270190Y-88491142D01*
X98270190Y-88062571D02*
X97770190Y-88062571D01*
X97770190Y-87872095D01*
X97794000Y-87824476D01*
X97817809Y-87800666D01*
X97865428Y-87776857D01*
X97936857Y-87776857D01*
X97984476Y-87800666D01*
X98008285Y-87824476D01*
X98032095Y-87872095D01*
X98032095Y-88062571D01*
X97817809Y-87586380D02*
X97794000Y-87562571D01*
X97770190Y-87514952D01*
X97770190Y-87395904D01*
X97794000Y-87348285D01*
X97817809Y-87324476D01*
X97865428Y-87300666D01*
X97913047Y-87300666D01*
X97984476Y-87324476D01*
X98270190Y-87610190D01*
X98270190Y-87300666D01*
D13*
X107362666Y-94575380D02*
X107362666Y-95289666D01*
X107315047Y-95432523D01*
X107219809Y-95527761D01*
X107076952Y-95575380D01*
X106981714Y-95575380D01*
X108315047Y-94575380D02*
X107838857Y-94575380D01*
X107791238Y-95051571D01*
X107838857Y-95003952D01*
X107934095Y-94956333D01*
X108172190Y-94956333D01*
X108267428Y-95003952D01*
X108315047Y-95051571D01*
X108362666Y-95146809D01*
X108362666Y-95384904D01*
X108315047Y-95480142D01*
X108267428Y-95527761D01*
X108172190Y-95575380D01*
X107934095Y-95575380D01*
X107838857Y-95527761D01*
X107791238Y-95480142D01*
D10*
X103126000Y-86953285D02*
X102876000Y-86596142D01*
X102697428Y-86953285D02*
X102697428Y-86203285D01*
X102983142Y-86203285D01*
X103054571Y-86239000D01*
X103090285Y-86274714D01*
X103126000Y-86346142D01*
X103126000Y-86453285D01*
X103090285Y-86524714D01*
X103054571Y-86560428D01*
X102983142Y-86596142D01*
X102697428Y-86596142D01*
X103804571Y-86203285D02*
X103447428Y-86203285D01*
X103411714Y-86560428D01*
X103447428Y-86524714D01*
X103518857Y-86489000D01*
X103697428Y-86489000D01*
X103768857Y-86524714D01*
X103804571Y-86560428D01*
X103840285Y-86631857D01*
X103840285Y-86810428D01*
X103804571Y-86881857D01*
X103768857Y-86917571D01*
X103697428Y-86953285D01*
X103518857Y-86953285D01*
X103447428Y-86917571D01*
X103411714Y-86881857D01*
D13*
X107132380Y-81192666D02*
X106656190Y-81526000D01*
X107132380Y-81764095D02*
X106132380Y-81764095D01*
X106132380Y-81383142D01*
X106180000Y-81287904D01*
X106227619Y-81240285D01*
X106322857Y-81192666D01*
X106465714Y-81192666D01*
X106560952Y-81240285D01*
X106608571Y-81287904D01*
X106656190Y-81383142D01*
X106656190Y-81764095D01*
X106465714Y-80335523D02*
X107132380Y-80335523D01*
X106084761Y-80573619D02*
X106799047Y-80811714D01*
X106799047Y-80192666D01*
X104592380Y-81192666D02*
X104116190Y-81526000D01*
X104592380Y-81764095D02*
X103592380Y-81764095D01*
X103592380Y-81383142D01*
X103640000Y-81287904D01*
X103687619Y-81240285D01*
X103782857Y-81192666D01*
X103925714Y-81192666D01*
X104020952Y-81240285D01*
X104068571Y-81287904D01*
X104116190Y-81383142D01*
X104116190Y-81764095D01*
X103592380Y-80859333D02*
X103592380Y-80240285D01*
X103973333Y-80573619D01*
X103973333Y-80430761D01*
X104020952Y-80335523D01*
X104068571Y-80287904D01*
X104163809Y-80240285D01*
X104401904Y-80240285D01*
X104497142Y-80287904D01*
X104544761Y-80335523D01*
X104592380Y-80430761D01*
X104592380Y-80716476D01*
X104544761Y-80811714D01*
X104497142Y-80859333D01*
X99512380Y-81192666D02*
X99036190Y-81526000D01*
X99512380Y-81764095D02*
X98512380Y-81764095D01*
X98512380Y-81383142D01*
X98560000Y-81287904D01*
X98607619Y-81240285D01*
X98702857Y-81192666D01*
X98845714Y-81192666D01*
X98940952Y-81240285D01*
X98988571Y-81287904D01*
X99036190Y-81383142D01*
X99036190Y-81764095D01*
X98607619Y-80811714D02*
X98560000Y-80764095D01*
X98512380Y-80668857D01*
X98512380Y-80430761D01*
X98560000Y-80335523D01*
X98607619Y-80287904D01*
X98702857Y-80240285D01*
X98798095Y-80240285D01*
X98940952Y-80287904D01*
X99512380Y-80859333D01*
X99512380Y-80240285D01*
D14*
X97770190Y-90840666D02*
X98127333Y-90840666D01*
X98198761Y-90864476D01*
X98246380Y-90912095D01*
X98270190Y-90983523D01*
X98270190Y-91031142D01*
X98270190Y-90602571D02*
X97770190Y-90602571D01*
X97770190Y-90412095D01*
X97794000Y-90364476D01*
X97817809Y-90340666D01*
X97865428Y-90316857D01*
X97936857Y-90316857D01*
X97984476Y-90340666D01*
X98008285Y-90364476D01*
X98032095Y-90412095D01*
X98032095Y-90602571D01*
X98270190Y-89840666D02*
X98270190Y-90126380D01*
X98270190Y-89983523D02*
X97770190Y-89983523D01*
X97841619Y-90031142D01*
X97889238Y-90078761D01*
X97913047Y-90126380D01*
D13*
X105996333Y-115641380D02*
X105663000Y-115165190D01*
X105424904Y-115641380D02*
X105424904Y-114641380D01*
X105805857Y-114641380D01*
X105901095Y-114689000D01*
X105948714Y-114736619D01*
X105996333Y-114831857D01*
X105996333Y-114974714D01*
X105948714Y-115069952D01*
X105901095Y-115117571D01*
X105805857Y-115165190D01*
X105424904Y-115165190D01*
X106853476Y-114641380D02*
X106663000Y-114641380D01*
X106567761Y-114689000D01*
X106520142Y-114736619D01*
X106424904Y-114879476D01*
X106377285Y-115069952D01*
X106377285Y-115450904D01*
X106424904Y-115546142D01*
X106472523Y-115593761D01*
X106567761Y-115641380D01*
X106758238Y-115641380D01*
X106853476Y-115593761D01*
X106901095Y-115546142D01*
X106948714Y-115450904D01*
X106948714Y-115212809D01*
X106901095Y-115117571D01*
X106853476Y-115069952D01*
X106758238Y-115022333D01*
X106567761Y-115022333D01*
X106472523Y-115069952D01*
X106424904Y-115117571D01*
X106377285Y-115212809D01*
D10*
X106047000Y-86500857D02*
X106011285Y-86536571D01*
X105904142Y-86572285D01*
X105832714Y-86572285D01*
X105725571Y-86536571D01*
X105654142Y-86465142D01*
X105618428Y-86393714D01*
X105582714Y-86250857D01*
X105582714Y-86143714D01*
X105618428Y-86000857D01*
X105654142Y-85929428D01*
X105725571Y-85858000D01*
X105832714Y-85822285D01*
X105904142Y-85822285D01*
X106011285Y-85858000D01*
X106047000Y-85893714D01*
X106761285Y-86572285D02*
X106332714Y-86572285D01*
X106547000Y-86572285D02*
X106547000Y-85822285D01*
X106475571Y-85929428D01*
X106404142Y-86000857D01*
X106332714Y-86036571D01*
D13*
X102052380Y-81192666D02*
X101576190Y-81526000D01*
X102052380Y-81764095D02*
X101052380Y-81764095D01*
X101052380Y-81383142D01*
X101100000Y-81287904D01*
X101147619Y-81240285D01*
X101242857Y-81192666D01*
X101385714Y-81192666D01*
X101480952Y-81240285D01*
X101528571Y-81287904D01*
X101576190Y-81383142D01*
X101576190Y-81764095D01*
X102052380Y-80240285D02*
X102052380Y-80811714D01*
X102052380Y-80526000D02*
X101052380Y-80526000D01*
X101195238Y-80621238D01*
X101290476Y-80716476D01*
X101338095Y-80811714D01*
M02*
