G04 #@! TF.GenerationSoftware,KiCad,Pcbnew,5.1.9+dfsg1-1*
G04 #@! TF.CreationDate,2021-03-03T15:22:06-06:00*
G04 #@! TF.ProjectId,Nano SwinSIDb,4e616e6f-2053-4776-996e-534944622e6b,rev?*
G04 #@! TF.SameCoordinates,Original*
G04 #@! TF.FileFunction,Paste,Top*
G04 #@! TF.FilePolarity,Positive*
%FSLAX46Y46*%
G04 Gerber Fmt 4.6, Leading zero omitted, Abs format (unit mm)*
G04 Created by KiCad (PCBNEW 5.1.9+dfsg1-1) date 2021-03-03 15:22:06*
%MOMM*%
%LPD*%
G01*
G04 APERTURE LIST*
%ADD10R,0.550000X1.600000*%
%ADD11R,1.600000X0.550000*%
G04 APERTURE END LIST*
G36*
G01*
X101033000Y-113176000D02*
X100533000Y-113176000D01*
G75*
G02*
X100333000Y-112976000I0J200000D01*
G01*
X100333000Y-112576000D01*
G75*
G02*
X100533000Y-112376000I200000J0D01*
G01*
X101033000Y-112376000D01*
G75*
G02*
X101233000Y-112576000I0J-200000D01*
G01*
X101233000Y-112976000D01*
G75*
G02*
X101033000Y-113176000I-200000J0D01*
G01*
G37*
G36*
G01*
X101033000Y-114626000D02*
X100533000Y-114626000D01*
G75*
G02*
X100333000Y-114426000I0J200000D01*
G01*
X100333000Y-114026000D01*
G75*
G02*
X100533000Y-113826000I200000J0D01*
G01*
X101033000Y-113826000D01*
G75*
G02*
X101233000Y-114026000I0J-200000D01*
G01*
X101233000Y-114426000D01*
G75*
G02*
X101033000Y-114626000I-200000J0D01*
G01*
G37*
G36*
G01*
X99183000Y-113176000D02*
X98683000Y-113176000D01*
G75*
G02*
X98483000Y-112976000I0J200000D01*
G01*
X98483000Y-112576000D01*
G75*
G02*
X98683000Y-112376000I200000J0D01*
G01*
X99183000Y-112376000D01*
G75*
G02*
X99383000Y-112576000I0J-200000D01*
G01*
X99383000Y-112976000D01*
G75*
G02*
X99183000Y-113176000I-200000J0D01*
G01*
G37*
G36*
G01*
X99183000Y-114626000D02*
X98683000Y-114626000D01*
G75*
G02*
X98483000Y-114426000I0J200000D01*
G01*
X98483000Y-114026000D01*
G75*
G02*
X98683000Y-113826000I200000J0D01*
G01*
X99183000Y-113826000D01*
G75*
G02*
X99383000Y-114026000I0J-200000D01*
G01*
X99383000Y-114426000D01*
G75*
G02*
X99183000Y-114626000I-200000J0D01*
G01*
G37*
D10*
X105797000Y-108576000D03*
X104997000Y-108576000D03*
X104197000Y-108576000D03*
X103397000Y-108576000D03*
X102597000Y-108576000D03*
X101797000Y-108576000D03*
X100997000Y-108576000D03*
X100197000Y-108576000D03*
D11*
X98747000Y-107126000D03*
X98747000Y-106326000D03*
X98747000Y-105526000D03*
X98747000Y-104726000D03*
X98747000Y-103926000D03*
X98747000Y-103126000D03*
X98747000Y-102326000D03*
X98747000Y-101526000D03*
D10*
X100197000Y-100076000D03*
X100997000Y-100076000D03*
X101797000Y-100076000D03*
X102597000Y-100076000D03*
X103397000Y-100076000D03*
X104197000Y-100076000D03*
X104997000Y-100076000D03*
X105797000Y-100076000D03*
D11*
X107247000Y-101526000D03*
X107247000Y-102326000D03*
X107247000Y-103126000D03*
X107247000Y-103926000D03*
X107247000Y-104726000D03*
X107247000Y-105526000D03*
X107247000Y-106326000D03*
X107247000Y-107126000D03*
G36*
G01*
X103447001Y-115027000D02*
X102546999Y-115027000D01*
G75*
G02*
X102297000Y-114777001I0J249999D01*
G01*
X102297000Y-114076999D01*
G75*
G02*
X102546999Y-113827000I249999J0D01*
G01*
X103447001Y-113827000D01*
G75*
G02*
X103697000Y-114076999I0J-249999D01*
G01*
X103697000Y-114777001D01*
G75*
G02*
X103447001Y-115027000I-249999J0D01*
G01*
G37*
G36*
G01*
X103447001Y-113027000D02*
X102546999Y-113027000D01*
G75*
G02*
X102297000Y-112777001I0J249999D01*
G01*
X102297000Y-112076999D01*
G75*
G02*
X102546999Y-111827000I249999J0D01*
G01*
X103447001Y-111827000D01*
G75*
G02*
X103697000Y-112076999I0J-249999D01*
G01*
X103697000Y-112777001D01*
G75*
G02*
X103447001Y-113027000I-249999J0D01*
G01*
G37*
G36*
G01*
X103701001Y-90738000D02*
X102800999Y-90738000D01*
G75*
G02*
X102551000Y-90488001I0J249999D01*
G01*
X102551000Y-89787999D01*
G75*
G02*
X102800999Y-89538000I249999J0D01*
G01*
X103701001Y-89538000D01*
G75*
G02*
X103951000Y-89787999I0J-249999D01*
G01*
X103951000Y-90488001D01*
G75*
G02*
X103701001Y-90738000I-249999J0D01*
G01*
G37*
G36*
G01*
X103701001Y-88738000D02*
X102800999Y-88738000D01*
G75*
G02*
X102551000Y-88488001I0J249999D01*
G01*
X102551000Y-87787999D01*
G75*
G02*
X102800999Y-87538000I249999J0D01*
G01*
X103701001Y-87538000D01*
G75*
G02*
X103951000Y-87787999I0J-249999D01*
G01*
X103951000Y-88488001D01*
G75*
G02*
X103701001Y-88738000I-249999J0D01*
G01*
G37*
G36*
G01*
X106229999Y-82220000D02*
X107130001Y-82220000D01*
G75*
G02*
X107380000Y-82469999I0J-249999D01*
G01*
X107380000Y-83170001D01*
G75*
G02*
X107130001Y-83420000I-249999J0D01*
G01*
X106229999Y-83420000D01*
G75*
G02*
X105980000Y-83170001I0J249999D01*
G01*
X105980000Y-82469999D01*
G75*
G02*
X106229999Y-82220000I249999J0D01*
G01*
G37*
G36*
G01*
X106229999Y-84220000D02*
X107130001Y-84220000D01*
G75*
G02*
X107380000Y-84469999I0J-249999D01*
G01*
X107380000Y-85170001D01*
G75*
G02*
X107130001Y-85420000I-249999J0D01*
G01*
X106229999Y-85420000D01*
G75*
G02*
X105980000Y-85170001I0J249999D01*
G01*
X105980000Y-84469999D01*
G75*
G02*
X106229999Y-84220000I249999J0D01*
G01*
G37*
G36*
G01*
X104590001Y-83420000D02*
X103689999Y-83420000D01*
G75*
G02*
X103440000Y-83170001I0J249999D01*
G01*
X103440000Y-82469999D01*
G75*
G02*
X103689999Y-82220000I249999J0D01*
G01*
X104590001Y-82220000D01*
G75*
G02*
X104840000Y-82469999I0J-249999D01*
G01*
X104840000Y-83170001D01*
G75*
G02*
X104590001Y-83420000I-249999J0D01*
G01*
G37*
G36*
G01*
X104590001Y-85420000D02*
X103689999Y-85420000D01*
G75*
G02*
X103440000Y-85170001I0J249999D01*
G01*
X103440000Y-84469999D01*
G75*
G02*
X103689999Y-84220000I249999J0D01*
G01*
X104590001Y-84220000D01*
G75*
G02*
X104840000Y-84469999I0J-249999D01*
G01*
X104840000Y-85170001D01*
G75*
G02*
X104590001Y-85420000I-249999J0D01*
G01*
G37*
G36*
G01*
X98609999Y-82204000D02*
X99510001Y-82204000D01*
G75*
G02*
X99760000Y-82453999I0J-249999D01*
G01*
X99760000Y-83154001D01*
G75*
G02*
X99510001Y-83404000I-249999J0D01*
G01*
X98609999Y-83404000D01*
G75*
G02*
X98360000Y-83154001I0J249999D01*
G01*
X98360000Y-82453999D01*
G75*
G02*
X98609999Y-82204000I249999J0D01*
G01*
G37*
G36*
G01*
X98609999Y-84204000D02*
X99510001Y-84204000D01*
G75*
G02*
X99760000Y-84453999I0J-249999D01*
G01*
X99760000Y-85154001D01*
G75*
G02*
X99510001Y-85404000I-249999J0D01*
G01*
X98609999Y-85404000D01*
G75*
G02*
X98360000Y-85154001I0J249999D01*
G01*
X98360000Y-84453999D01*
G75*
G02*
X98609999Y-84204000I249999J0D01*
G01*
G37*
G36*
G01*
X105713000Y-112960999D02*
X105713000Y-113861001D01*
G75*
G02*
X105463001Y-114111000I-249999J0D01*
G01*
X104812999Y-114111000D01*
G75*
G02*
X104563000Y-113861001I0J249999D01*
G01*
X104563000Y-112960999D01*
G75*
G02*
X104812999Y-112711000I249999J0D01*
G01*
X105463001Y-112711000D01*
G75*
G02*
X105713000Y-112960999I0J-249999D01*
G01*
G37*
G36*
G01*
X107763000Y-112960999D02*
X107763000Y-113861001D01*
G75*
G02*
X107513001Y-114111000I-249999J0D01*
G01*
X106862999Y-114111000D01*
G75*
G02*
X106613000Y-113861001I0J249999D01*
G01*
X106613000Y-112960999D01*
G75*
G02*
X106862999Y-112711000I249999J0D01*
G01*
X107513001Y-112711000D01*
G75*
G02*
X107763000Y-112960999I0J-249999D01*
G01*
G37*
G36*
G01*
X105521999Y-90092500D02*
X106822001Y-90092500D01*
G75*
G02*
X107072000Y-90342499I0J-249999D01*
G01*
X107072000Y-91167501D01*
G75*
G02*
X106822001Y-91417500I-249999J0D01*
G01*
X105521999Y-91417500D01*
G75*
G02*
X105272000Y-91167501I0J249999D01*
G01*
X105272000Y-90342499D01*
G75*
G02*
X105521999Y-90092500I249999J0D01*
G01*
G37*
G36*
G01*
X105521999Y-86967500D02*
X106822001Y-86967500D01*
G75*
G02*
X107072000Y-87217499I0J-249999D01*
G01*
X107072000Y-88042501D01*
G75*
G02*
X106822001Y-88292500I-249999J0D01*
G01*
X105521999Y-88292500D01*
G75*
G02*
X105272000Y-88042501I0J249999D01*
G01*
X105272000Y-87217499D01*
G75*
G02*
X105521999Y-86967500I249999J0D01*
G01*
G37*
G36*
G01*
X102050001Y-83420000D02*
X101149999Y-83420000D01*
G75*
G02*
X100900000Y-83170001I0J249999D01*
G01*
X100900000Y-82469999D01*
G75*
G02*
X101149999Y-82220000I249999J0D01*
G01*
X102050001Y-82220000D01*
G75*
G02*
X102300000Y-82469999I0J-249999D01*
G01*
X102300000Y-83170001D01*
G75*
G02*
X102050001Y-83420000I-249999J0D01*
G01*
G37*
G36*
G01*
X102050001Y-85420000D02*
X101149999Y-85420000D01*
G75*
G02*
X100900000Y-85170001I0J249999D01*
G01*
X100900000Y-84469999D01*
G75*
G02*
X101149999Y-84220000I249999J0D01*
G01*
X102050001Y-84220000D01*
G75*
G02*
X102300000Y-84469999I0J-249999D01*
G01*
X102300000Y-85170001D01*
G75*
G02*
X102050001Y-85420000I-249999J0D01*
G01*
G37*
M02*
