M48
INCH,TZ
T1C0.0236
T2C0.0315
T3C0.0394
%
G90
G05
T1
X38700Y-36100
X39600Y-41250
X39600Y-41866
X39750Y-40100
X39850Y-40800
X39950Y-43800
X40200Y-41300
X40500Y-40444
X40650Y-43550
X40950Y-40850
X41300Y-43900
X41500Y-40200
T2
X37100Y-32000
X37100Y-33000
X37100Y-34000
X37100Y-35000
X37100Y-36000
X37100Y-37000
X37100Y-38000
X37100Y-39000
X37100Y-40000
X37100Y-41000
X37100Y-42000
X37100Y-43000
X37100Y-44000
X37100Y-45000
X38000Y-32000
X38000Y-33000
X38000Y-34000
X38000Y-35000
X38000Y-36000
X38000Y-37000
X38000Y-38000
X38000Y-39000
X38000Y-40000
X38000Y-41000
X38000Y-42000
X38000Y-43000
X38000Y-44000
X38000Y-45000
X43100Y-32000
X43100Y-33000
X43100Y-34000
X43100Y-35000
X43100Y-36000
X43100Y-37000
X43100Y-38000
X43100Y-39000
X43100Y-40000
X43100Y-41000
X43100Y-42000
X43100Y-43000
X43100Y-44000
X43100Y-45000
X44000Y-32000
X44000Y-33000
X44000Y-34000
X44000Y-35000
X44000Y-36000
X44000Y-37000
X44000Y-38000
X44000Y-39000
X44000Y-40000
X44000Y-41000
X44000Y-42000
X44000Y-43000
X44000Y-44000
X44000Y-45000
T3
X39500Y-36950
X39500Y-37950
X40500Y-36950
X40500Y-37950
X41500Y-36950
X41500Y-37950
T0
M30
