G04 #@! TF.GenerationSoftware,KiCad,Pcbnew,5.1.9+dfsg1-1*
G04 #@! TF.CreationDate,2021-03-03T15:22:06-06:00*
G04 #@! TF.ProjectId,Nano SwinSIDb,4e616e6f-2053-4776-996e-534944622e6b,rev?*
G04 #@! TF.SameCoordinates,Original*
G04 #@! TF.FileFunction,Soldermask,Top*
G04 #@! TF.FilePolarity,Negative*
%FSLAX46Y46*%
G04 Gerber Fmt 4.6, Leading zero omitted, Abs format (unit mm)*
G04 Created by KiCad (PCBNEW 5.1.9+dfsg1-1) date 2021-03-03 15:22:06*
%MOMM*%
%LPD*%
G01*
G04 APERTURE LIST*
%ADD10O,1.600000X1.600000*%
%ADD11R,1.600000X1.600000*%
%ADD12R,0.550000X1.600000*%
%ADD13R,1.600000X0.550000*%
%ADD14C,0.150000*%
%ADD15O,1.700000X1.700000*%
%ADD16R,1.700000X1.700000*%
G04 APERTURE END LIST*
D10*
X111760000Y-81280000D03*
X96520000Y-114300000D03*
X111760000Y-83820000D03*
X96520000Y-111760000D03*
X111760000Y-86360000D03*
X96520000Y-109220000D03*
X111760000Y-88900000D03*
X96520000Y-106680000D03*
X111760000Y-91440000D03*
X96520000Y-104140000D03*
X111760000Y-93980000D03*
X96520000Y-101600000D03*
X111760000Y-96520000D03*
X96520000Y-99060000D03*
X111760000Y-99060000D03*
X96520000Y-96520000D03*
X111760000Y-101600000D03*
X96520000Y-93980000D03*
X111760000Y-104140000D03*
X96520000Y-91440000D03*
X111760000Y-106680000D03*
X96520000Y-88900000D03*
X111760000Y-109220000D03*
X96520000Y-86360000D03*
X111760000Y-111760000D03*
X96520000Y-83820000D03*
X111760000Y-114300000D03*
D11*
X96520000Y-81280000D03*
D10*
X109474000Y-81280000D03*
X94234000Y-114300000D03*
X109474000Y-83820000D03*
X94234000Y-111760000D03*
X109474000Y-86360000D03*
X94234000Y-109220000D03*
X109474000Y-88900000D03*
X94234000Y-106680000D03*
X109474000Y-91440000D03*
X94234000Y-104140000D03*
X109474000Y-93980000D03*
X94234000Y-101600000D03*
X109474000Y-96520000D03*
X94234000Y-99060000D03*
X109474000Y-99060000D03*
X94234000Y-96520000D03*
X109474000Y-101600000D03*
X94234000Y-93980000D03*
X109474000Y-104140000D03*
X94234000Y-91440000D03*
X109474000Y-106680000D03*
X94234000Y-88900000D03*
X109474000Y-109220000D03*
X94234000Y-86360000D03*
X109474000Y-111760000D03*
X94234000Y-83820000D03*
X109474000Y-114300000D03*
D11*
X94234000Y-81280000D03*
G36*
G01*
X101033000Y-113176000D02*
X100533000Y-113176000D01*
G75*
G02*
X100333000Y-112976000I0J200000D01*
G01*
X100333000Y-112576000D01*
G75*
G02*
X100533000Y-112376000I200000J0D01*
G01*
X101033000Y-112376000D01*
G75*
G02*
X101233000Y-112576000I0J-200000D01*
G01*
X101233000Y-112976000D01*
G75*
G02*
X101033000Y-113176000I-200000J0D01*
G01*
G37*
G36*
G01*
X101033000Y-114626000D02*
X100533000Y-114626000D01*
G75*
G02*
X100333000Y-114426000I0J200000D01*
G01*
X100333000Y-114026000D01*
G75*
G02*
X100533000Y-113826000I200000J0D01*
G01*
X101033000Y-113826000D01*
G75*
G02*
X101233000Y-114026000I0J-200000D01*
G01*
X101233000Y-114426000D01*
G75*
G02*
X101033000Y-114626000I-200000J0D01*
G01*
G37*
G36*
G01*
X99183000Y-113176000D02*
X98683000Y-113176000D01*
G75*
G02*
X98483000Y-112976000I0J200000D01*
G01*
X98483000Y-112576000D01*
G75*
G02*
X98683000Y-112376000I200000J0D01*
G01*
X99183000Y-112376000D01*
G75*
G02*
X99383000Y-112576000I0J-200000D01*
G01*
X99383000Y-112976000D01*
G75*
G02*
X99183000Y-113176000I-200000J0D01*
G01*
G37*
G36*
G01*
X99183000Y-114626000D02*
X98683000Y-114626000D01*
G75*
G02*
X98483000Y-114426000I0J200000D01*
G01*
X98483000Y-114026000D01*
G75*
G02*
X98683000Y-113826000I200000J0D01*
G01*
X99183000Y-113826000D01*
G75*
G02*
X99383000Y-114026000I0J-200000D01*
G01*
X99383000Y-114426000D01*
G75*
G02*
X99183000Y-114626000I-200000J0D01*
G01*
G37*
D12*
X105797000Y-108576000D03*
X104997000Y-108576000D03*
X104197000Y-108576000D03*
X103397000Y-108576000D03*
X102597000Y-108576000D03*
X101797000Y-108576000D03*
X100997000Y-108576000D03*
X100197000Y-108576000D03*
D13*
X98747000Y-107126000D03*
X98747000Y-106326000D03*
X98747000Y-105526000D03*
X98747000Y-104726000D03*
X98747000Y-103926000D03*
X98747000Y-103126000D03*
X98747000Y-102326000D03*
X98747000Y-101526000D03*
D12*
X100197000Y-100076000D03*
X100997000Y-100076000D03*
X101797000Y-100076000D03*
X102597000Y-100076000D03*
X103397000Y-100076000D03*
X104197000Y-100076000D03*
X104997000Y-100076000D03*
X105797000Y-100076000D03*
D13*
X107247000Y-101526000D03*
X107247000Y-102326000D03*
X107247000Y-103126000D03*
X107247000Y-103926000D03*
X107247000Y-104726000D03*
X107247000Y-105526000D03*
X107247000Y-106326000D03*
X107247000Y-107126000D03*
G36*
G01*
X103447001Y-115027000D02*
X102546999Y-115027000D01*
G75*
G02*
X102297000Y-114777001I0J249999D01*
G01*
X102297000Y-114076999D01*
G75*
G02*
X102546999Y-113827000I249999J0D01*
G01*
X103447001Y-113827000D01*
G75*
G02*
X103697000Y-114076999I0J-249999D01*
G01*
X103697000Y-114777001D01*
G75*
G02*
X103447001Y-115027000I-249999J0D01*
G01*
G37*
G36*
G01*
X103447001Y-113027000D02*
X102546999Y-113027000D01*
G75*
G02*
X102297000Y-112777001I0J249999D01*
G01*
X102297000Y-112076999D01*
G75*
G02*
X102546999Y-111827000I249999J0D01*
G01*
X103447001Y-111827000D01*
G75*
G02*
X103697000Y-112076999I0J-249999D01*
G01*
X103697000Y-112777001D01*
G75*
G02*
X103447001Y-113027000I-249999J0D01*
G01*
G37*
D14*
G36*
X100599000Y-87134602D02*
G01*
X100623534Y-87134602D01*
X100672365Y-87139412D01*
X100720490Y-87148984D01*
X100767445Y-87163228D01*
X100812778Y-87182005D01*
X100856051Y-87205136D01*
X100896850Y-87232396D01*
X100934779Y-87263524D01*
X100969476Y-87298221D01*
X101000604Y-87336150D01*
X101027864Y-87376949D01*
X101050995Y-87420222D01*
X101069772Y-87465555D01*
X101084016Y-87512510D01*
X101093588Y-87560635D01*
X101098398Y-87609466D01*
X101098398Y-87634000D01*
X101099000Y-87634000D01*
X101099000Y-88134000D01*
X101098398Y-88134000D01*
X101098398Y-88158534D01*
X101093588Y-88207365D01*
X101084016Y-88255490D01*
X101069772Y-88302445D01*
X101050995Y-88347778D01*
X101027864Y-88391051D01*
X101000604Y-88431850D01*
X100969476Y-88469779D01*
X100934779Y-88504476D01*
X100896850Y-88535604D01*
X100856051Y-88562864D01*
X100812778Y-88585995D01*
X100767445Y-88604772D01*
X100720490Y-88619016D01*
X100672365Y-88628588D01*
X100623534Y-88633398D01*
X100599000Y-88633398D01*
X100599000Y-88634000D01*
X100099000Y-88634000D01*
X100099000Y-87134000D01*
X100599000Y-87134000D01*
X100599000Y-87134602D01*
G37*
G36*
X99799000Y-88634000D02*
G01*
X99299000Y-88634000D01*
X99299000Y-88633398D01*
X99274466Y-88633398D01*
X99225635Y-88628588D01*
X99177510Y-88619016D01*
X99130555Y-88604772D01*
X99085222Y-88585995D01*
X99041949Y-88562864D01*
X99001150Y-88535604D01*
X98963221Y-88504476D01*
X98928524Y-88469779D01*
X98897396Y-88431850D01*
X98870136Y-88391051D01*
X98847005Y-88347778D01*
X98828228Y-88302445D01*
X98813984Y-88255490D01*
X98804412Y-88207365D01*
X98799602Y-88158534D01*
X98799602Y-88134000D01*
X98799000Y-88134000D01*
X98799000Y-87634000D01*
X98799602Y-87634000D01*
X98799602Y-87609466D01*
X98804412Y-87560635D01*
X98813984Y-87512510D01*
X98828228Y-87465555D01*
X98847005Y-87420222D01*
X98870136Y-87376949D01*
X98897396Y-87336150D01*
X98928524Y-87298221D01*
X98963221Y-87263524D01*
X99001150Y-87232396D01*
X99041949Y-87205136D01*
X99085222Y-87182005D01*
X99130555Y-87163228D01*
X99177510Y-87148984D01*
X99225635Y-87139412D01*
X99274466Y-87134602D01*
X99299000Y-87134602D01*
X99299000Y-87134000D01*
X99799000Y-87134000D01*
X99799000Y-88634000D01*
G37*
D15*
X105410000Y-96393000D03*
X105410000Y-93853000D03*
X102870000Y-96393000D03*
X102870000Y-93853000D03*
X100330000Y-96393000D03*
D16*
X100330000Y-93853000D03*
G36*
G01*
X103701001Y-90738000D02*
X102800999Y-90738000D01*
G75*
G02*
X102551000Y-90488001I0J249999D01*
G01*
X102551000Y-89787999D01*
G75*
G02*
X102800999Y-89538000I249999J0D01*
G01*
X103701001Y-89538000D01*
G75*
G02*
X103951000Y-89787999I0J-249999D01*
G01*
X103951000Y-90488001D01*
G75*
G02*
X103701001Y-90738000I-249999J0D01*
G01*
G37*
G36*
G01*
X103701001Y-88738000D02*
X102800999Y-88738000D01*
G75*
G02*
X102551000Y-88488001I0J249999D01*
G01*
X102551000Y-87787999D01*
G75*
G02*
X102800999Y-87538000I249999J0D01*
G01*
X103701001Y-87538000D01*
G75*
G02*
X103951000Y-87787999I0J-249999D01*
G01*
X103951000Y-88488001D01*
G75*
G02*
X103701001Y-88738000I-249999J0D01*
G01*
G37*
G36*
G01*
X106229999Y-82220000D02*
X107130001Y-82220000D01*
G75*
G02*
X107380000Y-82469999I0J-249999D01*
G01*
X107380000Y-83170001D01*
G75*
G02*
X107130001Y-83420000I-249999J0D01*
G01*
X106229999Y-83420000D01*
G75*
G02*
X105980000Y-83170001I0J249999D01*
G01*
X105980000Y-82469999D01*
G75*
G02*
X106229999Y-82220000I249999J0D01*
G01*
G37*
G36*
G01*
X106229999Y-84220000D02*
X107130001Y-84220000D01*
G75*
G02*
X107380000Y-84469999I0J-249999D01*
G01*
X107380000Y-85170001D01*
G75*
G02*
X107130001Y-85420000I-249999J0D01*
G01*
X106229999Y-85420000D01*
G75*
G02*
X105980000Y-85170001I0J249999D01*
G01*
X105980000Y-84469999D01*
G75*
G02*
X106229999Y-84220000I249999J0D01*
G01*
G37*
G36*
G01*
X104590001Y-83420000D02*
X103689999Y-83420000D01*
G75*
G02*
X103440000Y-83170001I0J249999D01*
G01*
X103440000Y-82469999D01*
G75*
G02*
X103689999Y-82220000I249999J0D01*
G01*
X104590001Y-82220000D01*
G75*
G02*
X104840000Y-82469999I0J-249999D01*
G01*
X104840000Y-83170001D01*
G75*
G02*
X104590001Y-83420000I-249999J0D01*
G01*
G37*
G36*
G01*
X104590001Y-85420000D02*
X103689999Y-85420000D01*
G75*
G02*
X103440000Y-85170001I0J249999D01*
G01*
X103440000Y-84469999D01*
G75*
G02*
X103689999Y-84220000I249999J0D01*
G01*
X104590001Y-84220000D01*
G75*
G02*
X104840000Y-84469999I0J-249999D01*
G01*
X104840000Y-85170001D01*
G75*
G02*
X104590001Y-85420000I-249999J0D01*
G01*
G37*
G36*
G01*
X98609999Y-82204000D02*
X99510001Y-82204000D01*
G75*
G02*
X99760000Y-82453999I0J-249999D01*
G01*
X99760000Y-83154001D01*
G75*
G02*
X99510001Y-83404000I-249999J0D01*
G01*
X98609999Y-83404000D01*
G75*
G02*
X98360000Y-83154001I0J249999D01*
G01*
X98360000Y-82453999D01*
G75*
G02*
X98609999Y-82204000I249999J0D01*
G01*
G37*
G36*
G01*
X98609999Y-84204000D02*
X99510001Y-84204000D01*
G75*
G02*
X99760000Y-84453999I0J-249999D01*
G01*
X99760000Y-85154001D01*
G75*
G02*
X99510001Y-85404000I-249999J0D01*
G01*
X98609999Y-85404000D01*
G75*
G02*
X98360000Y-85154001I0J249999D01*
G01*
X98360000Y-84453999D01*
G75*
G02*
X98609999Y-84204000I249999J0D01*
G01*
G37*
D14*
G36*
X99784000Y-91174000D02*
G01*
X99284000Y-91174000D01*
X99284000Y-91173398D01*
X99259466Y-91173398D01*
X99210635Y-91168588D01*
X99162510Y-91159016D01*
X99115555Y-91144772D01*
X99070222Y-91125995D01*
X99026949Y-91102864D01*
X98986150Y-91075604D01*
X98948221Y-91044476D01*
X98913524Y-91009779D01*
X98882396Y-90971850D01*
X98855136Y-90931051D01*
X98832005Y-90887778D01*
X98813228Y-90842445D01*
X98798984Y-90795490D01*
X98789412Y-90747365D01*
X98784602Y-90698534D01*
X98784602Y-90674000D01*
X98784000Y-90674000D01*
X98784000Y-90174000D01*
X98784602Y-90174000D01*
X98784602Y-90149466D01*
X98789412Y-90100635D01*
X98798984Y-90052510D01*
X98813228Y-90005555D01*
X98832005Y-89960222D01*
X98855136Y-89916949D01*
X98882396Y-89876150D01*
X98913524Y-89838221D01*
X98948221Y-89803524D01*
X98986150Y-89772396D01*
X99026949Y-89745136D01*
X99070222Y-89722005D01*
X99115555Y-89703228D01*
X99162510Y-89688984D01*
X99210635Y-89679412D01*
X99259466Y-89674602D01*
X99284000Y-89674602D01*
X99284000Y-89674000D01*
X99784000Y-89674000D01*
X99784000Y-91174000D01*
G37*
G36*
X100584000Y-89674602D02*
G01*
X100608534Y-89674602D01*
X100657365Y-89679412D01*
X100705490Y-89688984D01*
X100752445Y-89703228D01*
X100797778Y-89722005D01*
X100841051Y-89745136D01*
X100881850Y-89772396D01*
X100919779Y-89803524D01*
X100954476Y-89838221D01*
X100985604Y-89876150D01*
X101012864Y-89916949D01*
X101035995Y-89960222D01*
X101054772Y-90005555D01*
X101069016Y-90052510D01*
X101078588Y-90100635D01*
X101083398Y-90149466D01*
X101083398Y-90174000D01*
X101084000Y-90174000D01*
X101084000Y-90674000D01*
X101083398Y-90674000D01*
X101083398Y-90698534D01*
X101078588Y-90747365D01*
X101069016Y-90795490D01*
X101054772Y-90842445D01*
X101035995Y-90887778D01*
X101012864Y-90931051D01*
X100985604Y-90971850D01*
X100954476Y-91009779D01*
X100919779Y-91044476D01*
X100881850Y-91075604D01*
X100841051Y-91102864D01*
X100797778Y-91125995D01*
X100752445Y-91144772D01*
X100705490Y-91159016D01*
X100657365Y-91168588D01*
X100608534Y-91173398D01*
X100584000Y-91173398D01*
X100584000Y-91174000D01*
X100084000Y-91174000D01*
X100084000Y-89674000D01*
X100584000Y-89674000D01*
X100584000Y-89674602D01*
G37*
G36*
G01*
X105713000Y-112960999D02*
X105713000Y-113861001D01*
G75*
G02*
X105463001Y-114111000I-249999J0D01*
G01*
X104812999Y-114111000D01*
G75*
G02*
X104563000Y-113861001I0J249999D01*
G01*
X104563000Y-112960999D01*
G75*
G02*
X104812999Y-112711000I249999J0D01*
G01*
X105463001Y-112711000D01*
G75*
G02*
X105713000Y-112960999I0J-249999D01*
G01*
G37*
G36*
G01*
X107763000Y-112960999D02*
X107763000Y-113861001D01*
G75*
G02*
X107513001Y-114111000I-249999J0D01*
G01*
X106862999Y-114111000D01*
G75*
G02*
X106613000Y-113861001I0J249999D01*
G01*
X106613000Y-112960999D01*
G75*
G02*
X106862999Y-112711000I249999J0D01*
G01*
X107513001Y-112711000D01*
G75*
G02*
X107763000Y-112960999I0J-249999D01*
G01*
G37*
G36*
G01*
X105521999Y-90092500D02*
X106822001Y-90092500D01*
G75*
G02*
X107072000Y-90342499I0J-249999D01*
G01*
X107072000Y-91167501D01*
G75*
G02*
X106822001Y-91417500I-249999J0D01*
G01*
X105521999Y-91417500D01*
G75*
G02*
X105272000Y-91167501I0J249999D01*
G01*
X105272000Y-90342499D01*
G75*
G02*
X105521999Y-90092500I249999J0D01*
G01*
G37*
G36*
G01*
X105521999Y-86967500D02*
X106822001Y-86967500D01*
G75*
G02*
X107072000Y-87217499I0J-249999D01*
G01*
X107072000Y-88042501D01*
G75*
G02*
X106822001Y-88292500I-249999J0D01*
G01*
X105521999Y-88292500D01*
G75*
G02*
X105272000Y-88042501I0J249999D01*
G01*
X105272000Y-87217499D01*
G75*
G02*
X105521999Y-86967500I249999J0D01*
G01*
G37*
G36*
G01*
X102050001Y-83420000D02*
X101149999Y-83420000D01*
G75*
G02*
X100900000Y-83170001I0J249999D01*
G01*
X100900000Y-82469999D01*
G75*
G02*
X101149999Y-82220000I249999J0D01*
G01*
X102050001Y-82220000D01*
G75*
G02*
X102300000Y-82469999I0J-249999D01*
G01*
X102300000Y-83170001D01*
G75*
G02*
X102050001Y-83420000I-249999J0D01*
G01*
G37*
G36*
G01*
X102050001Y-85420000D02*
X101149999Y-85420000D01*
G75*
G02*
X100900000Y-85170001I0J249999D01*
G01*
X100900000Y-84469999D01*
G75*
G02*
X101149999Y-84220000I249999J0D01*
G01*
X102050001Y-84220000D01*
G75*
G02*
X102300000Y-84469999I0J-249999D01*
G01*
X102300000Y-85170001D01*
G75*
G02*
X102050001Y-85420000I-249999J0D01*
G01*
G37*
M02*
