G04 #@! TF.GenerationSoftware,KiCad,Pcbnew,5.1.9+dfsg1-1*
G04 #@! TF.CreationDate,2021-03-03T15:22:06-06:00*
G04 #@! TF.ProjectId,Nano SwinSIDb,4e616e6f-2053-4776-996e-534944622e6b,rev?*
G04 #@! TF.SameCoordinates,Original*
G04 #@! TF.FileFunction,Soldermask,Bot*
G04 #@! TF.FilePolarity,Negative*
%FSLAX46Y46*%
G04 Gerber Fmt 4.6, Leading zero omitted, Abs format (unit mm)*
G04 Created by KiCad (PCBNEW 5.1.9+dfsg1-1) date 2021-03-03 15:22:06*
%MOMM*%
%LPD*%
G01*
G04 APERTURE LIST*
%ADD10O,1.600000X1.600000*%
%ADD11R,1.600000X1.600000*%
%ADD12O,1.700000X1.700000*%
%ADD13R,1.700000X1.700000*%
G04 APERTURE END LIST*
D10*
X111760000Y-81280000D03*
X96520000Y-114300000D03*
X111760000Y-83820000D03*
X96520000Y-111760000D03*
X111760000Y-86360000D03*
X96520000Y-109220000D03*
X111760000Y-88900000D03*
X96520000Y-106680000D03*
X111760000Y-91440000D03*
X96520000Y-104140000D03*
X111760000Y-93980000D03*
X96520000Y-101600000D03*
X111760000Y-96520000D03*
X96520000Y-99060000D03*
X111760000Y-99060000D03*
X96520000Y-96520000D03*
X111760000Y-101600000D03*
X96520000Y-93980000D03*
X111760000Y-104140000D03*
X96520000Y-91440000D03*
X111760000Y-106680000D03*
X96520000Y-88900000D03*
X111760000Y-109220000D03*
X96520000Y-86360000D03*
X111760000Y-111760000D03*
X96520000Y-83820000D03*
X111760000Y-114300000D03*
D11*
X96520000Y-81280000D03*
D10*
X109474000Y-81280000D03*
X94234000Y-114300000D03*
X109474000Y-83820000D03*
X94234000Y-111760000D03*
X109474000Y-86360000D03*
X94234000Y-109220000D03*
X109474000Y-88900000D03*
X94234000Y-106680000D03*
X109474000Y-91440000D03*
X94234000Y-104140000D03*
X109474000Y-93980000D03*
X94234000Y-101600000D03*
X109474000Y-96520000D03*
X94234000Y-99060000D03*
X109474000Y-99060000D03*
X94234000Y-96520000D03*
X109474000Y-101600000D03*
X94234000Y-93980000D03*
X109474000Y-104140000D03*
X94234000Y-91440000D03*
X109474000Y-106680000D03*
X94234000Y-88900000D03*
X109474000Y-109220000D03*
X94234000Y-86360000D03*
X109474000Y-111760000D03*
X94234000Y-83820000D03*
X109474000Y-114300000D03*
D11*
X94234000Y-81280000D03*
D12*
X105410000Y-96393000D03*
X105410000Y-93853000D03*
X102870000Y-96393000D03*
X102870000Y-93853000D03*
X100330000Y-96393000D03*
D13*
X100330000Y-93853000D03*
M02*
