G04 #@! TF.GenerationSoftware,KiCad,Pcbnew,5.1.9+dfsg1-1*
G04 #@! TF.CreationDate,2021-03-03T15:22:06-06:00*
G04 #@! TF.ProjectId,Nano SwinSIDb,4e616e6f-2053-4776-996e-534944622e6b,rev?*
G04 #@! TF.SameCoordinates,Original*
G04 #@! TF.FileFunction,Legend,Bot*
G04 #@! TF.FilePolarity,Positive*
%FSLAX46Y46*%
G04 Gerber Fmt 4.6, Leading zero omitted, Abs format (unit mm)*
G04 Created by KiCad (PCBNEW 5.1.9+dfsg1-1) date 2021-03-03 15:22:06*
%MOMM*%
%LPD*%
G01*
G04 APERTURE LIST*
%ADD10C,0.100000*%
%ADD11C,0.120000*%
%ADD12C,0.062500*%
%ADD13C,0.150000*%
%ADD14C,0.200000*%
%ADD15C,0.010000*%
G04 APERTURE END LIST*
D10*
G36*
X107442000Y-92456000D02*
G01*
X102997000Y-92456000D01*
X107442000Y-91948000D01*
X107442000Y-92456000D01*
G37*
X107442000Y-92456000D02*
X102997000Y-92456000D01*
X107442000Y-91948000D01*
X107442000Y-92456000D01*
G36*
X98552000Y-87884000D02*
G01*
X98552000Y-86868000D01*
X107442000Y-86868000D01*
X98552000Y-87884000D01*
G37*
X98552000Y-87884000D02*
X98552000Y-86868000D01*
X107442000Y-86868000D01*
X98552000Y-87884000D01*
G36*
X107442000Y-102235000D02*
G01*
X98552000Y-102235000D01*
X107442000Y-101219000D01*
X107442000Y-102235000D01*
G37*
X107442000Y-102235000D02*
X98552000Y-102235000D01*
X107442000Y-101219000D01*
X107442000Y-102235000D01*
G36*
X107442000Y-100711000D02*
G01*
X98552000Y-101727000D01*
X98552000Y-100711000D01*
X107442000Y-99695000D01*
X107442000Y-100711000D01*
G37*
X107442000Y-100711000D02*
X98552000Y-101727000D01*
X98552000Y-100711000D01*
X107442000Y-99695000D01*
X107442000Y-100711000D01*
G36*
X107442000Y-99187000D02*
G01*
X98552000Y-100203000D01*
X98552000Y-99187000D01*
X107442000Y-98171000D01*
X107442000Y-99187000D01*
G37*
X107442000Y-99187000D02*
X98552000Y-100203000D01*
X98552000Y-99187000D01*
X107442000Y-98171000D01*
X107442000Y-99187000D01*
G36*
X98552000Y-98679000D02*
G01*
X98552000Y-97663000D01*
X107442000Y-97663000D01*
X98552000Y-98679000D01*
G37*
X98552000Y-98679000D02*
X98552000Y-97663000D01*
X107442000Y-97663000D01*
X98552000Y-98679000D01*
G36*
X107442000Y-91440000D02*
G01*
X98552000Y-92456000D01*
X98552000Y-91440000D01*
X107442000Y-90424000D01*
X107442000Y-91440000D01*
G37*
X107442000Y-91440000D02*
X98552000Y-92456000D01*
X98552000Y-91440000D01*
X107442000Y-90424000D01*
X107442000Y-91440000D01*
G36*
X107442000Y-89916000D02*
G01*
X98552000Y-90932000D01*
X98552000Y-89916000D01*
X107442000Y-88900000D01*
X107442000Y-89916000D01*
G37*
X107442000Y-89916000D02*
X98552000Y-90932000D01*
X98552000Y-89916000D01*
X107442000Y-88900000D01*
X107442000Y-89916000D01*
G36*
X107442000Y-88392000D02*
G01*
X98552000Y-89408000D01*
X98552000Y-88392000D01*
X107442000Y-87376000D01*
X107442000Y-88392000D01*
G37*
X107442000Y-88392000D02*
X98552000Y-89408000D01*
X98552000Y-88392000D01*
X107442000Y-87376000D01*
X107442000Y-88392000D01*
D11*
X103759000Y-109093000D02*
X103505000Y-109347000D01*
X101727000Y-109093000D02*
X101473000Y-109347000D01*
X98679000Y-109093000D02*
X98425000Y-109347000D01*
X106045000Y-109347000D02*
X105791000Y-109093000D01*
X107569000Y-109347000D02*
X107315000Y-109093000D01*
X100203000Y-109093000D02*
X99949000Y-109347000D01*
X99441000Y-109347000D02*
X99187000Y-109093000D01*
X100711000Y-109093000D02*
X100457000Y-109347000D01*
X100457000Y-109347000D02*
X100203000Y-109093000D01*
X101219000Y-109093000D02*
X100965000Y-109347000D01*
X101981000Y-109347000D02*
X101727000Y-109093000D01*
X100965000Y-109347000D02*
X100711000Y-109093000D01*
X98933000Y-109347000D02*
X98679000Y-109093000D01*
X99949000Y-109347000D02*
X99695000Y-109093000D01*
X102235000Y-109093000D02*
X101981000Y-109347000D01*
X101473000Y-109347000D02*
X101219000Y-109093000D01*
X99187000Y-109093000D02*
X98933000Y-109347000D01*
X104521000Y-109347000D02*
X104267000Y-109093000D01*
X104267000Y-109093000D02*
X104013000Y-109347000D01*
X106807000Y-109093000D02*
X106553000Y-109347000D01*
X102489000Y-109347000D02*
X102235000Y-109093000D01*
X105791000Y-109093000D02*
X105537000Y-109347000D01*
X105283000Y-109093000D02*
X105029000Y-109347000D01*
X107061000Y-109347000D02*
X106807000Y-109093000D01*
X102743000Y-109093000D02*
X102489000Y-109347000D01*
X105537000Y-109347000D02*
X105283000Y-109093000D01*
X99695000Y-109093000D02*
X99441000Y-109347000D01*
X105029000Y-109347000D02*
X104775000Y-109093000D01*
X106299000Y-109093000D02*
X106045000Y-109347000D01*
X102997000Y-109347000D02*
X102743000Y-109093000D01*
X103251000Y-109093000D02*
X102997000Y-109347000D01*
X106553000Y-109347000D02*
X106299000Y-109093000D01*
X104013000Y-109347000D02*
X103759000Y-109093000D01*
X107315000Y-109093000D02*
X107061000Y-109347000D01*
X104775000Y-109093000D02*
X104521000Y-109347000D01*
X103505000Y-109347000D02*
X103251000Y-109093000D01*
X98679000Y-111633000D02*
X98425000Y-111887000D01*
X98933000Y-111887000D02*
X98679000Y-111633000D01*
X99187000Y-111633000D02*
X98933000Y-111887000D01*
X99441000Y-111887000D02*
X99187000Y-111633000D01*
X99695000Y-111633000D02*
X99441000Y-111887000D01*
X99949000Y-111887000D02*
X99695000Y-111633000D01*
X100203000Y-111633000D02*
X99949000Y-111887000D01*
X100457000Y-111887000D02*
X100203000Y-111633000D01*
X100711000Y-111633000D02*
X100457000Y-111887000D01*
X100965000Y-111887000D02*
X100711000Y-111633000D01*
X101219000Y-111633000D02*
X100965000Y-111887000D01*
X101473000Y-111887000D02*
X101219000Y-111633000D01*
X101727000Y-111633000D02*
X101473000Y-111887000D01*
X101981000Y-111887000D02*
X101727000Y-111633000D01*
X102235000Y-111633000D02*
X101981000Y-111887000D01*
X102489000Y-111887000D02*
X102235000Y-111633000D01*
X102743000Y-111633000D02*
X102489000Y-111887000D01*
X102997000Y-111887000D02*
X102743000Y-111633000D01*
X103251000Y-111633000D02*
X102997000Y-111887000D01*
X103505000Y-111887000D02*
X103251000Y-111633000D01*
X103759000Y-111633000D02*
X103505000Y-111887000D01*
X104013000Y-111887000D02*
X103759000Y-111633000D01*
X104267000Y-111633000D02*
X104013000Y-111887000D01*
X104521000Y-111887000D02*
X104267000Y-111633000D01*
X104775000Y-111633000D02*
X104521000Y-111887000D01*
X105029000Y-111887000D02*
X104775000Y-111633000D01*
X105283000Y-111633000D02*
X105029000Y-111887000D01*
X105537000Y-111887000D02*
X105283000Y-111633000D01*
X105791000Y-111633000D02*
X105537000Y-111887000D01*
X106045000Y-111887000D02*
X105791000Y-111633000D01*
X106299000Y-111633000D02*
X106045000Y-111887000D01*
X106553000Y-111887000D02*
X106299000Y-111633000D01*
X106807000Y-111633000D02*
X106553000Y-111887000D01*
X107061000Y-111887000D02*
X106807000Y-111633000D01*
X107315000Y-111633000D02*
X107061000Y-111887000D01*
X107569000Y-111887000D02*
X107315000Y-111633000D01*
D10*
X106620000Y-110267380D02*
X106548571Y-110291190D01*
X106429523Y-110291190D01*
X106381904Y-110267380D01*
X106358095Y-110243571D01*
X106334285Y-110195952D01*
X106334285Y-110148333D01*
X106358095Y-110100714D01*
X106381904Y-110076904D01*
X106429523Y-110053095D01*
X106524761Y-110029285D01*
X106572380Y-110005476D01*
X106596190Y-109981666D01*
X106620000Y-109934047D01*
X106620000Y-109886428D01*
X106596190Y-109838809D01*
X106572380Y-109815000D01*
X106524761Y-109791190D01*
X106405714Y-109791190D01*
X106334285Y-109815000D01*
X106167619Y-109957857D02*
X106072380Y-110291190D01*
X105977142Y-110053095D01*
X105881904Y-110291190D01*
X105786666Y-109957857D01*
X105596190Y-110291190D02*
X105596190Y-109957857D01*
X105596190Y-109791190D02*
X105620000Y-109815000D01*
X105596190Y-109838809D01*
X105572380Y-109815000D01*
X105596190Y-109791190D01*
X105596190Y-109838809D01*
X105358095Y-109957857D02*
X105358095Y-110291190D01*
X105358095Y-110005476D02*
X105334285Y-109981666D01*
X105286666Y-109957857D01*
X105215238Y-109957857D01*
X105167619Y-109981666D01*
X105143809Y-110029285D01*
X105143809Y-110291190D01*
X104929523Y-110267380D02*
X104858095Y-110291190D01*
X104739047Y-110291190D01*
X104691428Y-110267380D01*
X104667619Y-110243571D01*
X104643809Y-110195952D01*
X104643809Y-110148333D01*
X104667619Y-110100714D01*
X104691428Y-110076904D01*
X104739047Y-110053095D01*
X104834285Y-110029285D01*
X104881904Y-110005476D01*
X104905714Y-109981666D01*
X104929523Y-109934047D01*
X104929523Y-109886428D01*
X104905714Y-109838809D01*
X104881904Y-109815000D01*
X104834285Y-109791190D01*
X104715238Y-109791190D01*
X104643809Y-109815000D01*
X104429523Y-110291190D02*
X104429523Y-109791190D01*
X104191428Y-110291190D02*
X104191428Y-109791190D01*
X104072380Y-109791190D01*
X104000952Y-109815000D01*
X103953333Y-109862619D01*
X103929523Y-109910238D01*
X103905714Y-110005476D01*
X103905714Y-110076904D01*
X103929523Y-110172142D01*
X103953333Y-110219761D01*
X104000952Y-110267380D01*
X104072380Y-110291190D01*
X104191428Y-110291190D01*
X103310476Y-110291190D02*
X103310476Y-109791190D01*
X103310476Y-109981666D02*
X103262857Y-109957857D01*
X103167619Y-109957857D01*
X103120000Y-109981666D01*
X103096190Y-110005476D01*
X103072380Y-110053095D01*
X103072380Y-110195952D01*
X103096190Y-110243571D01*
X103120000Y-110267380D01*
X103167619Y-110291190D01*
X103262857Y-110291190D01*
X103310476Y-110267380D01*
X102905714Y-109957857D02*
X102786666Y-110291190D01*
X102667619Y-109957857D02*
X102786666Y-110291190D01*
X102834285Y-110410238D01*
X102858095Y-110434047D01*
X102905714Y-110457857D01*
X102120000Y-110267380D02*
X102048571Y-110291190D01*
X101929523Y-110291190D01*
X101881904Y-110267380D01*
X101858095Y-110243571D01*
X101834285Y-110195952D01*
X101834285Y-110148333D01*
X101858095Y-110100714D01*
X101881904Y-110076904D01*
X101929523Y-110053095D01*
X102024761Y-110029285D01*
X102072380Y-110005476D01*
X102096190Y-109981666D01*
X102120000Y-109934047D01*
X102120000Y-109886428D01*
X102096190Y-109838809D01*
X102072380Y-109815000D01*
X102024761Y-109791190D01*
X101905714Y-109791190D01*
X101834285Y-109815000D01*
X101667619Y-109957857D02*
X101572380Y-110291190D01*
X101477142Y-110053095D01*
X101381904Y-110291190D01*
X101286666Y-109957857D01*
X101096190Y-110291190D02*
X101096190Y-109957857D01*
X101096190Y-109791190D02*
X101120000Y-109815000D01*
X101096190Y-109838809D01*
X101072380Y-109815000D01*
X101096190Y-109791190D01*
X101096190Y-109838809D01*
X100858095Y-109957857D02*
X100858095Y-110291190D01*
X100858095Y-110005476D02*
X100834285Y-109981666D01*
X100786666Y-109957857D01*
X100715238Y-109957857D01*
X100667619Y-109981666D01*
X100643809Y-110029285D01*
X100643809Y-110291190D01*
X100405714Y-110291190D02*
X100405714Y-109791190D01*
X100358095Y-110100714D02*
X100215238Y-110291190D01*
X100215238Y-109957857D02*
X100405714Y-110148333D01*
X99810476Y-110267380D02*
X99858095Y-110291190D01*
X99953333Y-110291190D01*
X100000952Y-110267380D01*
X100024761Y-110219761D01*
X100024761Y-110029285D01*
X100000952Y-109981666D01*
X99953333Y-109957857D01*
X99858095Y-109957857D01*
X99810476Y-109981666D01*
X99786666Y-110029285D01*
X99786666Y-110076904D01*
X100024761Y-110124523D01*
X99500952Y-110291190D02*
X99548571Y-110267380D01*
X99572380Y-110219761D01*
X99572380Y-109791190D01*
X99334285Y-110267380D02*
X99286666Y-110291190D01*
X99191428Y-110291190D01*
X99143809Y-110267380D01*
X99120000Y-110219761D01*
X99120000Y-110195952D01*
X99143809Y-110148333D01*
X99191428Y-110124523D01*
X99262857Y-110124523D01*
X99310476Y-110100714D01*
X99334285Y-110053095D01*
X99334285Y-110029285D01*
X99310476Y-109981666D01*
X99262857Y-109957857D01*
X99191428Y-109957857D01*
X99143809Y-109981666D01*
X107250952Y-110807857D02*
X107250952Y-111141190D01*
X107250952Y-110855476D02*
X107227142Y-110831666D01*
X107179523Y-110807857D01*
X107108095Y-110807857D01*
X107060476Y-110831666D01*
X107036666Y-110879285D01*
X107036666Y-111141190D01*
X106584285Y-111141190D02*
X106584285Y-110879285D01*
X106608095Y-110831666D01*
X106655714Y-110807857D01*
X106750952Y-110807857D01*
X106798571Y-110831666D01*
X106584285Y-111117380D02*
X106631904Y-111141190D01*
X106750952Y-111141190D01*
X106798571Y-111117380D01*
X106822380Y-111069761D01*
X106822380Y-111022142D01*
X106798571Y-110974523D01*
X106750952Y-110950714D01*
X106631904Y-110950714D01*
X106584285Y-110926904D01*
X106346190Y-110807857D02*
X106346190Y-111141190D01*
X106346190Y-110855476D02*
X106322380Y-110831666D01*
X106274761Y-110807857D01*
X106203333Y-110807857D01*
X106155714Y-110831666D01*
X106131904Y-110879285D01*
X106131904Y-111141190D01*
X105822380Y-111141190D02*
X105870000Y-111117380D01*
X105893809Y-111093571D01*
X105917619Y-111045952D01*
X105917619Y-110903095D01*
X105893809Y-110855476D01*
X105870000Y-110831666D01*
X105822380Y-110807857D01*
X105750952Y-110807857D01*
X105703333Y-110831666D01*
X105679523Y-110855476D01*
X105655714Y-110903095D01*
X105655714Y-111045952D01*
X105679523Y-111093571D01*
X105703333Y-111117380D01*
X105750952Y-111141190D01*
X105822380Y-111141190D01*
X105084285Y-111117380D02*
X105012857Y-111141190D01*
X104893809Y-111141190D01*
X104846190Y-111117380D01*
X104822380Y-111093571D01*
X104798571Y-111045952D01*
X104798571Y-110998333D01*
X104822380Y-110950714D01*
X104846190Y-110926904D01*
X104893809Y-110903095D01*
X104989047Y-110879285D01*
X105036666Y-110855476D01*
X105060476Y-110831666D01*
X105084285Y-110784047D01*
X105084285Y-110736428D01*
X105060476Y-110688809D01*
X105036666Y-110665000D01*
X104989047Y-110641190D01*
X104870000Y-110641190D01*
X104798571Y-110665000D01*
X104631904Y-110807857D02*
X104536666Y-111141190D01*
X104441428Y-110903095D01*
X104346190Y-111141190D01*
X104250952Y-110807857D01*
X104060476Y-111141190D02*
X104060476Y-110807857D01*
X104060476Y-110641190D02*
X104084285Y-110665000D01*
X104060476Y-110688809D01*
X104036666Y-110665000D01*
X104060476Y-110641190D01*
X104060476Y-110688809D01*
X103822380Y-110807857D02*
X103822380Y-111141190D01*
X103822380Y-110855476D02*
X103798571Y-110831666D01*
X103750952Y-110807857D01*
X103679523Y-110807857D01*
X103631904Y-110831666D01*
X103608095Y-110879285D01*
X103608095Y-111141190D01*
X103393809Y-111117380D02*
X103322380Y-111141190D01*
X103203333Y-111141190D01*
X103155714Y-111117380D01*
X103131904Y-111093571D01*
X103108095Y-111045952D01*
X103108095Y-110998333D01*
X103131904Y-110950714D01*
X103155714Y-110926904D01*
X103203333Y-110903095D01*
X103298571Y-110879285D01*
X103346190Y-110855476D01*
X103370000Y-110831666D01*
X103393809Y-110784047D01*
X103393809Y-110736428D01*
X103370000Y-110688809D01*
X103346190Y-110665000D01*
X103298571Y-110641190D01*
X103179523Y-110641190D01*
X103108095Y-110665000D01*
X102893809Y-111141190D02*
X102893809Y-110641190D01*
X102655714Y-111141190D02*
X102655714Y-110641190D01*
X102536666Y-110641190D01*
X102465238Y-110665000D01*
X102417619Y-110712619D01*
X102393809Y-110760238D01*
X102370000Y-110855476D01*
X102370000Y-110926904D01*
X102393809Y-111022142D01*
X102417619Y-111069761D01*
X102465238Y-111117380D01*
X102536666Y-111141190D01*
X102655714Y-111141190D01*
X101774761Y-111141190D02*
X101774761Y-110641190D01*
X101774761Y-110831666D02*
X101727142Y-110807857D01*
X101631904Y-110807857D01*
X101584285Y-110831666D01*
X101560476Y-110855476D01*
X101536666Y-110903095D01*
X101536666Y-111045952D01*
X101560476Y-111093571D01*
X101584285Y-111117380D01*
X101631904Y-111141190D01*
X101727142Y-111141190D01*
X101774761Y-111117380D01*
X101370000Y-110807857D02*
X101250952Y-111141190D01*
X101131904Y-110807857D02*
X101250952Y-111141190D01*
X101298571Y-111260238D01*
X101322380Y-111284047D01*
X101370000Y-111307857D01*
X100608095Y-111141190D02*
X100346190Y-110807857D01*
X100608095Y-110807857D02*
X100346190Y-111141190D01*
X99893809Y-111141190D02*
X100179523Y-111141190D01*
X100036666Y-111141190D02*
X100036666Y-110641190D01*
X100084285Y-110712619D01*
X100131904Y-110760238D01*
X100179523Y-110784047D01*
X99441428Y-110641190D02*
X99679523Y-110641190D01*
X99703333Y-110879285D01*
X99679523Y-110855476D01*
X99631904Y-110831666D01*
X99512857Y-110831666D01*
X99465238Y-110855476D01*
X99441428Y-110879285D01*
X99417619Y-110926904D01*
X99417619Y-111045952D01*
X99441428Y-111093571D01*
X99465238Y-111117380D01*
X99512857Y-111141190D01*
X99631904Y-111141190D01*
X99679523Y-111117380D01*
X99703333Y-111093571D01*
X98989047Y-110807857D02*
X98989047Y-111141190D01*
X99108095Y-110617380D02*
X99227142Y-110974523D01*
X98917619Y-110974523D01*
X98465238Y-111141190D02*
X98750952Y-111141190D01*
X98608095Y-111141190D02*
X98608095Y-110641190D01*
X98655714Y-110712619D01*
X98703333Y-110760238D01*
X98750952Y-110784047D01*
D11*
X98425000Y-113157000D02*
X98425000Y-116078000D01*
X107569000Y-113157000D02*
X98425000Y-113157000D01*
X107569000Y-116078000D02*
X107569000Y-113157000D01*
X98425000Y-116078000D02*
X107569000Y-116078000D01*
D12*
X105473190Y-112404440D02*
X105437476Y-112416345D01*
X105377952Y-112416345D01*
X105354142Y-112404440D01*
X105342238Y-112392535D01*
X105330333Y-112368726D01*
X105330333Y-112344916D01*
X105342238Y-112321107D01*
X105354142Y-112309202D01*
X105377952Y-112297297D01*
X105425571Y-112285392D01*
X105449380Y-112273488D01*
X105461285Y-112261583D01*
X105473190Y-112237773D01*
X105473190Y-112213964D01*
X105461285Y-112190154D01*
X105449380Y-112178250D01*
X105425571Y-112166345D01*
X105366047Y-112166345D01*
X105330333Y-112178250D01*
X105187476Y-112416345D02*
X105211285Y-112404440D01*
X105223190Y-112392535D01*
X105235095Y-112368726D01*
X105235095Y-112297297D01*
X105223190Y-112273488D01*
X105211285Y-112261583D01*
X105187476Y-112249678D01*
X105151761Y-112249678D01*
X105127952Y-112261583D01*
X105116047Y-112273488D01*
X105104142Y-112297297D01*
X105104142Y-112368726D01*
X105116047Y-112392535D01*
X105127952Y-112404440D01*
X105151761Y-112416345D01*
X105187476Y-112416345D01*
X105032714Y-112249678D02*
X104937476Y-112249678D01*
X104997000Y-112416345D02*
X104997000Y-112202059D01*
X104985095Y-112178250D01*
X104961285Y-112166345D01*
X104937476Y-112166345D01*
X104889857Y-112249678D02*
X104794619Y-112249678D01*
X104854142Y-112166345D02*
X104854142Y-112380630D01*
X104842238Y-112404440D01*
X104818428Y-112416345D01*
X104794619Y-112416345D01*
X104735095Y-112249678D02*
X104687476Y-112416345D01*
X104639857Y-112297297D01*
X104592238Y-112416345D01*
X104544619Y-112249678D01*
X104342238Y-112416345D02*
X104342238Y-112285392D01*
X104354142Y-112261583D01*
X104377952Y-112249678D01*
X104425571Y-112249678D01*
X104449380Y-112261583D01*
X104342238Y-112404440D02*
X104366047Y-112416345D01*
X104425571Y-112416345D01*
X104449380Y-112404440D01*
X104461285Y-112380630D01*
X104461285Y-112356821D01*
X104449380Y-112333011D01*
X104425571Y-112321107D01*
X104366047Y-112321107D01*
X104342238Y-112309202D01*
X104223190Y-112416345D02*
X104223190Y-112249678D01*
X104223190Y-112297297D02*
X104211285Y-112273488D01*
X104199380Y-112261583D01*
X104175571Y-112249678D01*
X104151761Y-112249678D01*
X103973190Y-112404440D02*
X103997000Y-112416345D01*
X104044619Y-112416345D01*
X104068428Y-112404440D01*
X104080333Y-112380630D01*
X104080333Y-112285392D01*
X104068428Y-112261583D01*
X104044619Y-112249678D01*
X103997000Y-112249678D01*
X103973190Y-112261583D01*
X103961285Y-112285392D01*
X103961285Y-112309202D01*
X104080333Y-112333011D01*
X103461285Y-112416345D02*
X103473190Y-112416345D01*
X103497000Y-112404440D01*
X103532714Y-112368726D01*
X103592238Y-112297297D01*
X103616047Y-112261583D01*
X103627952Y-112225869D01*
X103627952Y-112202059D01*
X103616047Y-112178250D01*
X103592238Y-112166345D01*
X103580333Y-112166345D01*
X103556523Y-112178250D01*
X103544619Y-112202059D01*
X103544619Y-112213964D01*
X103556523Y-112237773D01*
X103568428Y-112249678D01*
X103639857Y-112297297D01*
X103651761Y-112309202D01*
X103663666Y-112333011D01*
X103663666Y-112368726D01*
X103651761Y-112392535D01*
X103639857Y-112404440D01*
X103616047Y-112416345D01*
X103580333Y-112416345D01*
X103556523Y-112404440D01*
X103544619Y-112392535D01*
X103508904Y-112344916D01*
X103497000Y-112309202D01*
X103497000Y-112285392D01*
X103163666Y-112416345D02*
X103163666Y-112166345D01*
X103163666Y-112285392D02*
X103020809Y-112285392D01*
X103020809Y-112416345D02*
X103020809Y-112166345D01*
X102794619Y-112416345D02*
X102794619Y-112285392D01*
X102806523Y-112261583D01*
X102830333Y-112249678D01*
X102877952Y-112249678D01*
X102901761Y-112261583D01*
X102794619Y-112404440D02*
X102818428Y-112416345D01*
X102877952Y-112416345D01*
X102901761Y-112404440D01*
X102913666Y-112380630D01*
X102913666Y-112356821D01*
X102901761Y-112333011D01*
X102877952Y-112321107D01*
X102818428Y-112321107D01*
X102794619Y-112309202D01*
X102675571Y-112416345D02*
X102675571Y-112249678D01*
X102675571Y-112297297D02*
X102663666Y-112273488D01*
X102651761Y-112261583D01*
X102627952Y-112249678D01*
X102604142Y-112249678D01*
X102413666Y-112416345D02*
X102413666Y-112166345D01*
X102413666Y-112404440D02*
X102437476Y-112416345D01*
X102485095Y-112416345D01*
X102508904Y-112404440D01*
X102520809Y-112392535D01*
X102532714Y-112368726D01*
X102532714Y-112297297D01*
X102520809Y-112273488D01*
X102508904Y-112261583D01*
X102485095Y-112249678D01*
X102437476Y-112249678D01*
X102413666Y-112261583D01*
X102318428Y-112249678D02*
X102270809Y-112416345D01*
X102223190Y-112297297D01*
X102175571Y-112416345D01*
X102127952Y-112249678D01*
X101925571Y-112416345D02*
X101925571Y-112285392D01*
X101937476Y-112261583D01*
X101961285Y-112249678D01*
X102008904Y-112249678D01*
X102032714Y-112261583D01*
X101925571Y-112404440D02*
X101949380Y-112416345D01*
X102008904Y-112416345D01*
X102032714Y-112404440D01*
X102044619Y-112380630D01*
X102044619Y-112356821D01*
X102032714Y-112333011D01*
X102008904Y-112321107D01*
X101949380Y-112321107D01*
X101925571Y-112309202D01*
X101806523Y-112416345D02*
X101806523Y-112249678D01*
X101806523Y-112297297D02*
X101794619Y-112273488D01*
X101782714Y-112261583D01*
X101758904Y-112249678D01*
X101735095Y-112249678D01*
X101556523Y-112404440D02*
X101580333Y-112416345D01*
X101627952Y-112416345D01*
X101651761Y-112404440D01*
X101663666Y-112380630D01*
X101663666Y-112285392D01*
X101651761Y-112261583D01*
X101627952Y-112249678D01*
X101580333Y-112249678D01*
X101556523Y-112261583D01*
X101544619Y-112285392D01*
X101544619Y-112309202D01*
X101663666Y-112333011D01*
X101247000Y-112416345D02*
X101247000Y-112166345D01*
X101127952Y-112249678D02*
X101127952Y-112416345D01*
X101127952Y-112273488D02*
X101116047Y-112261583D01*
X101092238Y-112249678D01*
X101056523Y-112249678D01*
X101032714Y-112261583D01*
X101020809Y-112285392D01*
X101020809Y-112416345D01*
X100937476Y-112249678D02*
X100842238Y-112249678D01*
X100901761Y-112416345D02*
X100901761Y-112202059D01*
X100889857Y-112178250D01*
X100866047Y-112166345D01*
X100842238Y-112166345D01*
X100723190Y-112416345D02*
X100747000Y-112404440D01*
X100758904Y-112392535D01*
X100770809Y-112368726D01*
X100770809Y-112297297D01*
X100758904Y-112273488D01*
X100747000Y-112261583D01*
X100723190Y-112249678D01*
X100687476Y-112249678D01*
X100663666Y-112261583D01*
X100651761Y-112273488D01*
X100639857Y-112297297D01*
X100639857Y-112368726D01*
X100651761Y-112392535D01*
X100663666Y-112404440D01*
X100687476Y-112416345D01*
X100723190Y-112416345D01*
X100532714Y-112392535D02*
X100520809Y-112404440D01*
X100532714Y-112416345D01*
X100544619Y-112404440D01*
X100532714Y-112392535D01*
X100532714Y-112416345D01*
X100532714Y-112261583D02*
X100520809Y-112273488D01*
X100532714Y-112285392D01*
X100544619Y-112273488D01*
X100532714Y-112261583D01*
X100532714Y-112285392D01*
X106949380Y-112853845D02*
X106949380Y-112603845D01*
X106949380Y-112841940D02*
X106973190Y-112853845D01*
X107020809Y-112853845D01*
X107044619Y-112841940D01*
X107056523Y-112830035D01*
X107068428Y-112806226D01*
X107068428Y-112734797D01*
X107056523Y-112710988D01*
X107044619Y-112699083D01*
X107020809Y-112687178D01*
X106973190Y-112687178D01*
X106949380Y-112699083D01*
X106723190Y-112841940D02*
X106747000Y-112853845D01*
X106794619Y-112853845D01*
X106818428Y-112841940D01*
X106830333Y-112830035D01*
X106842238Y-112806226D01*
X106842238Y-112734797D01*
X106830333Y-112710988D01*
X106818428Y-112699083D01*
X106794619Y-112687178D01*
X106747000Y-112687178D01*
X106723190Y-112699083D01*
X106508904Y-112853845D02*
X106508904Y-112603845D01*
X106508904Y-112841940D02*
X106532714Y-112853845D01*
X106580333Y-112853845D01*
X106604142Y-112841940D01*
X106616047Y-112830035D01*
X106627952Y-112806226D01*
X106627952Y-112734797D01*
X106616047Y-112710988D01*
X106604142Y-112699083D01*
X106580333Y-112687178D01*
X106532714Y-112687178D01*
X106508904Y-112699083D01*
X106282714Y-112853845D02*
X106282714Y-112722892D01*
X106294619Y-112699083D01*
X106318428Y-112687178D01*
X106366047Y-112687178D01*
X106389857Y-112699083D01*
X106282714Y-112841940D02*
X106306523Y-112853845D01*
X106366047Y-112853845D01*
X106389857Y-112841940D01*
X106401761Y-112818130D01*
X106401761Y-112794321D01*
X106389857Y-112770511D01*
X106366047Y-112758607D01*
X106306523Y-112758607D01*
X106282714Y-112746702D01*
X106127952Y-112853845D02*
X106151761Y-112841940D01*
X106163666Y-112818130D01*
X106163666Y-112603845D01*
X106032714Y-112853845D02*
X106032714Y-112687178D01*
X106032714Y-112734797D02*
X106020809Y-112710988D01*
X106008904Y-112699083D01*
X105985095Y-112687178D01*
X105961285Y-112687178D01*
X105901761Y-112687178D02*
X105842238Y-112853845D01*
X105782714Y-112687178D02*
X105842238Y-112853845D01*
X105866047Y-112913369D01*
X105877952Y-112925273D01*
X105901761Y-112937178D01*
X105687476Y-112853845D02*
X105687476Y-112687178D01*
X105687476Y-112710988D02*
X105675571Y-112699083D01*
X105651761Y-112687178D01*
X105616047Y-112687178D01*
X105592238Y-112699083D01*
X105580333Y-112722892D01*
X105580333Y-112853845D01*
X105580333Y-112722892D02*
X105568428Y-112699083D01*
X105544619Y-112687178D01*
X105508904Y-112687178D01*
X105485095Y-112699083D01*
X105473190Y-112722892D01*
X105473190Y-112853845D01*
X105354142Y-112687178D02*
X105354142Y-112937178D01*
X105354142Y-112699083D02*
X105330333Y-112687178D01*
X105282714Y-112687178D01*
X105258904Y-112699083D01*
X105247000Y-112710988D01*
X105235095Y-112734797D01*
X105235095Y-112806226D01*
X105247000Y-112830035D01*
X105258904Y-112841940D01*
X105282714Y-112853845D01*
X105330333Y-112853845D01*
X105354142Y-112841940D01*
X105092238Y-112853845D02*
X105116047Y-112841940D01*
X105127952Y-112818130D01*
X105127952Y-112603845D01*
X104901761Y-112841940D02*
X104925571Y-112853845D01*
X104973190Y-112853845D01*
X104997000Y-112841940D01*
X105008904Y-112818130D01*
X105008904Y-112722892D01*
X104997000Y-112699083D01*
X104973190Y-112687178D01*
X104925571Y-112687178D01*
X104901761Y-112699083D01*
X104889857Y-112722892D01*
X104889857Y-112746702D01*
X105008904Y-112770511D01*
X104782714Y-112830035D02*
X104770809Y-112841940D01*
X104782714Y-112853845D01*
X104794619Y-112841940D01*
X104782714Y-112830035D01*
X104782714Y-112853845D01*
X104556523Y-112841940D02*
X104580333Y-112853845D01*
X104627952Y-112853845D01*
X104651761Y-112841940D01*
X104663666Y-112830035D01*
X104675571Y-112806226D01*
X104675571Y-112734797D01*
X104663666Y-112710988D01*
X104651761Y-112699083D01*
X104627952Y-112687178D01*
X104580333Y-112687178D01*
X104556523Y-112699083D01*
X104413666Y-112853845D02*
X104437476Y-112841940D01*
X104449380Y-112830035D01*
X104461285Y-112806226D01*
X104461285Y-112734797D01*
X104449380Y-112710988D01*
X104437476Y-112699083D01*
X104413666Y-112687178D01*
X104377952Y-112687178D01*
X104354142Y-112699083D01*
X104342238Y-112710988D01*
X104330333Y-112734797D01*
X104330333Y-112806226D01*
X104342238Y-112830035D01*
X104354142Y-112841940D01*
X104377952Y-112853845D01*
X104413666Y-112853845D01*
X104223190Y-112853845D02*
X104223190Y-112687178D01*
X104223190Y-112710988D02*
X104211285Y-112699083D01*
X104187476Y-112687178D01*
X104151761Y-112687178D01*
X104127952Y-112699083D01*
X104116047Y-112722892D01*
X104116047Y-112853845D01*
X104116047Y-112722892D02*
X104104142Y-112699083D01*
X104080333Y-112687178D01*
X104044619Y-112687178D01*
X104020809Y-112699083D01*
X104008904Y-112722892D01*
X104008904Y-112853845D01*
X103711285Y-112591940D02*
X103925571Y-112913369D01*
X103627952Y-112853845D02*
X103627952Y-112603845D01*
X103485095Y-112853845D01*
X103485095Y-112603845D01*
X103258904Y-112853845D02*
X103258904Y-112722892D01*
X103270809Y-112699083D01*
X103294619Y-112687178D01*
X103342238Y-112687178D01*
X103366047Y-112699083D01*
X103258904Y-112841940D02*
X103282714Y-112853845D01*
X103342238Y-112853845D01*
X103366047Y-112841940D01*
X103377952Y-112818130D01*
X103377952Y-112794321D01*
X103366047Y-112770511D01*
X103342238Y-112758607D01*
X103282714Y-112758607D01*
X103258904Y-112746702D01*
X103139857Y-112687178D02*
X103139857Y-112853845D01*
X103139857Y-112710988D02*
X103127952Y-112699083D01*
X103104142Y-112687178D01*
X103068428Y-112687178D01*
X103044619Y-112699083D01*
X103032714Y-112722892D01*
X103032714Y-112853845D01*
X102877952Y-112853845D02*
X102901761Y-112841940D01*
X102913666Y-112830035D01*
X102925571Y-112806226D01*
X102925571Y-112734797D01*
X102913666Y-112710988D01*
X102901761Y-112699083D01*
X102877952Y-112687178D01*
X102842238Y-112687178D01*
X102818428Y-112699083D01*
X102806523Y-112710988D01*
X102794619Y-112734797D01*
X102794619Y-112806226D01*
X102806523Y-112830035D01*
X102818428Y-112841940D01*
X102842238Y-112853845D01*
X102877952Y-112853845D01*
X102699380Y-112841940D02*
X102663666Y-112853845D01*
X102604142Y-112853845D01*
X102580333Y-112841940D01*
X102568428Y-112830035D01*
X102556523Y-112806226D01*
X102556523Y-112782416D01*
X102568428Y-112758607D01*
X102580333Y-112746702D01*
X102604142Y-112734797D01*
X102651761Y-112722892D01*
X102675571Y-112710988D01*
X102687476Y-112699083D01*
X102699380Y-112675273D01*
X102699380Y-112651464D01*
X102687476Y-112627654D01*
X102675571Y-112615750D01*
X102651761Y-112603845D01*
X102592238Y-112603845D01*
X102556523Y-112615750D01*
X102473190Y-112687178D02*
X102425571Y-112853845D01*
X102377952Y-112734797D01*
X102330333Y-112853845D01*
X102282714Y-112687178D01*
X102187476Y-112853845D02*
X102187476Y-112687178D01*
X102187476Y-112603845D02*
X102199380Y-112615750D01*
X102187476Y-112627654D01*
X102175571Y-112615750D01*
X102187476Y-112603845D01*
X102187476Y-112627654D01*
X102068428Y-112687178D02*
X102068428Y-112853845D01*
X102068428Y-112710988D02*
X102056523Y-112699083D01*
X102032714Y-112687178D01*
X101997000Y-112687178D01*
X101973190Y-112699083D01*
X101961285Y-112722892D01*
X101961285Y-112853845D01*
X101854142Y-112841940D02*
X101818428Y-112853845D01*
X101758904Y-112853845D01*
X101735095Y-112841940D01*
X101723190Y-112830035D01*
X101711285Y-112806226D01*
X101711285Y-112782416D01*
X101723190Y-112758607D01*
X101735095Y-112746702D01*
X101758904Y-112734797D01*
X101806523Y-112722892D01*
X101830333Y-112710988D01*
X101842238Y-112699083D01*
X101854142Y-112675273D01*
X101854142Y-112651464D01*
X101842238Y-112627654D01*
X101830333Y-112615750D01*
X101806523Y-112603845D01*
X101747000Y-112603845D01*
X101711285Y-112615750D01*
X101604142Y-112853845D02*
X101604142Y-112603845D01*
X101485095Y-112853845D02*
X101485095Y-112603845D01*
X101425571Y-112603845D01*
X101389857Y-112615750D01*
X101366047Y-112639559D01*
X101354142Y-112663369D01*
X101342238Y-112710988D01*
X101342238Y-112746702D01*
X101354142Y-112794321D01*
X101366047Y-112818130D01*
X101389857Y-112841940D01*
X101425571Y-112853845D01*
X101485095Y-112853845D01*
X101235095Y-112853845D02*
X101235095Y-112603845D01*
X101235095Y-112699083D02*
X101211285Y-112687178D01*
X101163666Y-112687178D01*
X101139857Y-112699083D01*
X101127952Y-112710988D01*
X101116047Y-112734797D01*
X101116047Y-112806226D01*
X101127952Y-112830035D01*
X101139857Y-112841940D01*
X101163666Y-112853845D01*
X101211285Y-112853845D01*
X101235095Y-112841940D01*
X101008904Y-112758607D02*
X100818428Y-112758607D01*
X100699380Y-112853845D02*
X100699380Y-112603845D01*
X100604142Y-112603845D01*
X100580333Y-112615750D01*
X100568428Y-112627654D01*
X100556523Y-112651464D01*
X100556523Y-112687178D01*
X100568428Y-112710988D01*
X100580333Y-112722892D01*
X100604142Y-112734797D01*
X100699380Y-112734797D01*
X100449380Y-112853845D02*
X100449380Y-112687178D01*
X100449380Y-112603845D02*
X100461285Y-112615750D01*
X100449380Y-112627654D01*
X100437476Y-112615750D01*
X100449380Y-112603845D01*
X100449380Y-112627654D01*
X100223190Y-112687178D02*
X100223190Y-112889559D01*
X100235095Y-112913369D01*
X100247000Y-112925273D01*
X100270809Y-112937178D01*
X100306523Y-112937178D01*
X100330333Y-112925273D01*
X100223190Y-112841940D02*
X100247000Y-112853845D01*
X100294619Y-112853845D01*
X100318428Y-112841940D01*
X100330333Y-112830035D01*
X100342238Y-112806226D01*
X100342238Y-112734797D01*
X100330333Y-112710988D01*
X100318428Y-112699083D01*
X100294619Y-112687178D01*
X100247000Y-112687178D01*
X100223190Y-112699083D01*
X99997000Y-112687178D02*
X99997000Y-112889559D01*
X100008904Y-112913369D01*
X100020809Y-112925273D01*
X100044619Y-112937178D01*
X100080333Y-112937178D01*
X100104142Y-112925273D01*
X99997000Y-112841940D02*
X100020809Y-112853845D01*
X100068428Y-112853845D01*
X100092238Y-112841940D01*
X100104142Y-112830035D01*
X100116047Y-112806226D01*
X100116047Y-112734797D01*
X100104142Y-112710988D01*
X100092238Y-112699083D01*
X100068428Y-112687178D01*
X100020809Y-112687178D01*
X99997000Y-112699083D01*
X99901761Y-112687178D02*
X99842238Y-112853845D01*
X99782714Y-112687178D02*
X99842238Y-112853845D01*
X99866047Y-112913369D01*
X99877952Y-112925273D01*
X99901761Y-112937178D01*
X99687476Y-112853845D02*
X99687476Y-112603845D01*
X99687476Y-112699083D02*
X99663666Y-112687178D01*
X99616047Y-112687178D01*
X99592238Y-112699083D01*
X99580333Y-112710988D01*
X99568428Y-112734797D01*
X99568428Y-112806226D01*
X99580333Y-112830035D01*
X99592238Y-112841940D01*
X99616047Y-112853845D01*
X99663666Y-112853845D01*
X99687476Y-112841940D01*
X99354142Y-112853845D02*
X99354142Y-112722892D01*
X99366047Y-112699083D01*
X99389857Y-112687178D01*
X99437476Y-112687178D01*
X99461285Y-112699083D01*
X99354142Y-112841940D02*
X99377952Y-112853845D01*
X99437476Y-112853845D01*
X99461285Y-112841940D01*
X99473190Y-112818130D01*
X99473190Y-112794321D01*
X99461285Y-112770511D01*
X99437476Y-112758607D01*
X99377952Y-112758607D01*
X99354142Y-112746702D01*
X99127952Y-112841940D02*
X99151761Y-112853845D01*
X99199380Y-112853845D01*
X99223190Y-112841940D01*
X99235095Y-112830035D01*
X99247000Y-112806226D01*
X99247000Y-112734797D01*
X99235095Y-112710988D01*
X99223190Y-112699083D01*
X99199380Y-112687178D01*
X99151761Y-112687178D01*
X99127952Y-112699083D01*
X99020809Y-112853845D02*
X99020809Y-112603845D01*
X98997000Y-112758607D02*
X98925571Y-112853845D01*
X98925571Y-112687178D02*
X99020809Y-112782416D01*
D10*
X104770809Y-113882571D02*
X104794619Y-113906380D01*
X104866047Y-113930190D01*
X104913666Y-113930190D01*
X104985095Y-113906380D01*
X105032714Y-113858761D01*
X105056523Y-113811142D01*
X105080333Y-113715904D01*
X105080333Y-113644476D01*
X105056523Y-113549238D01*
X105032714Y-113501619D01*
X104985095Y-113454000D01*
X104913666Y-113430190D01*
X104866047Y-113430190D01*
X104794619Y-113454000D01*
X104770809Y-113477809D01*
X104556523Y-113930190D02*
X104556523Y-113596857D01*
X104556523Y-113692095D02*
X104532714Y-113644476D01*
X104508904Y-113620666D01*
X104461285Y-113596857D01*
X104413666Y-113596857D01*
X104056523Y-113906380D02*
X104104142Y-113930190D01*
X104199380Y-113930190D01*
X104247000Y-113906380D01*
X104270809Y-113858761D01*
X104270809Y-113668285D01*
X104247000Y-113620666D01*
X104199380Y-113596857D01*
X104104142Y-113596857D01*
X104056523Y-113620666D01*
X104032714Y-113668285D01*
X104032714Y-113715904D01*
X104270809Y-113763523D01*
X103604142Y-113930190D02*
X103604142Y-113668285D01*
X103627952Y-113620666D01*
X103675571Y-113596857D01*
X103770809Y-113596857D01*
X103818428Y-113620666D01*
X103604142Y-113906380D02*
X103651761Y-113930190D01*
X103770809Y-113930190D01*
X103818428Y-113906380D01*
X103842238Y-113858761D01*
X103842238Y-113811142D01*
X103818428Y-113763523D01*
X103770809Y-113739714D01*
X103651761Y-113739714D01*
X103604142Y-113715904D01*
X103437476Y-113596857D02*
X103247000Y-113596857D01*
X103366047Y-113430190D02*
X103366047Y-113858761D01*
X103342238Y-113906380D01*
X103294619Y-113930190D01*
X103247000Y-113930190D01*
X102889857Y-113906380D02*
X102937476Y-113930190D01*
X103032714Y-113930190D01*
X103080333Y-113906380D01*
X103104142Y-113858761D01*
X103104142Y-113668285D01*
X103080333Y-113620666D01*
X103032714Y-113596857D01*
X102937476Y-113596857D01*
X102889857Y-113620666D01*
X102866047Y-113668285D01*
X102866047Y-113715904D01*
X103104142Y-113763523D01*
X102437476Y-113930190D02*
X102437476Y-113430190D01*
X102437476Y-113906380D02*
X102485095Y-113930190D01*
X102580333Y-113930190D01*
X102627952Y-113906380D01*
X102651761Y-113882571D01*
X102675571Y-113834952D01*
X102675571Y-113692095D01*
X102651761Y-113644476D01*
X102627952Y-113620666D01*
X102580333Y-113596857D01*
X102485095Y-113596857D01*
X102437476Y-113620666D01*
X101651761Y-113668285D02*
X101580333Y-113692095D01*
X101556523Y-113715904D01*
X101532714Y-113763523D01*
X101532714Y-113834952D01*
X101556523Y-113882571D01*
X101580333Y-113906380D01*
X101627952Y-113930190D01*
X101818428Y-113930190D01*
X101818428Y-113430190D01*
X101651761Y-113430190D01*
X101604142Y-113454000D01*
X101580333Y-113477809D01*
X101556523Y-113525428D01*
X101556523Y-113573047D01*
X101580333Y-113620666D01*
X101604142Y-113644476D01*
X101651761Y-113668285D01*
X101818428Y-113668285D01*
X101366047Y-113596857D02*
X101247000Y-113930190D01*
X101127952Y-113596857D02*
X101247000Y-113930190D01*
X101294619Y-114049238D01*
X101318428Y-114073047D01*
X101366047Y-114096857D01*
X100937476Y-113882571D02*
X100913666Y-113906380D01*
X100937476Y-113930190D01*
X100961285Y-113906380D01*
X100937476Y-113882571D01*
X100937476Y-113930190D01*
X100937476Y-113620666D02*
X100913666Y-113644476D01*
X100937476Y-113668285D01*
X100961285Y-113644476D01*
X100937476Y-113620666D01*
X100937476Y-113668285D01*
X106663666Y-114780190D02*
X106663666Y-114280190D01*
X106544619Y-114280190D01*
X106473190Y-114304000D01*
X106425571Y-114351619D01*
X106401761Y-114399238D01*
X106377952Y-114494476D01*
X106377952Y-114565904D01*
X106401761Y-114661142D01*
X106425571Y-114708761D01*
X106473190Y-114756380D01*
X106544619Y-114780190D01*
X106663666Y-114780190D01*
X105497000Y-114732571D02*
X105520809Y-114756380D01*
X105592238Y-114780190D01*
X105639857Y-114780190D01*
X105711285Y-114756380D01*
X105758904Y-114708761D01*
X105782714Y-114661142D01*
X105806523Y-114565904D01*
X105806523Y-114494476D01*
X105782714Y-114399238D01*
X105758904Y-114351619D01*
X105711285Y-114304000D01*
X105639857Y-114280190D01*
X105592238Y-114280190D01*
X105520809Y-114304000D01*
X105497000Y-114327809D01*
X105211285Y-114780190D02*
X105258904Y-114756380D01*
X105282714Y-114732571D01*
X105306523Y-114684952D01*
X105306523Y-114542095D01*
X105282714Y-114494476D01*
X105258904Y-114470666D01*
X105211285Y-114446857D01*
X105139857Y-114446857D01*
X105092238Y-114470666D01*
X105068428Y-114494476D01*
X105044619Y-114542095D01*
X105044619Y-114684952D01*
X105068428Y-114732571D01*
X105092238Y-114756380D01*
X105139857Y-114780190D01*
X105211285Y-114780190D01*
X104758904Y-114780190D02*
X104806523Y-114756380D01*
X104830333Y-114732571D01*
X104854142Y-114684952D01*
X104854142Y-114542095D01*
X104830333Y-114494476D01*
X104806523Y-114470666D01*
X104758904Y-114446857D01*
X104687476Y-114446857D01*
X104639857Y-114470666D01*
X104616047Y-114494476D01*
X104592238Y-114542095D01*
X104592238Y-114684952D01*
X104616047Y-114732571D01*
X104639857Y-114756380D01*
X104687476Y-114780190D01*
X104758904Y-114780190D01*
X104377952Y-114446857D02*
X104377952Y-114946857D01*
X104377952Y-114470666D02*
X104330333Y-114446857D01*
X104235095Y-114446857D01*
X104187476Y-114470666D01*
X104163666Y-114494476D01*
X104139857Y-114542095D01*
X104139857Y-114684952D01*
X104163666Y-114732571D01*
X104187476Y-114756380D01*
X104235095Y-114780190D01*
X104330333Y-114780190D01*
X104377952Y-114756380D01*
X103735095Y-114756380D02*
X103782714Y-114780190D01*
X103877952Y-114780190D01*
X103925571Y-114756380D01*
X103949380Y-114708761D01*
X103949380Y-114518285D01*
X103925571Y-114470666D01*
X103877952Y-114446857D01*
X103782714Y-114446857D01*
X103735095Y-114470666D01*
X103711285Y-114518285D01*
X103711285Y-114565904D01*
X103949380Y-114613523D01*
X103497000Y-114780190D02*
X103497000Y-114446857D01*
X103497000Y-114542095D02*
X103473190Y-114494476D01*
X103449380Y-114470666D01*
X103401761Y-114446857D01*
X103354142Y-114446857D01*
X102806523Y-114780190D02*
X102806523Y-114280190D01*
X102687476Y-114280190D01*
X102616047Y-114304000D01*
X102568428Y-114351619D01*
X102544619Y-114399238D01*
X102520809Y-114494476D01*
X102520809Y-114565904D01*
X102544619Y-114661142D01*
X102568428Y-114708761D01*
X102616047Y-114756380D01*
X102687476Y-114780190D01*
X102806523Y-114780190D01*
X102092238Y-114780190D02*
X102092238Y-114518285D01*
X102116047Y-114470666D01*
X102163666Y-114446857D01*
X102258904Y-114446857D01*
X102306523Y-114470666D01*
X102092238Y-114756380D02*
X102139857Y-114780190D01*
X102258904Y-114780190D01*
X102306523Y-114756380D01*
X102330333Y-114708761D01*
X102330333Y-114661142D01*
X102306523Y-114613523D01*
X102258904Y-114589714D01*
X102139857Y-114589714D01*
X102092238Y-114565904D01*
X101782714Y-114780190D02*
X101830333Y-114756380D01*
X101854142Y-114708761D01*
X101854142Y-114280190D01*
X101592238Y-114780190D02*
X101592238Y-114446857D01*
X101592238Y-114542095D02*
X101568428Y-114494476D01*
X101544619Y-114470666D01*
X101497000Y-114446857D01*
X101449380Y-114446857D01*
X101330333Y-114446857D02*
X101211285Y-114780190D01*
X101092238Y-114446857D02*
X101211285Y-114780190D01*
X101258904Y-114899238D01*
X101282714Y-114923047D01*
X101330333Y-114946857D01*
X100901761Y-114780190D02*
X100901761Y-114446857D01*
X100901761Y-114494476D02*
X100877952Y-114470666D01*
X100830333Y-114446857D01*
X100758904Y-114446857D01*
X100711285Y-114470666D01*
X100687476Y-114518285D01*
X100687476Y-114780190D01*
X100687476Y-114518285D02*
X100663666Y-114470666D01*
X100616047Y-114446857D01*
X100544619Y-114446857D01*
X100497000Y-114470666D01*
X100473190Y-114518285D01*
X100473190Y-114780190D01*
X100235095Y-114446857D02*
X100235095Y-114946857D01*
X100235095Y-114470666D02*
X100187476Y-114446857D01*
X100092238Y-114446857D01*
X100044619Y-114470666D01*
X100020809Y-114494476D01*
X99997000Y-114542095D01*
X99997000Y-114684952D01*
X100020809Y-114732571D01*
X100044619Y-114756380D01*
X100092238Y-114780190D01*
X100187476Y-114780190D01*
X100235095Y-114756380D01*
X99711285Y-114780190D02*
X99758904Y-114756380D01*
X99782714Y-114708761D01*
X99782714Y-114280190D01*
X99330333Y-114756380D02*
X99377952Y-114780190D01*
X99473190Y-114780190D01*
X99520809Y-114756380D01*
X99544619Y-114708761D01*
X99544619Y-114518285D01*
X99520809Y-114470666D01*
X99473190Y-114446857D01*
X99377952Y-114446857D01*
X99330333Y-114470666D01*
X99306523Y-114518285D01*
X99306523Y-114565904D01*
X99544619Y-114613523D01*
X107211285Y-115177809D02*
X107187476Y-115154000D01*
X107139857Y-115130190D01*
X107020809Y-115130190D01*
X106973190Y-115154000D01*
X106949380Y-115177809D01*
X106925571Y-115225428D01*
X106925571Y-115273047D01*
X106949380Y-115344476D01*
X107235095Y-115630190D01*
X106925571Y-115630190D01*
X106616047Y-115130190D02*
X106568428Y-115130190D01*
X106520809Y-115154000D01*
X106497000Y-115177809D01*
X106473190Y-115225428D01*
X106449380Y-115320666D01*
X106449380Y-115439714D01*
X106473190Y-115534952D01*
X106497000Y-115582571D01*
X106520809Y-115606380D01*
X106568428Y-115630190D01*
X106616047Y-115630190D01*
X106663666Y-115606380D01*
X106687476Y-115582571D01*
X106711285Y-115534952D01*
X106735095Y-115439714D01*
X106735095Y-115320666D01*
X106711285Y-115225428D01*
X106687476Y-115177809D01*
X106663666Y-115154000D01*
X106616047Y-115130190D01*
X106258904Y-115177809D02*
X106235095Y-115154000D01*
X106187476Y-115130190D01*
X106068428Y-115130190D01*
X106020809Y-115154000D01*
X105997000Y-115177809D01*
X105973190Y-115225428D01*
X105973190Y-115273047D01*
X105997000Y-115344476D01*
X106282714Y-115630190D01*
X105973190Y-115630190D01*
X105497000Y-115630190D02*
X105782714Y-115630190D01*
X105639857Y-115630190D02*
X105639857Y-115130190D01*
X105687476Y-115201619D01*
X105735095Y-115249238D01*
X105782714Y-115273047D01*
X104687476Y-115630190D02*
X104687476Y-115130190D01*
X104687476Y-115606380D02*
X104735095Y-115630190D01*
X104830333Y-115630190D01*
X104877952Y-115606380D01*
X104901761Y-115582571D01*
X104925571Y-115534952D01*
X104925571Y-115392095D01*
X104901761Y-115344476D01*
X104877952Y-115320666D01*
X104830333Y-115296857D01*
X104735095Y-115296857D01*
X104687476Y-115320666D01*
X104235095Y-115606380D02*
X104282714Y-115630190D01*
X104377952Y-115630190D01*
X104425571Y-115606380D01*
X104449380Y-115582571D01*
X104473190Y-115534952D01*
X104473190Y-115392095D01*
X104449380Y-115344476D01*
X104425571Y-115320666D01*
X104377952Y-115296857D01*
X104282714Y-115296857D01*
X104235095Y-115320666D01*
X103806523Y-115630190D02*
X103806523Y-115130190D01*
X103806523Y-115606380D02*
X103854142Y-115630190D01*
X103949380Y-115630190D01*
X103997000Y-115606380D01*
X104020809Y-115582571D01*
X104044619Y-115534952D01*
X104044619Y-115392095D01*
X104020809Y-115344476D01*
X103997000Y-115320666D01*
X103949380Y-115296857D01*
X103854142Y-115296857D01*
X103806523Y-115320666D01*
X103354142Y-115630190D02*
X103354142Y-115368285D01*
X103377952Y-115320666D01*
X103425571Y-115296857D01*
X103520809Y-115296857D01*
X103568428Y-115320666D01*
X103354142Y-115606380D02*
X103401761Y-115630190D01*
X103520809Y-115630190D01*
X103568428Y-115606380D01*
X103592238Y-115558761D01*
X103592238Y-115511142D01*
X103568428Y-115463523D01*
X103520809Y-115439714D01*
X103401761Y-115439714D01*
X103354142Y-115415904D01*
X103044619Y-115630190D02*
X103092238Y-115606380D01*
X103116047Y-115558761D01*
X103116047Y-115130190D01*
X102854142Y-115630190D02*
X102854142Y-115296857D01*
X102854142Y-115392095D02*
X102830333Y-115344476D01*
X102806523Y-115320666D01*
X102758904Y-115296857D01*
X102711285Y-115296857D01*
X102592238Y-115296857D02*
X102473190Y-115630190D01*
X102354142Y-115296857D02*
X102473190Y-115630190D01*
X102520809Y-115749238D01*
X102544619Y-115773047D01*
X102592238Y-115796857D01*
X102163666Y-115630190D02*
X102163666Y-115296857D01*
X102163666Y-115344476D02*
X102139857Y-115320666D01*
X102092238Y-115296857D01*
X102020809Y-115296857D01*
X101973190Y-115320666D01*
X101949380Y-115368285D01*
X101949380Y-115630190D01*
X101949380Y-115368285D02*
X101925571Y-115320666D01*
X101877952Y-115296857D01*
X101806523Y-115296857D01*
X101758904Y-115320666D01*
X101735095Y-115368285D01*
X101735095Y-115630190D01*
X101497000Y-115296857D02*
X101497000Y-115796857D01*
X101497000Y-115320666D02*
X101449380Y-115296857D01*
X101354142Y-115296857D01*
X101306523Y-115320666D01*
X101282714Y-115344476D01*
X101258904Y-115392095D01*
X101258904Y-115534952D01*
X101282714Y-115582571D01*
X101306523Y-115606380D01*
X101354142Y-115630190D01*
X101449380Y-115630190D01*
X101497000Y-115606380D01*
X100973190Y-115630190D02*
X101020809Y-115606380D01*
X101044619Y-115558761D01*
X101044619Y-115130190D01*
X100592238Y-115606380D02*
X100639857Y-115630190D01*
X100735095Y-115630190D01*
X100782714Y-115606380D01*
X100806523Y-115558761D01*
X100806523Y-115368285D01*
X100782714Y-115320666D01*
X100735095Y-115296857D01*
X100639857Y-115296857D01*
X100592238Y-115320666D01*
X100568428Y-115368285D01*
X100568428Y-115415904D01*
X100806523Y-115463523D01*
X100354142Y-115582571D02*
X100330333Y-115606380D01*
X100354142Y-115630190D01*
X100377952Y-115606380D01*
X100354142Y-115582571D01*
X100354142Y-115630190D01*
X99901761Y-115606380D02*
X99949380Y-115630190D01*
X100044619Y-115630190D01*
X100092238Y-115606380D01*
X100116047Y-115582571D01*
X100139857Y-115534952D01*
X100139857Y-115392095D01*
X100116047Y-115344476D01*
X100092238Y-115320666D01*
X100044619Y-115296857D01*
X99949380Y-115296857D01*
X99901761Y-115320666D01*
X99616047Y-115630190D02*
X99663666Y-115606380D01*
X99687476Y-115582571D01*
X99711285Y-115534952D01*
X99711285Y-115392095D01*
X99687476Y-115344476D01*
X99663666Y-115320666D01*
X99616047Y-115296857D01*
X99544619Y-115296857D01*
X99497000Y-115320666D01*
X99473190Y-115344476D01*
X99449380Y-115392095D01*
X99449380Y-115534952D01*
X99473190Y-115582571D01*
X99497000Y-115606380D01*
X99544619Y-115630190D01*
X99616047Y-115630190D01*
X99235095Y-115630190D02*
X99235095Y-115296857D01*
X99235095Y-115344476D02*
X99211285Y-115320666D01*
X99163666Y-115296857D01*
X99092238Y-115296857D01*
X99044619Y-115320666D01*
X99020809Y-115368285D01*
X99020809Y-115630190D01*
X99020809Y-115368285D02*
X98997000Y-115320666D01*
X98949380Y-115296857D01*
X98877952Y-115296857D01*
X98830333Y-115320666D01*
X98806523Y-115368285D01*
X98806523Y-115630190D01*
D13*
X102600592Y-84074000D02*
G75*
G02*
X102489000Y-83804592I269408J269408D01*
G01*
X93980000Y-79629000D02*
X98425000Y-79629000D01*
X93599000Y-80010000D02*
G75*
G02*
X93980000Y-79629000I381000J0D01*
G01*
X101727000Y-81153000D02*
X99949000Y-81153000D01*
X98425000Y-79629000D02*
G75*
G02*
X99187000Y-80391000I0J-762000D01*
G01*
X99949000Y-81153000D02*
G75*
G02*
X99187000Y-80391000I0J762000D01*
G01*
X101727000Y-81153000D02*
G75*
G02*
X102489000Y-81915000I0J-762000D01*
G01*
X102489000Y-83820000D02*
X102489000Y-81915000D01*
X112014000Y-79629000D02*
G75*
G02*
X112776000Y-80391000I0J-762000D01*
G01*
X107569000Y-79629000D02*
X112014000Y-79629000D01*
X106807000Y-80391000D02*
G75*
G02*
X107569000Y-79629000I762000J0D01*
G01*
X106807000Y-82423000D02*
X106807000Y-80391000D01*
X105918000Y-86106000D02*
X108204000Y-86106000D01*
X105918000Y-86106000D02*
G75*
G02*
X105537000Y-85725000I0J381000D01*
G01*
X97790000Y-80645000D02*
G75*
G02*
X98552000Y-81407000I0J-762000D01*
G01*
X98552000Y-83058000D02*
X98552000Y-81407000D01*
X98933000Y-83439000D02*
G75*
G02*
X98552000Y-83058000I0J381000D01*
G01*
D14*
X96520000Y-80010000D02*
X97790000Y-80010000D01*
X92964000Y-80010000D02*
X94234000Y-80010000D01*
X109474000Y-115570000D02*
G75*
G02*
X108204000Y-114300000I0J1270000D01*
G01*
X113030000Y-114300000D02*
G75*
G02*
X111760000Y-115570000I-1270000J0D01*
G01*
X97790000Y-114300000D02*
G75*
G02*
X96520000Y-115570000I-1270000J0D01*
G01*
X94234000Y-115570000D02*
G75*
G02*
X92964000Y-114300000I0J1270000D01*
G01*
X111760000Y-80010000D02*
G75*
G02*
X113030000Y-81280000I0J-1270000D01*
G01*
X108204000Y-81280000D02*
G75*
G02*
X109474000Y-80010000I1270000J0D01*
G01*
X92964000Y-114300000D02*
X92964000Y-80010000D01*
X108204000Y-114300000D02*
X108204000Y-81280000D01*
X113030000Y-81280000D02*
X113030000Y-114300000D01*
X97790000Y-80010000D02*
X97790000Y-114300000D01*
X106695428Y-83152571D02*
X106552571Y-83200190D01*
X106504952Y-83247809D01*
X106457333Y-83343047D01*
X106457333Y-83485904D01*
X106504952Y-83581142D01*
X106552571Y-83628761D01*
X106647809Y-83676380D01*
X107028761Y-83676380D01*
X107028761Y-82676380D01*
X106695428Y-82676380D01*
X106600190Y-82724000D01*
X106552571Y-82771619D01*
X106504952Y-82866857D01*
X106504952Y-82962095D01*
X106552571Y-83057333D01*
X106600190Y-83104952D01*
X106695428Y-83152571D01*
X107028761Y-83152571D01*
X105885904Y-83676380D02*
X105981142Y-83628761D01*
X106028761Y-83581142D01*
X106076380Y-83485904D01*
X106076380Y-83200190D01*
X106028761Y-83104952D01*
X105981142Y-83057333D01*
X105885904Y-83009714D01*
X105743047Y-83009714D01*
X105647809Y-83057333D01*
X105600190Y-83104952D01*
X105552571Y-83200190D01*
X105552571Y-83485904D01*
X105600190Y-83581142D01*
X105647809Y-83628761D01*
X105743047Y-83676380D01*
X105885904Y-83676380D01*
X104695428Y-83676380D02*
X104695428Y-83152571D01*
X104743047Y-83057333D01*
X104838285Y-83009714D01*
X105028761Y-83009714D01*
X105124000Y-83057333D01*
X104695428Y-83628761D02*
X104790666Y-83676380D01*
X105028761Y-83676380D01*
X105124000Y-83628761D01*
X105171619Y-83533523D01*
X105171619Y-83438285D01*
X105124000Y-83343047D01*
X105028761Y-83295428D01*
X104790666Y-83295428D01*
X104695428Y-83247809D01*
X104219238Y-83676380D02*
X104219238Y-83009714D01*
X104219238Y-83200190D02*
X104171619Y-83104952D01*
X104124000Y-83057333D01*
X104028761Y-83009714D01*
X103933523Y-83009714D01*
X103171619Y-83676380D02*
X103171619Y-82676380D01*
X103171619Y-83628761D02*
X103266857Y-83676380D01*
X103457333Y-83676380D01*
X103552571Y-83628761D01*
X103600190Y-83581142D01*
X103647809Y-83485904D01*
X103647809Y-83200190D01*
X103600190Y-83104952D01*
X103552571Y-83057333D01*
X103457333Y-83009714D01*
X103266857Y-83009714D01*
X103171619Y-83057333D01*
X101933523Y-83676380D02*
X101933523Y-82676380D01*
X101552571Y-82676380D01*
X101457333Y-82724000D01*
X101409714Y-82771619D01*
X101362095Y-82866857D01*
X101362095Y-83009714D01*
X101409714Y-83104952D01*
X101457333Y-83152571D01*
X101552571Y-83200190D01*
X101933523Y-83200190D01*
X100933523Y-83676380D02*
X100933523Y-83009714D01*
X100933523Y-82676380D02*
X100981142Y-82724000D01*
X100933523Y-82771619D01*
X100885904Y-82724000D01*
X100933523Y-82676380D01*
X100933523Y-82771619D01*
X100457333Y-83009714D02*
X100457333Y-83676380D01*
X100457333Y-83104952D02*
X100409714Y-83057333D01*
X100314476Y-83009714D01*
X100171619Y-83009714D01*
X100076380Y-83057333D01*
X100028761Y-83152571D01*
X100028761Y-83676380D01*
X99600190Y-83628761D02*
X99504952Y-83676380D01*
X99314476Y-83676380D01*
X99219238Y-83628761D01*
X99171619Y-83533523D01*
X99171619Y-83485904D01*
X99219238Y-83390666D01*
X99314476Y-83343047D01*
X99457333Y-83343047D01*
X99552571Y-83295428D01*
X99600190Y-83200190D01*
X99600190Y-83152571D01*
X99552571Y-83057333D01*
X99457333Y-83009714D01*
X99314476Y-83009714D01*
X99219238Y-83057333D01*
X107219238Y-84376380D02*
X107409714Y-84376380D01*
X107504952Y-84424000D01*
X107552571Y-84471619D01*
X107647809Y-84614476D01*
X107695428Y-84804952D01*
X107695428Y-85185904D01*
X107647809Y-85281142D01*
X107600190Y-85328761D01*
X107504952Y-85376380D01*
X107314476Y-85376380D01*
X107219238Y-85328761D01*
X107171619Y-85281142D01*
X107124000Y-85185904D01*
X107124000Y-84947809D01*
X107171619Y-84852571D01*
X107219238Y-84804952D01*
X107314476Y-84757333D01*
X107504952Y-84757333D01*
X107600190Y-84804952D01*
X107647809Y-84852571D01*
X107695428Y-84947809D01*
X106552571Y-84804952D02*
X106647809Y-84757333D01*
X106695428Y-84709714D01*
X106743047Y-84614476D01*
X106743047Y-84566857D01*
X106695428Y-84471619D01*
X106647809Y-84424000D01*
X106552571Y-84376380D01*
X106362095Y-84376380D01*
X106266857Y-84424000D01*
X106219238Y-84471619D01*
X106171619Y-84566857D01*
X106171619Y-84614476D01*
X106219238Y-84709714D01*
X106266857Y-84757333D01*
X106362095Y-84804952D01*
X106552571Y-84804952D01*
X106647809Y-84852571D01*
X106695428Y-84900190D01*
X106743047Y-84995428D01*
X106743047Y-85185904D01*
X106695428Y-85281142D01*
X106647809Y-85328761D01*
X106552571Y-85376380D01*
X106362095Y-85376380D01*
X106266857Y-85328761D01*
X106219238Y-85281142D01*
X106171619Y-85185904D01*
X106171619Y-84995428D01*
X106219238Y-84900190D01*
X106266857Y-84852571D01*
X106362095Y-84804952D01*
X105266857Y-84376380D02*
X105743047Y-84376380D01*
X105790666Y-84852571D01*
X105743047Y-84804952D01*
X105647809Y-84757333D01*
X105409714Y-84757333D01*
X105314476Y-84804952D01*
X105266857Y-84852571D01*
X105219238Y-84947809D01*
X105219238Y-85185904D01*
X105266857Y-85281142D01*
X105314476Y-85328761D01*
X105409714Y-85376380D01*
X105647809Y-85376380D01*
X105743047Y-85328761D01*
X105790666Y-85281142D01*
X104266857Y-85376380D02*
X104838285Y-85376380D01*
X104552571Y-85376380D02*
X104552571Y-84376380D01*
X104647809Y-84519238D01*
X104743047Y-84614476D01*
X104838285Y-84662095D01*
X103124000Y-85328761D02*
X102981142Y-85376380D01*
X102743047Y-85376380D01*
X102647809Y-85328761D01*
X102600190Y-85281142D01*
X102552571Y-85185904D01*
X102552571Y-85090666D01*
X102600190Y-84995428D01*
X102647809Y-84947809D01*
X102743047Y-84900190D01*
X102933523Y-84852571D01*
X103028761Y-84804952D01*
X103076380Y-84757333D01*
X103124000Y-84662095D01*
X103124000Y-84566857D01*
X103076380Y-84471619D01*
X103028761Y-84424000D01*
X102933523Y-84376380D01*
X102695428Y-84376380D01*
X102552571Y-84424000D01*
X101981142Y-85376380D02*
X102076380Y-85328761D01*
X102124000Y-85281142D01*
X102171619Y-85185904D01*
X102171619Y-84900190D01*
X102124000Y-84804952D01*
X102076380Y-84757333D01*
X101981142Y-84709714D01*
X101838285Y-84709714D01*
X101743047Y-84757333D01*
X101695428Y-84804952D01*
X101647809Y-84900190D01*
X101647809Y-85185904D01*
X101695428Y-85281142D01*
X101743047Y-85328761D01*
X101838285Y-85376380D01*
X101981142Y-85376380D01*
X100790666Y-85328761D02*
X100885904Y-85376380D01*
X101076380Y-85376380D01*
X101171619Y-85328761D01*
X101219238Y-85281142D01*
X101266857Y-85185904D01*
X101266857Y-84900190D01*
X101219238Y-84804952D01*
X101171619Y-84757333D01*
X101076380Y-84709714D01*
X100885904Y-84709714D01*
X100790666Y-84757333D01*
X100362095Y-85376380D02*
X100362095Y-84376380D01*
X100266857Y-84995428D02*
X99981142Y-85376380D01*
X99981142Y-84709714D02*
X100362095Y-85090666D01*
X99171619Y-85328761D02*
X99266857Y-85376380D01*
X99457333Y-85376380D01*
X99552571Y-85328761D01*
X99600190Y-85233523D01*
X99600190Y-84852571D01*
X99552571Y-84757333D01*
X99457333Y-84709714D01*
X99266857Y-84709714D01*
X99171619Y-84757333D01*
X99124000Y-84852571D01*
X99124000Y-84947809D01*
X99600190Y-85043047D01*
X98838285Y-84709714D02*
X98457333Y-84709714D01*
X98695428Y-84376380D02*
X98695428Y-85233523D01*
X98647809Y-85328761D01*
X98552571Y-85376380D01*
X98457333Y-85376380D01*
D15*
G36*
X105270256Y-107964918D02*
G01*
X105214799Y-107992568D01*
X105165852Y-108043480D01*
X105152371Y-108062338D01*
X105137686Y-108087015D01*
X105128158Y-108113816D01*
X105122707Y-108149587D01*
X105120253Y-108201169D01*
X105119714Y-108269267D01*
X105122148Y-108362588D01*
X105130606Y-108432657D01*
X105146826Y-108484931D01*
X105172546Y-108524869D01*
X105209503Y-108557929D01*
X105212218Y-108559886D01*
X105248640Y-108579908D01*
X105292498Y-108589815D01*
X105348276Y-108592257D01*
X105438952Y-108592257D01*
X105438990Y-108680283D01*
X105439834Y-108729308D01*
X105444976Y-108758065D01*
X105458413Y-108775311D01*
X105484142Y-108789808D01*
X105490321Y-108792769D01*
X105519236Y-108806648D01*
X105541624Y-108815414D01*
X105558271Y-108816171D01*
X105569964Y-108806023D01*
X105577490Y-108782073D01*
X105581634Y-108741426D01*
X105583185Y-108681186D01*
X105582929Y-108598455D01*
X105581651Y-108490339D01*
X105581252Y-108458000D01*
X105579815Y-108346524D01*
X105578528Y-108273603D01*
X105439029Y-108273603D01*
X105438245Y-108335499D01*
X105434760Y-108375997D01*
X105426876Y-108402708D01*
X105412895Y-108423244D01*
X105403403Y-108433260D01*
X105364596Y-108462567D01*
X105330237Y-108464952D01*
X105294784Y-108440750D01*
X105293886Y-108439857D01*
X105279461Y-108421153D01*
X105270687Y-108395732D01*
X105266261Y-108356584D01*
X105264882Y-108296697D01*
X105264857Y-108283430D01*
X105268188Y-108200901D01*
X105279031Y-108143691D01*
X105298660Y-108108766D01*
X105328350Y-108093094D01*
X105345509Y-108091514D01*
X105386234Y-108098926D01*
X105414168Y-108123330D01*
X105430983Y-108167980D01*
X105438350Y-108236130D01*
X105439029Y-108273603D01*
X105578528Y-108273603D01*
X105578292Y-108260245D01*
X105576323Y-108195333D01*
X105573550Y-108147958D01*
X105569612Y-108114290D01*
X105564151Y-108090498D01*
X105556808Y-108072753D01*
X105547223Y-108057224D01*
X105543113Y-108051381D01*
X105488595Y-107996185D01*
X105419664Y-107964890D01*
X105339928Y-107956165D01*
X105270256Y-107964918D01*
G37*
X105270256Y-107964918D02*
X105214799Y-107992568D01*
X105165852Y-108043480D01*
X105152371Y-108062338D01*
X105137686Y-108087015D01*
X105128158Y-108113816D01*
X105122707Y-108149587D01*
X105120253Y-108201169D01*
X105119714Y-108269267D01*
X105122148Y-108362588D01*
X105130606Y-108432657D01*
X105146826Y-108484931D01*
X105172546Y-108524869D01*
X105209503Y-108557929D01*
X105212218Y-108559886D01*
X105248640Y-108579908D01*
X105292498Y-108589815D01*
X105348276Y-108592257D01*
X105438952Y-108592257D01*
X105438990Y-108680283D01*
X105439834Y-108729308D01*
X105444976Y-108758065D01*
X105458413Y-108775311D01*
X105484142Y-108789808D01*
X105490321Y-108792769D01*
X105519236Y-108806648D01*
X105541624Y-108815414D01*
X105558271Y-108816171D01*
X105569964Y-108806023D01*
X105577490Y-108782073D01*
X105581634Y-108741426D01*
X105583185Y-108681186D01*
X105582929Y-108598455D01*
X105581651Y-108490339D01*
X105581252Y-108458000D01*
X105579815Y-108346524D01*
X105578528Y-108273603D01*
X105439029Y-108273603D01*
X105438245Y-108335499D01*
X105434760Y-108375997D01*
X105426876Y-108402708D01*
X105412895Y-108423244D01*
X105403403Y-108433260D01*
X105364596Y-108462567D01*
X105330237Y-108464952D01*
X105294784Y-108440750D01*
X105293886Y-108439857D01*
X105279461Y-108421153D01*
X105270687Y-108395732D01*
X105266261Y-108356584D01*
X105264882Y-108296697D01*
X105264857Y-108283430D01*
X105268188Y-108200901D01*
X105279031Y-108143691D01*
X105298660Y-108108766D01*
X105328350Y-108093094D01*
X105345509Y-108091514D01*
X105386234Y-108098926D01*
X105414168Y-108123330D01*
X105430983Y-108167980D01*
X105438350Y-108236130D01*
X105439029Y-108273603D01*
X105578528Y-108273603D01*
X105578292Y-108260245D01*
X105576323Y-108195333D01*
X105573550Y-108147958D01*
X105569612Y-108114290D01*
X105564151Y-108090498D01*
X105556808Y-108072753D01*
X105547223Y-108057224D01*
X105543113Y-108051381D01*
X105488595Y-107996185D01*
X105419664Y-107964890D01*
X105339928Y-107956165D01*
X105270256Y-107964918D01*
G36*
X104153907Y-107972780D02*
G01*
X104107328Y-107999723D01*
X104074943Y-108026466D01*
X104051258Y-108054484D01*
X104034941Y-108088748D01*
X104024661Y-108134227D01*
X104019086Y-108195892D01*
X104016884Y-108278711D01*
X104016629Y-108338246D01*
X104016629Y-108557391D01*
X104078314Y-108585044D01*
X104140000Y-108612697D01*
X104147257Y-108372670D01*
X104150256Y-108283028D01*
X104153402Y-108217962D01*
X104157299Y-108173026D01*
X104162553Y-108143770D01*
X104169769Y-108125748D01*
X104179550Y-108114511D01*
X104182688Y-108112079D01*
X104230239Y-108093083D01*
X104278303Y-108100600D01*
X104306914Y-108120543D01*
X104318553Y-108134675D01*
X104326609Y-108153220D01*
X104331729Y-108181334D01*
X104334559Y-108224173D01*
X104335744Y-108286895D01*
X104335943Y-108352261D01*
X104335982Y-108434268D01*
X104337386Y-108492316D01*
X104342086Y-108531465D01*
X104352013Y-108556780D01*
X104369097Y-108573323D01*
X104395268Y-108586156D01*
X104430225Y-108599491D01*
X104468404Y-108614007D01*
X104463859Y-108356389D01*
X104462029Y-108263519D01*
X104459888Y-108194889D01*
X104456819Y-108145711D01*
X104452206Y-108111198D01*
X104445432Y-108086562D01*
X104435881Y-108067016D01*
X104424366Y-108049770D01*
X104368810Y-107994680D01*
X104301020Y-107962822D01*
X104227287Y-107955191D01*
X104153907Y-107972780D01*
G37*
X104153907Y-107972780D02*
X104107328Y-107999723D01*
X104074943Y-108026466D01*
X104051258Y-108054484D01*
X104034941Y-108088748D01*
X104024661Y-108134227D01*
X104019086Y-108195892D01*
X104016884Y-108278711D01*
X104016629Y-108338246D01*
X104016629Y-108557391D01*
X104078314Y-108585044D01*
X104140000Y-108612697D01*
X104147257Y-108372670D01*
X104150256Y-108283028D01*
X104153402Y-108217962D01*
X104157299Y-108173026D01*
X104162553Y-108143770D01*
X104169769Y-108125748D01*
X104179550Y-108114511D01*
X104182688Y-108112079D01*
X104230239Y-108093083D01*
X104278303Y-108100600D01*
X104306914Y-108120543D01*
X104318553Y-108134675D01*
X104326609Y-108153220D01*
X104331729Y-108181334D01*
X104334559Y-108224173D01*
X104335744Y-108286895D01*
X104335943Y-108352261D01*
X104335982Y-108434268D01*
X104337386Y-108492316D01*
X104342086Y-108531465D01*
X104352013Y-108556780D01*
X104369097Y-108573323D01*
X104395268Y-108586156D01*
X104430225Y-108599491D01*
X104468404Y-108614007D01*
X104463859Y-108356389D01*
X104462029Y-108263519D01*
X104459888Y-108194889D01*
X104456819Y-108145711D01*
X104452206Y-108111198D01*
X104445432Y-108086562D01*
X104435881Y-108067016D01*
X104424366Y-108049770D01*
X104368810Y-107994680D01*
X104301020Y-107962822D01*
X104227287Y-107955191D01*
X104153907Y-107972780D01*
G36*
X105828885Y-107966962D02*
G01*
X105760855Y-108002733D01*
X105710649Y-108060301D01*
X105692815Y-108097312D01*
X105678937Y-108152882D01*
X105671833Y-108223096D01*
X105671160Y-108299727D01*
X105676573Y-108374552D01*
X105687730Y-108439342D01*
X105704286Y-108485873D01*
X105709374Y-108493887D01*
X105769645Y-108553707D01*
X105841231Y-108589535D01*
X105918908Y-108600020D01*
X105997452Y-108583810D01*
X106019311Y-108574092D01*
X106061878Y-108544143D01*
X106099237Y-108504433D01*
X106102768Y-108499397D01*
X106117119Y-108475124D01*
X106126606Y-108449178D01*
X106132210Y-108415022D01*
X106134914Y-108366119D01*
X106135701Y-108295935D01*
X106135714Y-108280200D01*
X106135678Y-108275192D01*
X105990571Y-108275192D01*
X105989727Y-108341430D01*
X105986404Y-108385386D01*
X105979417Y-108413779D01*
X105967584Y-108433325D01*
X105961543Y-108439857D01*
X105926814Y-108464680D01*
X105893097Y-108463548D01*
X105859005Y-108442016D01*
X105838671Y-108419029D01*
X105826629Y-108385478D01*
X105819866Y-108332569D01*
X105819402Y-108326399D01*
X105818248Y-108230513D01*
X105830312Y-108159299D01*
X105855430Y-108113194D01*
X105893440Y-108092635D01*
X105907008Y-108091514D01*
X105942636Y-108097152D01*
X105967006Y-108116686D01*
X105981907Y-108154042D01*
X105989125Y-108213150D01*
X105990571Y-108275192D01*
X106135678Y-108275192D01*
X106135174Y-108205413D01*
X106132904Y-108153159D01*
X106127932Y-108116949D01*
X106119287Y-108090299D01*
X106105995Y-108066722D01*
X106103057Y-108062338D01*
X106053687Y-108003249D01*
X105999891Y-107968947D01*
X105934398Y-107955331D01*
X105912158Y-107954665D01*
X105828885Y-107966962D01*
G37*
X105828885Y-107966962D02*
X105760855Y-108002733D01*
X105710649Y-108060301D01*
X105692815Y-108097312D01*
X105678937Y-108152882D01*
X105671833Y-108223096D01*
X105671160Y-108299727D01*
X105676573Y-108374552D01*
X105687730Y-108439342D01*
X105704286Y-108485873D01*
X105709374Y-108493887D01*
X105769645Y-108553707D01*
X105841231Y-108589535D01*
X105918908Y-108600020D01*
X105997452Y-108583810D01*
X106019311Y-108574092D01*
X106061878Y-108544143D01*
X106099237Y-108504433D01*
X106102768Y-108499397D01*
X106117119Y-108475124D01*
X106126606Y-108449178D01*
X106132210Y-108415022D01*
X106134914Y-108366119D01*
X106135701Y-108295935D01*
X106135714Y-108280200D01*
X106135678Y-108275192D01*
X105990571Y-108275192D01*
X105989727Y-108341430D01*
X105986404Y-108385386D01*
X105979417Y-108413779D01*
X105967584Y-108433325D01*
X105961543Y-108439857D01*
X105926814Y-108464680D01*
X105893097Y-108463548D01*
X105859005Y-108442016D01*
X105838671Y-108419029D01*
X105826629Y-108385478D01*
X105819866Y-108332569D01*
X105819402Y-108326399D01*
X105818248Y-108230513D01*
X105830312Y-108159299D01*
X105855430Y-108113194D01*
X105893440Y-108092635D01*
X105907008Y-108091514D01*
X105942636Y-108097152D01*
X105967006Y-108116686D01*
X105981907Y-108154042D01*
X105989125Y-108213150D01*
X105990571Y-108275192D01*
X106135678Y-108275192D01*
X106135174Y-108205413D01*
X106132904Y-108153159D01*
X106127932Y-108116949D01*
X106119287Y-108090299D01*
X106105995Y-108066722D01*
X106103057Y-108062338D01*
X106053687Y-108003249D01*
X105999891Y-107968947D01*
X105934398Y-107955331D01*
X105912158Y-107954665D01*
X105828885Y-107966962D01*
G36*
X104701697Y-107976239D02*
G01*
X104644473Y-108014735D01*
X104600251Y-108070335D01*
X104573833Y-108141086D01*
X104568490Y-108193162D01*
X104569097Y-108214893D01*
X104574178Y-108231531D01*
X104588145Y-108246437D01*
X104615411Y-108262973D01*
X104660388Y-108284498D01*
X104727489Y-108314374D01*
X104727829Y-108314524D01*
X104789593Y-108342813D01*
X104840241Y-108367933D01*
X104874596Y-108387179D01*
X104887482Y-108397848D01*
X104887486Y-108397934D01*
X104876128Y-108421166D01*
X104849569Y-108446774D01*
X104819077Y-108465221D01*
X104803630Y-108468886D01*
X104761485Y-108456212D01*
X104725192Y-108424471D01*
X104707483Y-108389572D01*
X104690448Y-108363845D01*
X104657078Y-108334546D01*
X104617851Y-108309235D01*
X104583244Y-108295471D01*
X104576007Y-108294714D01*
X104567861Y-108307160D01*
X104567370Y-108338972D01*
X104573357Y-108381866D01*
X104584643Y-108427558D01*
X104600050Y-108467761D01*
X104600829Y-108469322D01*
X104647196Y-108534062D01*
X104707289Y-108578097D01*
X104775535Y-108599711D01*
X104846362Y-108597185D01*
X104914196Y-108568804D01*
X104917212Y-108566808D01*
X104970573Y-108518448D01*
X105005660Y-108455352D01*
X105025078Y-108372387D01*
X105027684Y-108349078D01*
X105032299Y-108239055D01*
X105026767Y-108187748D01*
X104887486Y-108187748D01*
X104885676Y-108219753D01*
X104875778Y-108229093D01*
X104851102Y-108222105D01*
X104812205Y-108205587D01*
X104768725Y-108184881D01*
X104767644Y-108184333D01*
X104730791Y-108164949D01*
X104716000Y-108152013D01*
X104719647Y-108138451D01*
X104735005Y-108120632D01*
X104774077Y-108094845D01*
X104816154Y-108092950D01*
X104853897Y-108111717D01*
X104879966Y-108147915D01*
X104887486Y-108187748D01*
X105026767Y-108187748D01*
X105022806Y-108151027D01*
X104998450Y-108081212D01*
X104964544Y-108032302D01*
X104903347Y-107982878D01*
X104835937Y-107958359D01*
X104767120Y-107956797D01*
X104701697Y-107976239D01*
G37*
X104701697Y-107976239D02*
X104644473Y-108014735D01*
X104600251Y-108070335D01*
X104573833Y-108141086D01*
X104568490Y-108193162D01*
X104569097Y-108214893D01*
X104574178Y-108231531D01*
X104588145Y-108246437D01*
X104615411Y-108262973D01*
X104660388Y-108284498D01*
X104727489Y-108314374D01*
X104727829Y-108314524D01*
X104789593Y-108342813D01*
X104840241Y-108367933D01*
X104874596Y-108387179D01*
X104887482Y-108397848D01*
X104887486Y-108397934D01*
X104876128Y-108421166D01*
X104849569Y-108446774D01*
X104819077Y-108465221D01*
X104803630Y-108468886D01*
X104761485Y-108456212D01*
X104725192Y-108424471D01*
X104707483Y-108389572D01*
X104690448Y-108363845D01*
X104657078Y-108334546D01*
X104617851Y-108309235D01*
X104583244Y-108295471D01*
X104576007Y-108294714D01*
X104567861Y-108307160D01*
X104567370Y-108338972D01*
X104573357Y-108381866D01*
X104584643Y-108427558D01*
X104600050Y-108467761D01*
X104600829Y-108469322D01*
X104647196Y-108534062D01*
X104707289Y-108578097D01*
X104775535Y-108599711D01*
X104846362Y-108597185D01*
X104914196Y-108568804D01*
X104917212Y-108566808D01*
X104970573Y-108518448D01*
X105005660Y-108455352D01*
X105025078Y-108372387D01*
X105027684Y-108349078D01*
X105032299Y-108239055D01*
X105026767Y-108187748D01*
X104887486Y-108187748D01*
X104885676Y-108219753D01*
X104875778Y-108229093D01*
X104851102Y-108222105D01*
X104812205Y-108205587D01*
X104768725Y-108184881D01*
X104767644Y-108184333D01*
X104730791Y-108164949D01*
X104716000Y-108152013D01*
X104719647Y-108138451D01*
X104735005Y-108120632D01*
X104774077Y-108094845D01*
X104816154Y-108092950D01*
X104853897Y-108111717D01*
X104879966Y-108147915D01*
X104887486Y-108187748D01*
X105026767Y-108187748D01*
X105022806Y-108151027D01*
X104998450Y-108081212D01*
X104964544Y-108032302D01*
X104903347Y-107982878D01*
X104835937Y-107958359D01*
X104767120Y-107956797D01*
X104701697Y-107976239D01*
G36*
X103494114Y-107896289D02*
G01*
X103489861Y-107955613D01*
X103484975Y-107990572D01*
X103478205Y-108005820D01*
X103468298Y-108006015D01*
X103465086Y-108004195D01*
X103422356Y-107991015D01*
X103366773Y-107991785D01*
X103310263Y-108005333D01*
X103274918Y-108022861D01*
X103238679Y-108050861D01*
X103212187Y-108082549D01*
X103194001Y-108122813D01*
X103182678Y-108176543D01*
X103176778Y-108248626D01*
X103174857Y-108343951D01*
X103174823Y-108362237D01*
X103174800Y-108567646D01*
X103220509Y-108583580D01*
X103252973Y-108594420D01*
X103270785Y-108599468D01*
X103271309Y-108599514D01*
X103273063Y-108585828D01*
X103274556Y-108548076D01*
X103275674Y-108491224D01*
X103276303Y-108420234D01*
X103276400Y-108377073D01*
X103276602Y-108291973D01*
X103277642Y-108230981D01*
X103280169Y-108189177D01*
X103284836Y-108161642D01*
X103292293Y-108143456D01*
X103303189Y-108129698D01*
X103309993Y-108123073D01*
X103356728Y-108096375D01*
X103407728Y-108094375D01*
X103453999Y-108116955D01*
X103462556Y-108125107D01*
X103475107Y-108140436D01*
X103483812Y-108158618D01*
X103489369Y-108184909D01*
X103492474Y-108224562D01*
X103493824Y-108282832D01*
X103494114Y-108363173D01*
X103494114Y-108567646D01*
X103539823Y-108583580D01*
X103572287Y-108594420D01*
X103590099Y-108599468D01*
X103590623Y-108599514D01*
X103591963Y-108585623D01*
X103593172Y-108546439D01*
X103594199Y-108485700D01*
X103594998Y-108407141D01*
X103595519Y-108314498D01*
X103595714Y-108211509D01*
X103595714Y-107814342D01*
X103548543Y-107794444D01*
X103501371Y-107774547D01*
X103494114Y-107896289D01*
G37*
X103494114Y-107896289D02*
X103489861Y-107955613D01*
X103484975Y-107990572D01*
X103478205Y-108005820D01*
X103468298Y-108006015D01*
X103465086Y-108004195D01*
X103422356Y-107991015D01*
X103366773Y-107991785D01*
X103310263Y-108005333D01*
X103274918Y-108022861D01*
X103238679Y-108050861D01*
X103212187Y-108082549D01*
X103194001Y-108122813D01*
X103182678Y-108176543D01*
X103176778Y-108248626D01*
X103174857Y-108343951D01*
X103174823Y-108362237D01*
X103174800Y-108567646D01*
X103220509Y-108583580D01*
X103252973Y-108594420D01*
X103270785Y-108599468D01*
X103271309Y-108599514D01*
X103273063Y-108585828D01*
X103274556Y-108548076D01*
X103275674Y-108491224D01*
X103276303Y-108420234D01*
X103276400Y-108377073D01*
X103276602Y-108291973D01*
X103277642Y-108230981D01*
X103280169Y-108189177D01*
X103284836Y-108161642D01*
X103292293Y-108143456D01*
X103303189Y-108129698D01*
X103309993Y-108123073D01*
X103356728Y-108096375D01*
X103407728Y-108094375D01*
X103453999Y-108116955D01*
X103462556Y-108125107D01*
X103475107Y-108140436D01*
X103483812Y-108158618D01*
X103489369Y-108184909D01*
X103492474Y-108224562D01*
X103493824Y-108282832D01*
X103494114Y-108363173D01*
X103494114Y-108567646D01*
X103539823Y-108583580D01*
X103572287Y-108594420D01*
X103590099Y-108599468D01*
X103590623Y-108599514D01*
X103591963Y-108585623D01*
X103593172Y-108546439D01*
X103594199Y-108485700D01*
X103594998Y-108407141D01*
X103595519Y-108314498D01*
X103595714Y-108211509D01*
X103595714Y-107814342D01*
X103548543Y-107794444D01*
X103501371Y-107774547D01*
X103494114Y-107896289D01*
G36*
X102830256Y-107995968D02*
G01*
X102773384Y-108017087D01*
X102772733Y-108017493D01*
X102737560Y-108043380D01*
X102711593Y-108073633D01*
X102693330Y-108113058D01*
X102681268Y-108166462D01*
X102673904Y-108238651D01*
X102669736Y-108334432D01*
X102669371Y-108348078D01*
X102664124Y-108553842D01*
X102708284Y-108576678D01*
X102740237Y-108592110D01*
X102759530Y-108599423D01*
X102760422Y-108599514D01*
X102763761Y-108586022D01*
X102766413Y-108549626D01*
X102768044Y-108496452D01*
X102768400Y-108453393D01*
X102768408Y-108383641D01*
X102771597Y-108339837D01*
X102782712Y-108318944D01*
X102806499Y-108317925D01*
X102847704Y-108333741D01*
X102909914Y-108362815D01*
X102955659Y-108386963D01*
X102979187Y-108407913D01*
X102986104Y-108430747D01*
X102986114Y-108431877D01*
X102974701Y-108471212D01*
X102940908Y-108492462D01*
X102889191Y-108495539D01*
X102851939Y-108495006D01*
X102832297Y-108505735D01*
X102820048Y-108531505D01*
X102812998Y-108564337D01*
X102823158Y-108582966D01*
X102826983Y-108585632D01*
X102862999Y-108596340D01*
X102913434Y-108597856D01*
X102965374Y-108590759D01*
X103002178Y-108577788D01*
X103053062Y-108534585D01*
X103081986Y-108474446D01*
X103087714Y-108427462D01*
X103083343Y-108385082D01*
X103067525Y-108350488D01*
X103036203Y-108319763D01*
X102985322Y-108288990D01*
X102910824Y-108254252D01*
X102906286Y-108252288D01*
X102839179Y-108221287D01*
X102797768Y-108195862D01*
X102780019Y-108173014D01*
X102783893Y-108149745D01*
X102807357Y-108123056D01*
X102814373Y-108116914D01*
X102861370Y-108093100D01*
X102910067Y-108094103D01*
X102952478Y-108117451D01*
X102980616Y-108160675D01*
X102983231Y-108169160D01*
X103008692Y-108210308D01*
X103040999Y-108230128D01*
X103087714Y-108249770D01*
X103087714Y-108198950D01*
X103073504Y-108125082D01*
X103031325Y-108057327D01*
X103009376Y-108034661D01*
X102959483Y-108005569D01*
X102896033Y-107992400D01*
X102830256Y-107995968D01*
G37*
X102830256Y-107995968D02*
X102773384Y-108017087D01*
X102772733Y-108017493D01*
X102737560Y-108043380D01*
X102711593Y-108073633D01*
X102693330Y-108113058D01*
X102681268Y-108166462D01*
X102673904Y-108238651D01*
X102669736Y-108334432D01*
X102669371Y-108348078D01*
X102664124Y-108553842D01*
X102708284Y-108576678D01*
X102740237Y-108592110D01*
X102759530Y-108599423D01*
X102760422Y-108599514D01*
X102763761Y-108586022D01*
X102766413Y-108549626D01*
X102768044Y-108496452D01*
X102768400Y-108453393D01*
X102768408Y-108383641D01*
X102771597Y-108339837D01*
X102782712Y-108318944D01*
X102806499Y-108317925D01*
X102847704Y-108333741D01*
X102909914Y-108362815D01*
X102955659Y-108386963D01*
X102979187Y-108407913D01*
X102986104Y-108430747D01*
X102986114Y-108431877D01*
X102974701Y-108471212D01*
X102940908Y-108492462D01*
X102889191Y-108495539D01*
X102851939Y-108495006D01*
X102832297Y-108505735D01*
X102820048Y-108531505D01*
X102812998Y-108564337D01*
X102823158Y-108582966D01*
X102826983Y-108585632D01*
X102862999Y-108596340D01*
X102913434Y-108597856D01*
X102965374Y-108590759D01*
X103002178Y-108577788D01*
X103053062Y-108534585D01*
X103081986Y-108474446D01*
X103087714Y-108427462D01*
X103083343Y-108385082D01*
X103067525Y-108350488D01*
X103036203Y-108319763D01*
X102985322Y-108288990D01*
X102910824Y-108254252D01*
X102906286Y-108252288D01*
X102839179Y-108221287D01*
X102797768Y-108195862D01*
X102780019Y-108173014D01*
X102783893Y-108149745D01*
X102807357Y-108123056D01*
X102814373Y-108116914D01*
X102861370Y-108093100D01*
X102910067Y-108094103D01*
X102952478Y-108117451D01*
X102980616Y-108160675D01*
X102983231Y-108169160D01*
X103008692Y-108210308D01*
X103040999Y-108230128D01*
X103087714Y-108249770D01*
X103087714Y-108198950D01*
X103073504Y-108125082D01*
X103031325Y-108057327D01*
X103009376Y-108034661D01*
X102959483Y-108005569D01*
X102896033Y-107992400D01*
X102830256Y-107995968D01*
G36*
X102340074Y-107994755D02*
G01*
X102274142Y-108019084D01*
X102220727Y-108062117D01*
X102199836Y-108092409D01*
X102177061Y-108147994D01*
X102177534Y-108188186D01*
X102201438Y-108215217D01*
X102210283Y-108219813D01*
X102248470Y-108234144D01*
X102267972Y-108230472D01*
X102274578Y-108206407D01*
X102274914Y-108193114D01*
X102287008Y-108144210D01*
X102318529Y-108109999D01*
X102362341Y-108093476D01*
X102411305Y-108097634D01*
X102451106Y-108119227D01*
X102464550Y-108131544D01*
X102474079Y-108146487D01*
X102480515Y-108169075D01*
X102484683Y-108204328D01*
X102487403Y-108257266D01*
X102489498Y-108332907D01*
X102490040Y-108356857D01*
X102492019Y-108438790D01*
X102494269Y-108496455D01*
X102497643Y-108534608D01*
X102502994Y-108558004D01*
X102511176Y-108571398D01*
X102523041Y-108579545D01*
X102530638Y-108583144D01*
X102562898Y-108595452D01*
X102581889Y-108599514D01*
X102588164Y-108585948D01*
X102591994Y-108544934D01*
X102593400Y-108475999D01*
X102592402Y-108378669D01*
X102592092Y-108363657D01*
X102589899Y-108274859D01*
X102587307Y-108210019D01*
X102583618Y-108164067D01*
X102578136Y-108131935D01*
X102570165Y-108108553D01*
X102559007Y-108088852D01*
X102553170Y-108080410D01*
X102519704Y-108043057D01*
X102482273Y-108014003D01*
X102477691Y-108011467D01*
X102410574Y-107991443D01*
X102340074Y-107994755D01*
G37*
X102340074Y-107994755D02*
X102274142Y-108019084D01*
X102220727Y-108062117D01*
X102199836Y-108092409D01*
X102177061Y-108147994D01*
X102177534Y-108188186D01*
X102201438Y-108215217D01*
X102210283Y-108219813D01*
X102248470Y-108234144D01*
X102267972Y-108230472D01*
X102274578Y-108206407D01*
X102274914Y-108193114D01*
X102287008Y-108144210D01*
X102318529Y-108109999D01*
X102362341Y-108093476D01*
X102411305Y-108097634D01*
X102451106Y-108119227D01*
X102464550Y-108131544D01*
X102474079Y-108146487D01*
X102480515Y-108169075D01*
X102484683Y-108204328D01*
X102487403Y-108257266D01*
X102489498Y-108332907D01*
X102490040Y-108356857D01*
X102492019Y-108438790D01*
X102494269Y-108496455D01*
X102497643Y-108534608D01*
X102502994Y-108558004D01*
X102511176Y-108571398D01*
X102523041Y-108579545D01*
X102530638Y-108583144D01*
X102562898Y-108595452D01*
X102581889Y-108599514D01*
X102588164Y-108585948D01*
X102591994Y-108544934D01*
X102593400Y-108475999D01*
X102592402Y-108378669D01*
X102592092Y-108363657D01*
X102589899Y-108274859D01*
X102587307Y-108210019D01*
X102583618Y-108164067D01*
X102578136Y-108131935D01*
X102570165Y-108108553D01*
X102559007Y-108088852D01*
X102553170Y-108080410D01*
X102519704Y-108043057D01*
X102482273Y-108014003D01*
X102477691Y-108011467D01*
X102410574Y-107991443D01*
X102340074Y-107994755D01*
G36*
X101679883Y-108110358D02*
G01*
X101680067Y-108218837D01*
X101680781Y-108302287D01*
X101682325Y-108364704D01*
X101684999Y-108410085D01*
X101689106Y-108442429D01*
X101694945Y-108465733D01*
X101702818Y-108483995D01*
X101708779Y-108494418D01*
X101758145Y-108550945D01*
X101820736Y-108586377D01*
X101889987Y-108599090D01*
X101959332Y-108587463D01*
X102000625Y-108566568D01*
X102043975Y-108530422D01*
X102073519Y-108486276D01*
X102091345Y-108428462D01*
X102099537Y-108351313D01*
X102100698Y-108294714D01*
X102100542Y-108290647D01*
X101999143Y-108290647D01*
X101998524Y-108355550D01*
X101995686Y-108398514D01*
X101989160Y-108426622D01*
X101977477Y-108446953D01*
X101963517Y-108462288D01*
X101916635Y-108491890D01*
X101866299Y-108494419D01*
X101818724Y-108469705D01*
X101815021Y-108466356D01*
X101799217Y-108448935D01*
X101789307Y-108428209D01*
X101783942Y-108397362D01*
X101781772Y-108349577D01*
X101781429Y-108296748D01*
X101782173Y-108230381D01*
X101785252Y-108186106D01*
X101791939Y-108157009D01*
X101803504Y-108136173D01*
X101812987Y-108125107D01*
X101857040Y-108097198D01*
X101907776Y-108093843D01*
X101956204Y-108115159D01*
X101965550Y-108123073D01*
X101981460Y-108140647D01*
X101991390Y-108161587D01*
X101996722Y-108192782D01*
X101998837Y-108241122D01*
X101999143Y-108290647D01*
X102100542Y-108290647D01*
X102097190Y-108203568D01*
X102085274Y-108135086D01*
X102062865Y-108083600D01*
X102027876Y-108043443D01*
X102000625Y-108022861D01*
X101951093Y-108000625D01*
X101893684Y-107990304D01*
X101840318Y-107993067D01*
X101810457Y-108004212D01*
X101798739Y-108007383D01*
X101790963Y-107995557D01*
X101785535Y-107963866D01*
X101781429Y-107915593D01*
X101776933Y-107861829D01*
X101770687Y-107829482D01*
X101759324Y-107810985D01*
X101739472Y-107798770D01*
X101727000Y-107793362D01*
X101679829Y-107773601D01*
X101679883Y-108110358D01*
G37*
X101679883Y-108110358D02*
X101680067Y-108218837D01*
X101680781Y-108302287D01*
X101682325Y-108364704D01*
X101684999Y-108410085D01*
X101689106Y-108442429D01*
X101694945Y-108465733D01*
X101702818Y-108483995D01*
X101708779Y-108494418D01*
X101758145Y-108550945D01*
X101820736Y-108586377D01*
X101889987Y-108599090D01*
X101959332Y-108587463D01*
X102000625Y-108566568D01*
X102043975Y-108530422D01*
X102073519Y-108486276D01*
X102091345Y-108428462D01*
X102099537Y-108351313D01*
X102100698Y-108294714D01*
X102100542Y-108290647D01*
X101999143Y-108290647D01*
X101998524Y-108355550D01*
X101995686Y-108398514D01*
X101989160Y-108426622D01*
X101977477Y-108446953D01*
X101963517Y-108462288D01*
X101916635Y-108491890D01*
X101866299Y-108494419D01*
X101818724Y-108469705D01*
X101815021Y-108466356D01*
X101799217Y-108448935D01*
X101789307Y-108428209D01*
X101783942Y-108397362D01*
X101781772Y-108349577D01*
X101781429Y-108296748D01*
X101782173Y-108230381D01*
X101785252Y-108186106D01*
X101791939Y-108157009D01*
X101803504Y-108136173D01*
X101812987Y-108125107D01*
X101857040Y-108097198D01*
X101907776Y-108093843D01*
X101956204Y-108115159D01*
X101965550Y-108123073D01*
X101981460Y-108140647D01*
X101991390Y-108161587D01*
X101996722Y-108192782D01*
X101998837Y-108241122D01*
X101999143Y-108290647D01*
X102100542Y-108290647D01*
X102097190Y-108203568D01*
X102085274Y-108135086D01*
X102062865Y-108083600D01*
X102027876Y-108043443D01*
X102000625Y-108022861D01*
X101951093Y-108000625D01*
X101893684Y-107990304D01*
X101840318Y-107993067D01*
X101810457Y-108004212D01*
X101798739Y-108007383D01*
X101790963Y-107995557D01*
X101785535Y-107963866D01*
X101781429Y-107915593D01*
X101776933Y-107861829D01*
X101770687Y-107829482D01*
X101759324Y-107810985D01*
X101739472Y-107798770D01*
X101727000Y-107793362D01*
X101679829Y-107773601D01*
X101679883Y-108110358D01*
G36*
X101090167Y-108003663D02*
G01*
X101087952Y-108041850D01*
X101086216Y-108099886D01*
X101085101Y-108173180D01*
X101084743Y-108250055D01*
X101084743Y-108510196D01*
X101130674Y-108556127D01*
X101162325Y-108584429D01*
X101190110Y-108595893D01*
X101228085Y-108595168D01*
X101243160Y-108593321D01*
X101290274Y-108587948D01*
X101329244Y-108584869D01*
X101338743Y-108584585D01*
X101370767Y-108586445D01*
X101416568Y-108591114D01*
X101434326Y-108593321D01*
X101477943Y-108596735D01*
X101507255Y-108589320D01*
X101536320Y-108566427D01*
X101546812Y-108556127D01*
X101592743Y-108510196D01*
X101592743Y-108023602D01*
X101555774Y-108006758D01*
X101523941Y-107994282D01*
X101505317Y-107989914D01*
X101500542Y-108003718D01*
X101496079Y-108042286D01*
X101492225Y-108101356D01*
X101489278Y-108176663D01*
X101487857Y-108240286D01*
X101483886Y-108490657D01*
X101449241Y-108495556D01*
X101417732Y-108492131D01*
X101402292Y-108481041D01*
X101397977Y-108460308D01*
X101394292Y-108416145D01*
X101391531Y-108354146D01*
X101389988Y-108279909D01*
X101389765Y-108241706D01*
X101389543Y-108021783D01*
X101343834Y-108005849D01*
X101311482Y-107995015D01*
X101293885Y-107989962D01*
X101293377Y-107989914D01*
X101291612Y-108003648D01*
X101289671Y-108041730D01*
X101287718Y-108099482D01*
X101285916Y-108172227D01*
X101284657Y-108240286D01*
X101280686Y-108490657D01*
X101193600Y-108490657D01*
X101189604Y-108262240D01*
X101185608Y-108033822D01*
X101143153Y-108011868D01*
X101111808Y-107996793D01*
X101093256Y-107989951D01*
X101092721Y-107989914D01*
X101090167Y-108003663D01*
G37*
X101090167Y-108003663D02*
X101087952Y-108041850D01*
X101086216Y-108099886D01*
X101085101Y-108173180D01*
X101084743Y-108250055D01*
X101084743Y-108510196D01*
X101130674Y-108556127D01*
X101162325Y-108584429D01*
X101190110Y-108595893D01*
X101228085Y-108595168D01*
X101243160Y-108593321D01*
X101290274Y-108587948D01*
X101329244Y-108584869D01*
X101338743Y-108584585D01*
X101370767Y-108586445D01*
X101416568Y-108591114D01*
X101434326Y-108593321D01*
X101477943Y-108596735D01*
X101507255Y-108589320D01*
X101536320Y-108566427D01*
X101546812Y-108556127D01*
X101592743Y-108510196D01*
X101592743Y-108023602D01*
X101555774Y-108006758D01*
X101523941Y-107994282D01*
X101505317Y-107989914D01*
X101500542Y-108003718D01*
X101496079Y-108042286D01*
X101492225Y-108101356D01*
X101489278Y-108176663D01*
X101487857Y-108240286D01*
X101483886Y-108490657D01*
X101449241Y-108495556D01*
X101417732Y-108492131D01*
X101402292Y-108481041D01*
X101397977Y-108460308D01*
X101394292Y-108416145D01*
X101391531Y-108354146D01*
X101389988Y-108279909D01*
X101389765Y-108241706D01*
X101389543Y-108021783D01*
X101343834Y-108005849D01*
X101311482Y-107995015D01*
X101293885Y-107989962D01*
X101293377Y-107989914D01*
X101291612Y-108003648D01*
X101289671Y-108041730D01*
X101287718Y-108099482D01*
X101285916Y-108172227D01*
X101284657Y-108240286D01*
X101280686Y-108490657D01*
X101193600Y-108490657D01*
X101189604Y-108262240D01*
X101185608Y-108033822D01*
X101143153Y-108011868D01*
X101111808Y-107996793D01*
X101093256Y-107989951D01*
X101092721Y-107989914D01*
X101090167Y-108003663D01*
G36*
X100725124Y-108001335D02*
G01*
X100683333Y-108020344D01*
X100650531Y-108043378D01*
X100626497Y-108069133D01*
X100609903Y-108102358D01*
X100599423Y-108147800D01*
X100593729Y-108210207D01*
X100591493Y-108294327D01*
X100591257Y-108349721D01*
X100591257Y-108565826D01*
X100628226Y-108582670D01*
X100657344Y-108594981D01*
X100671769Y-108599514D01*
X100674528Y-108586025D01*
X100676718Y-108549653D01*
X100678058Y-108496542D01*
X100678343Y-108454372D01*
X100679566Y-108393447D01*
X100682864Y-108345115D01*
X100687679Y-108315518D01*
X100691504Y-108309229D01*
X100717217Y-108315652D01*
X100757582Y-108332125D01*
X100804321Y-108354458D01*
X100849155Y-108378457D01*
X100883807Y-108399930D01*
X100899998Y-108414685D01*
X100900062Y-108414845D01*
X100898670Y-108442152D01*
X100886182Y-108468219D01*
X100864257Y-108489392D01*
X100832257Y-108496474D01*
X100804908Y-108495649D01*
X100766174Y-108495042D01*
X100745842Y-108504116D01*
X100733631Y-108528092D01*
X100732091Y-108532613D01*
X100726797Y-108566806D01*
X100740953Y-108587568D01*
X100777852Y-108597462D01*
X100817711Y-108599292D01*
X100889438Y-108585727D01*
X100926568Y-108566355D01*
X100972424Y-108520845D01*
X100996744Y-108464983D01*
X100998927Y-108405957D01*
X100978371Y-108350953D01*
X100947451Y-108316486D01*
X100916580Y-108297189D01*
X100868058Y-108272759D01*
X100811515Y-108247985D01*
X100802090Y-108244199D01*
X100739981Y-108216791D01*
X100704178Y-108192634D01*
X100692663Y-108168619D01*
X100703420Y-108141635D01*
X100721886Y-108120543D01*
X100765531Y-108094572D01*
X100813554Y-108092624D01*
X100857594Y-108112637D01*
X100889291Y-108152551D01*
X100893451Y-108162848D01*
X100917673Y-108200724D01*
X100953035Y-108228842D01*
X100997657Y-108251917D01*
X100997657Y-108186485D01*
X100995031Y-108146506D01*
X100983770Y-108114997D01*
X100958801Y-108081378D01*
X100934831Y-108055484D01*
X100897559Y-108018817D01*
X100868599Y-107999121D01*
X100837495Y-107991220D01*
X100802287Y-107989914D01*
X100725124Y-108001335D01*
G37*
X100725124Y-108001335D02*
X100683333Y-108020344D01*
X100650531Y-108043378D01*
X100626497Y-108069133D01*
X100609903Y-108102358D01*
X100599423Y-108147800D01*
X100593729Y-108210207D01*
X100591493Y-108294327D01*
X100591257Y-108349721D01*
X100591257Y-108565826D01*
X100628226Y-108582670D01*
X100657344Y-108594981D01*
X100671769Y-108599514D01*
X100674528Y-108586025D01*
X100676718Y-108549653D01*
X100678058Y-108496542D01*
X100678343Y-108454372D01*
X100679566Y-108393447D01*
X100682864Y-108345115D01*
X100687679Y-108315518D01*
X100691504Y-108309229D01*
X100717217Y-108315652D01*
X100757582Y-108332125D01*
X100804321Y-108354458D01*
X100849155Y-108378457D01*
X100883807Y-108399930D01*
X100899998Y-108414685D01*
X100900062Y-108414845D01*
X100898670Y-108442152D01*
X100886182Y-108468219D01*
X100864257Y-108489392D01*
X100832257Y-108496474D01*
X100804908Y-108495649D01*
X100766174Y-108495042D01*
X100745842Y-108504116D01*
X100733631Y-108528092D01*
X100732091Y-108532613D01*
X100726797Y-108566806D01*
X100740953Y-108587568D01*
X100777852Y-108597462D01*
X100817711Y-108599292D01*
X100889438Y-108585727D01*
X100926568Y-108566355D01*
X100972424Y-108520845D01*
X100996744Y-108464983D01*
X100998927Y-108405957D01*
X100978371Y-108350953D01*
X100947451Y-108316486D01*
X100916580Y-108297189D01*
X100868058Y-108272759D01*
X100811515Y-108247985D01*
X100802090Y-108244199D01*
X100739981Y-108216791D01*
X100704178Y-108192634D01*
X100692663Y-108168619D01*
X100703420Y-108141635D01*
X100721886Y-108120543D01*
X100765531Y-108094572D01*
X100813554Y-108092624D01*
X100857594Y-108112637D01*
X100889291Y-108152551D01*
X100893451Y-108162848D01*
X100917673Y-108200724D01*
X100953035Y-108228842D01*
X100997657Y-108251917D01*
X100997657Y-108186485D01*
X100995031Y-108146506D01*
X100983770Y-108114997D01*
X100958801Y-108081378D01*
X100934831Y-108055484D01*
X100897559Y-108018817D01*
X100868599Y-107999121D01*
X100837495Y-107991220D01*
X100802287Y-107989914D01*
X100725124Y-108001335D01*
G36*
X100217400Y-108003752D02*
G01*
X100200052Y-108011334D01*
X100158644Y-108044128D01*
X100123235Y-108091547D01*
X100101336Y-108142151D01*
X100097771Y-108167098D01*
X100109721Y-108201927D01*
X100135933Y-108220357D01*
X100164036Y-108231516D01*
X100176905Y-108233572D01*
X100183171Y-108218649D01*
X100195544Y-108186175D01*
X100200972Y-108171502D01*
X100231410Y-108120744D01*
X100275480Y-108095427D01*
X100331990Y-108096206D01*
X100336175Y-108097203D01*
X100366345Y-108111507D01*
X100388524Y-108139393D01*
X100403673Y-108184287D01*
X100412750Y-108249615D01*
X100416714Y-108338804D01*
X100417086Y-108386261D01*
X100417270Y-108461071D01*
X100418478Y-108512069D01*
X100421691Y-108544471D01*
X100427891Y-108563495D01*
X100438060Y-108574356D01*
X100453181Y-108582272D01*
X100454054Y-108582670D01*
X100483172Y-108594981D01*
X100497597Y-108599514D01*
X100499814Y-108585809D01*
X100501711Y-108547925D01*
X100503153Y-108490715D01*
X100504002Y-108419027D01*
X100504171Y-108366565D01*
X100503308Y-108265047D01*
X100499930Y-108188032D01*
X100492858Y-108131023D01*
X100480912Y-108089526D01*
X100462910Y-108059043D01*
X100437673Y-108035080D01*
X100412753Y-108018355D01*
X100352829Y-107996097D01*
X100283089Y-107991076D01*
X100217400Y-108003752D01*
G37*
X100217400Y-108003752D02*
X100200052Y-108011334D01*
X100158644Y-108044128D01*
X100123235Y-108091547D01*
X100101336Y-108142151D01*
X100097771Y-108167098D01*
X100109721Y-108201927D01*
X100135933Y-108220357D01*
X100164036Y-108231516D01*
X100176905Y-108233572D01*
X100183171Y-108218649D01*
X100195544Y-108186175D01*
X100200972Y-108171502D01*
X100231410Y-108120744D01*
X100275480Y-108095427D01*
X100331990Y-108096206D01*
X100336175Y-108097203D01*
X100366345Y-108111507D01*
X100388524Y-108139393D01*
X100403673Y-108184287D01*
X100412750Y-108249615D01*
X100416714Y-108338804D01*
X100417086Y-108386261D01*
X100417270Y-108461071D01*
X100418478Y-108512069D01*
X100421691Y-108544471D01*
X100427891Y-108563495D01*
X100438060Y-108574356D01*
X100453181Y-108582272D01*
X100454054Y-108582670D01*
X100483172Y-108594981D01*
X100497597Y-108599514D01*
X100499814Y-108585809D01*
X100501711Y-108547925D01*
X100503153Y-108490715D01*
X100504002Y-108419027D01*
X100504171Y-108366565D01*
X100503308Y-108265047D01*
X100499930Y-108188032D01*
X100492858Y-108131023D01*
X100480912Y-108089526D01*
X100462910Y-108059043D01*
X100437673Y-108035080D01*
X100412753Y-108018355D01*
X100352829Y-107996097D01*
X100283089Y-107991076D01*
X100217400Y-108003752D01*
G36*
X99716405Y-108011966D02*
G01*
X99658979Y-108049497D01*
X99631281Y-108083096D01*
X99609338Y-108144064D01*
X99607595Y-108192308D01*
X99611543Y-108256816D01*
X99760314Y-108321934D01*
X99832651Y-108355202D01*
X99879916Y-108381964D01*
X99904493Y-108405144D01*
X99908763Y-108427667D01*
X99895111Y-108452455D01*
X99880057Y-108468886D01*
X99836254Y-108495235D01*
X99788611Y-108497081D01*
X99744855Y-108476546D01*
X99712711Y-108435752D01*
X99706962Y-108421347D01*
X99679424Y-108376356D01*
X99647742Y-108357182D01*
X99604286Y-108340779D01*
X99604286Y-108402966D01*
X99608128Y-108445283D01*
X99623177Y-108480969D01*
X99654720Y-108521943D01*
X99659408Y-108527267D01*
X99694494Y-108563720D01*
X99724653Y-108583283D01*
X99762385Y-108592283D01*
X99793665Y-108595230D01*
X99849615Y-108595965D01*
X99889445Y-108586660D01*
X99914292Y-108572846D01*
X99953344Y-108542467D01*
X99980375Y-108509613D01*
X99997483Y-108468294D01*
X100006762Y-108412521D01*
X100010307Y-108336305D01*
X100010590Y-108297622D01*
X100009628Y-108251247D01*
X99921993Y-108251247D01*
X99920977Y-108276126D01*
X99918444Y-108280200D01*
X99901726Y-108274665D01*
X99865751Y-108260017D01*
X99817669Y-108239190D01*
X99807614Y-108234714D01*
X99746848Y-108203814D01*
X99713368Y-108176657D01*
X99706010Y-108151220D01*
X99723609Y-108125481D01*
X99738144Y-108114109D01*
X99790590Y-108091364D01*
X99839678Y-108095122D01*
X99880773Y-108122884D01*
X99909242Y-108172152D01*
X99918369Y-108211257D01*
X99921993Y-108251247D01*
X100009628Y-108251247D01*
X100008715Y-108207249D01*
X100001804Y-108140384D01*
X99988116Y-108091695D01*
X99965904Y-108055849D01*
X99933426Y-108027513D01*
X99919267Y-108018355D01*
X99854947Y-107994507D01*
X99784527Y-107993006D01*
X99716405Y-108011966D01*
G37*
X99716405Y-108011966D02*
X99658979Y-108049497D01*
X99631281Y-108083096D01*
X99609338Y-108144064D01*
X99607595Y-108192308D01*
X99611543Y-108256816D01*
X99760314Y-108321934D01*
X99832651Y-108355202D01*
X99879916Y-108381964D01*
X99904493Y-108405144D01*
X99908763Y-108427667D01*
X99895111Y-108452455D01*
X99880057Y-108468886D01*
X99836254Y-108495235D01*
X99788611Y-108497081D01*
X99744855Y-108476546D01*
X99712711Y-108435752D01*
X99706962Y-108421347D01*
X99679424Y-108376356D01*
X99647742Y-108357182D01*
X99604286Y-108340779D01*
X99604286Y-108402966D01*
X99608128Y-108445283D01*
X99623177Y-108480969D01*
X99654720Y-108521943D01*
X99659408Y-108527267D01*
X99694494Y-108563720D01*
X99724653Y-108583283D01*
X99762385Y-108592283D01*
X99793665Y-108595230D01*
X99849615Y-108595965D01*
X99889445Y-108586660D01*
X99914292Y-108572846D01*
X99953344Y-108542467D01*
X99980375Y-108509613D01*
X99997483Y-108468294D01*
X100006762Y-108412521D01*
X100010307Y-108336305D01*
X100010590Y-108297622D01*
X100009628Y-108251247D01*
X99921993Y-108251247D01*
X99920977Y-108276126D01*
X99918444Y-108280200D01*
X99901726Y-108274665D01*
X99865751Y-108260017D01*
X99817669Y-108239190D01*
X99807614Y-108234714D01*
X99746848Y-108203814D01*
X99713368Y-108176657D01*
X99706010Y-108151220D01*
X99723609Y-108125481D01*
X99738144Y-108114109D01*
X99790590Y-108091364D01*
X99839678Y-108095122D01*
X99880773Y-108122884D01*
X99909242Y-108172152D01*
X99918369Y-108211257D01*
X99921993Y-108251247D01*
X100009628Y-108251247D01*
X100008715Y-108207249D01*
X100001804Y-108140384D01*
X99988116Y-108091695D01*
X99965904Y-108055849D01*
X99933426Y-108027513D01*
X99919267Y-108018355D01*
X99854947Y-107994507D01*
X99784527Y-107993006D01*
X99716405Y-108011966D01*
G36*
X102766090Y-103287348D02*
G01*
X102687546Y-103287778D01*
X102630702Y-103288942D01*
X102591895Y-103291207D01*
X102567462Y-103294940D01*
X102553738Y-103300506D01*
X102547060Y-103308273D01*
X102543764Y-103318605D01*
X102543444Y-103319943D01*
X102538438Y-103344079D01*
X102529171Y-103391701D01*
X102516608Y-103457741D01*
X102501713Y-103537128D01*
X102485449Y-103624796D01*
X102484881Y-103627875D01*
X102468590Y-103713789D01*
X102453348Y-103789696D01*
X102440139Y-103851045D01*
X102429946Y-103893282D01*
X102423752Y-103911855D01*
X102423457Y-103912184D01*
X102405212Y-103921253D01*
X102367595Y-103936367D01*
X102318729Y-103954262D01*
X102318457Y-103954358D01*
X102256907Y-103977493D01*
X102184343Y-104006965D01*
X102115943Y-104036597D01*
X102112706Y-104038062D01*
X102001298Y-104088626D01*
X101754601Y-103920160D01*
X101678923Y-103868803D01*
X101610369Y-103822889D01*
X101552912Y-103785030D01*
X101510524Y-103757837D01*
X101487175Y-103743921D01*
X101484958Y-103742889D01*
X101467990Y-103747484D01*
X101436299Y-103769655D01*
X101388648Y-103810447D01*
X101323802Y-103870905D01*
X101257603Y-103935227D01*
X101193786Y-103998612D01*
X101136671Y-104056451D01*
X101089695Y-104105175D01*
X101056297Y-104141210D01*
X101039915Y-104160984D01*
X101039306Y-104162002D01*
X101037495Y-104175572D01*
X101044317Y-104197733D01*
X101061460Y-104231478D01*
X101090607Y-104279800D01*
X101133445Y-104345692D01*
X101190552Y-104430517D01*
X101241234Y-104505177D01*
X101286539Y-104572140D01*
X101323850Y-104627516D01*
X101350548Y-104667420D01*
X101364015Y-104687962D01*
X101364863Y-104689356D01*
X101363219Y-104709038D01*
X101350755Y-104747293D01*
X101329952Y-104796889D01*
X101322538Y-104812728D01*
X101290186Y-104883290D01*
X101255672Y-104963353D01*
X101227635Y-105032629D01*
X101207432Y-105084045D01*
X101191385Y-105123119D01*
X101182112Y-105143541D01*
X101180959Y-105145114D01*
X101163904Y-105147721D01*
X101123702Y-105154863D01*
X101065698Y-105165523D01*
X100995237Y-105178685D01*
X100917665Y-105193333D01*
X100838328Y-105208449D01*
X100762569Y-105223018D01*
X100695736Y-105236022D01*
X100643172Y-105246445D01*
X100610224Y-105253270D01*
X100602143Y-105255199D01*
X100593795Y-105259962D01*
X100587494Y-105270718D01*
X100582955Y-105291098D01*
X100579896Y-105324734D01*
X100578033Y-105375255D01*
X100577082Y-105446292D01*
X100576760Y-105541476D01*
X100576743Y-105580492D01*
X100576743Y-105897799D01*
X100652943Y-105912839D01*
X100695337Y-105920995D01*
X100758600Y-105932899D01*
X100835038Y-105947116D01*
X100916957Y-105962210D01*
X100939600Y-105966355D01*
X101015194Y-105981053D01*
X101081047Y-105995505D01*
X101131634Y-106008375D01*
X101161426Y-106018322D01*
X101166388Y-106021287D01*
X101178574Y-106042283D01*
X101196047Y-106082967D01*
X101215423Y-106135322D01*
X101219266Y-106146600D01*
X101244661Y-106216523D01*
X101276183Y-106295418D01*
X101307031Y-106366266D01*
X101307183Y-106366595D01*
X101358553Y-106477733D01*
X101189601Y-106726253D01*
X101020648Y-106974772D01*
X101237571Y-107192058D01*
X101303181Y-107256726D01*
X101363021Y-107313733D01*
X101413733Y-107360033D01*
X101451954Y-107392584D01*
X101474325Y-107408343D01*
X101477534Y-107409343D01*
X101496374Y-107401469D01*
X101534820Y-107379578D01*
X101588670Y-107346267D01*
X101653724Y-107304131D01*
X101724060Y-107256943D01*
X101795445Y-107208810D01*
X101859092Y-107166928D01*
X101910959Y-107133871D01*
X101947005Y-107112218D01*
X101963133Y-107104543D01*
X101982811Y-107111037D01*
X102020125Y-107128150D01*
X102067379Y-107152326D01*
X102072388Y-107155013D01*
X102136023Y-107186927D01*
X102179659Y-107202579D01*
X102206798Y-107202745D01*
X102220943Y-107188204D01*
X102221025Y-107188000D01*
X102228095Y-107170779D01*
X102244958Y-107129899D01*
X102270305Y-107068525D01*
X102302829Y-106989819D01*
X102341222Y-106896947D01*
X102384178Y-106793072D01*
X102425778Y-106692502D01*
X102471496Y-106581516D01*
X102513474Y-106478703D01*
X102550452Y-106387215D01*
X102581173Y-106310201D01*
X102604378Y-106250815D01*
X102618810Y-106212209D01*
X102623257Y-106197800D01*
X102612104Y-106181272D01*
X102582931Y-106154930D01*
X102544029Y-106125887D01*
X102433243Y-106034039D01*
X102346649Y-105928759D01*
X102285284Y-105812266D01*
X102250185Y-105686776D01*
X102242392Y-105554507D01*
X102248057Y-105493457D01*
X102278922Y-105366795D01*
X102332080Y-105254941D01*
X102404233Y-105159001D01*
X102492083Y-105080076D01*
X102592335Y-105019270D01*
X102701690Y-104977687D01*
X102816853Y-104956428D01*
X102934525Y-104956599D01*
X103051410Y-104979301D01*
X103164211Y-105025638D01*
X103269631Y-105096713D01*
X103313632Y-105136911D01*
X103398021Y-105240129D01*
X103456778Y-105352925D01*
X103490296Y-105472010D01*
X103498965Y-105594095D01*
X103483177Y-105715893D01*
X103443322Y-105834116D01*
X103379793Y-105945475D01*
X103292979Y-106046684D01*
X103195971Y-106125887D01*
X103155563Y-106156162D01*
X103127018Y-106182219D01*
X103116743Y-106197825D01*
X103122123Y-106214843D01*
X103137425Y-106255500D01*
X103161388Y-106316642D01*
X103192756Y-106395119D01*
X103230268Y-106487780D01*
X103272667Y-106591472D01*
X103314337Y-106692526D01*
X103360310Y-106803607D01*
X103402893Y-106906541D01*
X103440779Y-106998165D01*
X103472660Y-107075316D01*
X103497229Y-107134831D01*
X103513180Y-107173544D01*
X103519090Y-107188000D01*
X103533052Y-107202685D01*
X103560060Y-107202642D01*
X103603587Y-107187099D01*
X103667110Y-107155284D01*
X103667612Y-107155013D01*
X103715440Y-107130323D01*
X103754103Y-107112338D01*
X103775905Y-107104614D01*
X103776867Y-107104543D01*
X103793279Y-107112378D01*
X103829513Y-107134165D01*
X103881526Y-107167328D01*
X103945275Y-107209291D01*
X104015940Y-107256943D01*
X104087884Y-107305191D01*
X104152726Y-107347151D01*
X104206265Y-107380227D01*
X104244303Y-107401821D01*
X104262467Y-107409343D01*
X104279192Y-107399457D01*
X104312820Y-107371826D01*
X104359990Y-107329495D01*
X104417342Y-107275505D01*
X104481516Y-107212899D01*
X104502503Y-107191983D01*
X104719501Y-106974623D01*
X104554332Y-106732220D01*
X104504136Y-106657781D01*
X104460081Y-106590972D01*
X104424638Y-106535665D01*
X104400281Y-106495729D01*
X104389478Y-106475036D01*
X104389162Y-106473563D01*
X104394857Y-106454058D01*
X104410174Y-106414822D01*
X104432463Y-106362430D01*
X104448107Y-106327355D01*
X104477359Y-106260201D01*
X104504906Y-106192358D01*
X104526263Y-106135034D01*
X104532065Y-106117572D01*
X104548548Y-106070938D01*
X104564660Y-106034905D01*
X104573510Y-106021287D01*
X104593040Y-106012952D01*
X104635666Y-106001137D01*
X104695855Y-105987181D01*
X104768078Y-105972422D01*
X104800400Y-105966355D01*
X104882478Y-105951273D01*
X104961205Y-105936669D01*
X105028891Y-105923980D01*
X105077840Y-105914642D01*
X105087057Y-105912839D01*
X105163257Y-105897799D01*
X105163257Y-105580492D01*
X105163086Y-105476154D01*
X105162384Y-105397213D01*
X105160866Y-105340038D01*
X105158251Y-105300999D01*
X105154254Y-105276465D01*
X105148591Y-105262805D01*
X105140980Y-105256389D01*
X105137857Y-105255199D01*
X105119022Y-105250980D01*
X105077412Y-105242562D01*
X105018370Y-105230961D01*
X104947243Y-105217195D01*
X104869375Y-105202280D01*
X104790113Y-105187232D01*
X104714802Y-105173069D01*
X104648787Y-105160806D01*
X104597413Y-105151461D01*
X104566025Y-105146050D01*
X104559041Y-105145114D01*
X104552715Y-105132596D01*
X104538710Y-105099246D01*
X104519645Y-105051377D01*
X104512366Y-105032629D01*
X104483004Y-104960195D01*
X104448429Y-104880170D01*
X104417463Y-104812728D01*
X104394677Y-104761159D01*
X104379518Y-104718785D01*
X104374458Y-104692834D01*
X104375264Y-104689356D01*
X104385959Y-104672936D01*
X104410380Y-104636417D01*
X104445905Y-104583687D01*
X104489913Y-104518635D01*
X104539783Y-104445151D01*
X104549644Y-104430645D01*
X104607508Y-104344704D01*
X104650044Y-104279261D01*
X104678946Y-104231304D01*
X104695910Y-104197820D01*
X104702633Y-104175795D01*
X104700810Y-104162217D01*
X104700764Y-104162131D01*
X104686414Y-104144297D01*
X104654677Y-104109817D01*
X104608990Y-104062268D01*
X104552796Y-104005222D01*
X104489532Y-103942255D01*
X104482398Y-103935227D01*
X104402670Y-103858020D01*
X104341143Y-103801330D01*
X104296579Y-103764110D01*
X104267743Y-103745315D01*
X104255042Y-103742889D01*
X104236506Y-103753471D01*
X104198039Y-103777916D01*
X104143614Y-103813612D01*
X104077202Y-103857947D01*
X104002775Y-103908311D01*
X103985399Y-103920160D01*
X103738703Y-104088626D01*
X103627294Y-104038062D01*
X103559543Y-104008595D01*
X103486817Y-103978959D01*
X103424297Y-103955330D01*
X103421543Y-103954358D01*
X103372640Y-103936457D01*
X103334943Y-103921320D01*
X103316575Y-103912210D01*
X103316544Y-103912184D01*
X103310715Y-103895717D01*
X103300808Y-103855219D01*
X103287805Y-103795242D01*
X103272691Y-103720340D01*
X103256448Y-103635064D01*
X103255119Y-103627875D01*
X103238825Y-103540014D01*
X103223867Y-103460260D01*
X103211209Y-103393681D01*
X103201814Y-103345347D01*
X103196646Y-103320325D01*
X103196556Y-103319943D01*
X103193411Y-103309299D01*
X103187296Y-103301262D01*
X103174547Y-103295467D01*
X103151500Y-103291547D01*
X103114491Y-103289135D01*
X103059856Y-103287865D01*
X102983933Y-103287371D01*
X102883056Y-103287286D01*
X102870000Y-103287286D01*
X102766090Y-103287348D01*
G37*
X102766090Y-103287348D02*
X102687546Y-103287778D01*
X102630702Y-103288942D01*
X102591895Y-103291207D01*
X102567462Y-103294940D01*
X102553738Y-103300506D01*
X102547060Y-103308273D01*
X102543764Y-103318605D01*
X102543444Y-103319943D01*
X102538438Y-103344079D01*
X102529171Y-103391701D01*
X102516608Y-103457741D01*
X102501713Y-103537128D01*
X102485449Y-103624796D01*
X102484881Y-103627875D01*
X102468590Y-103713789D01*
X102453348Y-103789696D01*
X102440139Y-103851045D01*
X102429946Y-103893282D01*
X102423752Y-103911855D01*
X102423457Y-103912184D01*
X102405212Y-103921253D01*
X102367595Y-103936367D01*
X102318729Y-103954262D01*
X102318457Y-103954358D01*
X102256907Y-103977493D01*
X102184343Y-104006965D01*
X102115943Y-104036597D01*
X102112706Y-104038062D01*
X102001298Y-104088626D01*
X101754601Y-103920160D01*
X101678923Y-103868803D01*
X101610369Y-103822889D01*
X101552912Y-103785030D01*
X101510524Y-103757837D01*
X101487175Y-103743921D01*
X101484958Y-103742889D01*
X101467990Y-103747484D01*
X101436299Y-103769655D01*
X101388648Y-103810447D01*
X101323802Y-103870905D01*
X101257603Y-103935227D01*
X101193786Y-103998612D01*
X101136671Y-104056451D01*
X101089695Y-104105175D01*
X101056297Y-104141210D01*
X101039915Y-104160984D01*
X101039306Y-104162002D01*
X101037495Y-104175572D01*
X101044317Y-104197733D01*
X101061460Y-104231478D01*
X101090607Y-104279800D01*
X101133445Y-104345692D01*
X101190552Y-104430517D01*
X101241234Y-104505177D01*
X101286539Y-104572140D01*
X101323850Y-104627516D01*
X101350548Y-104667420D01*
X101364015Y-104687962D01*
X101364863Y-104689356D01*
X101363219Y-104709038D01*
X101350755Y-104747293D01*
X101329952Y-104796889D01*
X101322538Y-104812728D01*
X101290186Y-104883290D01*
X101255672Y-104963353D01*
X101227635Y-105032629D01*
X101207432Y-105084045D01*
X101191385Y-105123119D01*
X101182112Y-105143541D01*
X101180959Y-105145114D01*
X101163904Y-105147721D01*
X101123702Y-105154863D01*
X101065698Y-105165523D01*
X100995237Y-105178685D01*
X100917665Y-105193333D01*
X100838328Y-105208449D01*
X100762569Y-105223018D01*
X100695736Y-105236022D01*
X100643172Y-105246445D01*
X100610224Y-105253270D01*
X100602143Y-105255199D01*
X100593795Y-105259962D01*
X100587494Y-105270718D01*
X100582955Y-105291098D01*
X100579896Y-105324734D01*
X100578033Y-105375255D01*
X100577082Y-105446292D01*
X100576760Y-105541476D01*
X100576743Y-105580492D01*
X100576743Y-105897799D01*
X100652943Y-105912839D01*
X100695337Y-105920995D01*
X100758600Y-105932899D01*
X100835038Y-105947116D01*
X100916957Y-105962210D01*
X100939600Y-105966355D01*
X101015194Y-105981053D01*
X101081047Y-105995505D01*
X101131634Y-106008375D01*
X101161426Y-106018322D01*
X101166388Y-106021287D01*
X101178574Y-106042283D01*
X101196047Y-106082967D01*
X101215423Y-106135322D01*
X101219266Y-106146600D01*
X101244661Y-106216523D01*
X101276183Y-106295418D01*
X101307031Y-106366266D01*
X101307183Y-106366595D01*
X101358553Y-106477733D01*
X101189601Y-106726253D01*
X101020648Y-106974772D01*
X101237571Y-107192058D01*
X101303181Y-107256726D01*
X101363021Y-107313733D01*
X101413733Y-107360033D01*
X101451954Y-107392584D01*
X101474325Y-107408343D01*
X101477534Y-107409343D01*
X101496374Y-107401469D01*
X101534820Y-107379578D01*
X101588670Y-107346267D01*
X101653724Y-107304131D01*
X101724060Y-107256943D01*
X101795445Y-107208810D01*
X101859092Y-107166928D01*
X101910959Y-107133871D01*
X101947005Y-107112218D01*
X101963133Y-107104543D01*
X101982811Y-107111037D01*
X102020125Y-107128150D01*
X102067379Y-107152326D01*
X102072388Y-107155013D01*
X102136023Y-107186927D01*
X102179659Y-107202579D01*
X102206798Y-107202745D01*
X102220943Y-107188204D01*
X102221025Y-107188000D01*
X102228095Y-107170779D01*
X102244958Y-107129899D01*
X102270305Y-107068525D01*
X102302829Y-106989819D01*
X102341222Y-106896947D01*
X102384178Y-106793072D01*
X102425778Y-106692502D01*
X102471496Y-106581516D01*
X102513474Y-106478703D01*
X102550452Y-106387215D01*
X102581173Y-106310201D01*
X102604378Y-106250815D01*
X102618810Y-106212209D01*
X102623257Y-106197800D01*
X102612104Y-106181272D01*
X102582931Y-106154930D01*
X102544029Y-106125887D01*
X102433243Y-106034039D01*
X102346649Y-105928759D01*
X102285284Y-105812266D01*
X102250185Y-105686776D01*
X102242392Y-105554507D01*
X102248057Y-105493457D01*
X102278922Y-105366795D01*
X102332080Y-105254941D01*
X102404233Y-105159001D01*
X102492083Y-105080076D01*
X102592335Y-105019270D01*
X102701690Y-104977687D01*
X102816853Y-104956428D01*
X102934525Y-104956599D01*
X103051410Y-104979301D01*
X103164211Y-105025638D01*
X103269631Y-105096713D01*
X103313632Y-105136911D01*
X103398021Y-105240129D01*
X103456778Y-105352925D01*
X103490296Y-105472010D01*
X103498965Y-105594095D01*
X103483177Y-105715893D01*
X103443322Y-105834116D01*
X103379793Y-105945475D01*
X103292979Y-106046684D01*
X103195971Y-106125887D01*
X103155563Y-106156162D01*
X103127018Y-106182219D01*
X103116743Y-106197825D01*
X103122123Y-106214843D01*
X103137425Y-106255500D01*
X103161388Y-106316642D01*
X103192756Y-106395119D01*
X103230268Y-106487780D01*
X103272667Y-106591472D01*
X103314337Y-106692526D01*
X103360310Y-106803607D01*
X103402893Y-106906541D01*
X103440779Y-106998165D01*
X103472660Y-107075316D01*
X103497229Y-107134831D01*
X103513180Y-107173544D01*
X103519090Y-107188000D01*
X103533052Y-107202685D01*
X103560060Y-107202642D01*
X103603587Y-107187099D01*
X103667110Y-107155284D01*
X103667612Y-107155013D01*
X103715440Y-107130323D01*
X103754103Y-107112338D01*
X103775905Y-107104614D01*
X103776867Y-107104543D01*
X103793279Y-107112378D01*
X103829513Y-107134165D01*
X103881526Y-107167328D01*
X103945275Y-107209291D01*
X104015940Y-107256943D01*
X104087884Y-107305191D01*
X104152726Y-107347151D01*
X104206265Y-107380227D01*
X104244303Y-107401821D01*
X104262467Y-107409343D01*
X104279192Y-107399457D01*
X104312820Y-107371826D01*
X104359990Y-107329495D01*
X104417342Y-107275505D01*
X104481516Y-107212899D01*
X104502503Y-107191983D01*
X104719501Y-106974623D01*
X104554332Y-106732220D01*
X104504136Y-106657781D01*
X104460081Y-106590972D01*
X104424638Y-106535665D01*
X104400281Y-106495729D01*
X104389478Y-106475036D01*
X104389162Y-106473563D01*
X104394857Y-106454058D01*
X104410174Y-106414822D01*
X104432463Y-106362430D01*
X104448107Y-106327355D01*
X104477359Y-106260201D01*
X104504906Y-106192358D01*
X104526263Y-106135034D01*
X104532065Y-106117572D01*
X104548548Y-106070938D01*
X104564660Y-106034905D01*
X104573510Y-106021287D01*
X104593040Y-106012952D01*
X104635666Y-106001137D01*
X104695855Y-105987181D01*
X104768078Y-105972422D01*
X104800400Y-105966355D01*
X104882478Y-105951273D01*
X104961205Y-105936669D01*
X105028891Y-105923980D01*
X105077840Y-105914642D01*
X105087057Y-105912839D01*
X105163257Y-105897799D01*
X105163257Y-105580492D01*
X105163086Y-105476154D01*
X105162384Y-105397213D01*
X105160866Y-105340038D01*
X105158251Y-105300999D01*
X105154254Y-105276465D01*
X105148591Y-105262805D01*
X105140980Y-105256389D01*
X105137857Y-105255199D01*
X105119022Y-105250980D01*
X105077412Y-105242562D01*
X105018370Y-105230961D01*
X104947243Y-105217195D01*
X104869375Y-105202280D01*
X104790113Y-105187232D01*
X104714802Y-105173069D01*
X104648787Y-105160806D01*
X104597413Y-105151461D01*
X104566025Y-105146050D01*
X104559041Y-105145114D01*
X104552715Y-105132596D01*
X104538710Y-105099246D01*
X104519645Y-105051377D01*
X104512366Y-105032629D01*
X104483004Y-104960195D01*
X104448429Y-104880170D01*
X104417463Y-104812728D01*
X104394677Y-104761159D01*
X104379518Y-104718785D01*
X104374458Y-104692834D01*
X104375264Y-104689356D01*
X104385959Y-104672936D01*
X104410380Y-104636417D01*
X104445905Y-104583687D01*
X104489913Y-104518635D01*
X104539783Y-104445151D01*
X104549644Y-104430645D01*
X104607508Y-104344704D01*
X104650044Y-104279261D01*
X104678946Y-104231304D01*
X104695910Y-104197820D01*
X104702633Y-104175795D01*
X104700810Y-104162217D01*
X104700764Y-104162131D01*
X104686414Y-104144297D01*
X104654677Y-104109817D01*
X104608990Y-104062268D01*
X104552796Y-104005222D01*
X104489532Y-103942255D01*
X104482398Y-103935227D01*
X104402670Y-103858020D01*
X104341143Y-103801330D01*
X104296579Y-103764110D01*
X104267743Y-103745315D01*
X104255042Y-103742889D01*
X104236506Y-103753471D01*
X104198039Y-103777916D01*
X104143614Y-103813612D01*
X104077202Y-103857947D01*
X104002775Y-103908311D01*
X103985399Y-103920160D01*
X103738703Y-104088626D01*
X103627294Y-104038062D01*
X103559543Y-104008595D01*
X103486817Y-103978959D01*
X103424297Y-103955330D01*
X103421543Y-103954358D01*
X103372640Y-103936457D01*
X103334943Y-103921320D01*
X103316575Y-103912210D01*
X103316544Y-103912184D01*
X103310715Y-103895717D01*
X103300808Y-103855219D01*
X103287805Y-103795242D01*
X103272691Y-103720340D01*
X103256448Y-103635064D01*
X103255119Y-103627875D01*
X103238825Y-103540014D01*
X103223867Y-103460260D01*
X103211209Y-103393681D01*
X103201814Y-103345347D01*
X103196646Y-103320325D01*
X103196556Y-103319943D01*
X103193411Y-103309299D01*
X103187296Y-103301262D01*
X103174547Y-103295467D01*
X103151500Y-103291547D01*
X103114491Y-103289135D01*
X103059856Y-103287865D01*
X102983933Y-103287371D01*
X102883056Y-103287286D01*
X102870000Y-103287286D01*
X102766090Y-103287348D01*
M02*
